<svg width="275" height="18" viewBox="0 0 275 18" fill="none" xmlns="http://www.w3.org/2000/svg">
<path d="M9.63867 2.19336C9.9056 2.19336 10.0944 2.24219 10.2051 2.33984C10.3158 2.4375 10.3711 2.60026 10.3711 2.82812V5.66016C10.3711 5.88802 10.3158 6.05078 10.2051 6.14844C10.0944 6.24609 9.9056 6.29492 9.63867 6.29492C9.37174 6.29492 9.18294 6.24609 9.07227 6.14844C8.96159 6.05078 8.90625 5.88802 8.90625 5.66016C8.90625 5.26953 8.79883 4.92122 8.58398 4.61523C8.37565 4.30924 8.06641 4.07161 7.65625 3.90234C7.24609 3.72656 6.75781 3.63867 6.19141 3.63867C5.46875 3.63867 4.82747 3.82422 4.26758 4.19531C3.71419 4.56641 3.28125 5.09701 2.96875 5.78711C2.65625 6.47721 2.5 7.28451 2.5 8.20898C2.5 9.13346 2.64648 9.94076 2.93945 10.6309C3.23893 11.3145 3.65885 11.8418 4.19922 12.2129C4.74609 12.584 5.3776 12.7695 6.09375 12.7695C7.23307 12.7695 8.20638 12.584 9.01367 12.2129V9.99609H6.60156C6.38021 9.99609 6.2207 9.94727 6.12305 9.84961C6.0319 9.74544 5.98633 9.57292 5.98633 9.33203C5.98633 9.09115 6.0319 8.92188 6.12305 8.82422C6.2207 8.72005 6.38021 8.66797 6.60156 8.66797H10.791C11.0124 8.66797 11.1686 8.72005 11.2598 8.82422C11.3574 8.92188 11.4062 9.09115 11.4062 9.33203C11.4062 9.57292 11.3574 9.74544 11.2598 9.84961C11.1686 9.94727 11.0124 9.99609 10.791 9.99609H10.4785V12.6035C10.4785 12.9225 10.3613 13.1471 10.127 13.2773C9.5931 13.5833 8.97786 13.8177 8.28125 13.9805C7.58464 14.1367 6.85547 14.2148 6.09375 14.2148C5.07812 14.2148 4.17969 13.9674 3.39844 13.4727C2.6237 12.9714 2.02148 12.2682 1.5918 11.3633C1.16862 10.4518 0.957031 9.40039 0.957031 8.20898C0.957031 7.02409 1.17513 5.97591 1.61133 5.06445C2.05404 4.15299 2.66276 3.44661 3.4375 2.94531C4.21875 2.44401 5.10417 2.19336 6.09375 2.19336C6.70573 2.19336 7.24609 2.29102 7.71484 2.48633C8.1901 2.67513 8.58724 2.94857 8.90625 3.30664V2.82812C8.90625 2.60026 8.96159 2.4375 9.07227 2.33984C9.18294 2.24219 9.37174 2.19336 9.63867 2.19336ZM17.9883 4.76172C18.8802 4.76172 19.6842 4.96354 20.4004 5.36719C21.1165 5.77083 21.6764 6.33398 22.0801 7.05664C22.4902 7.77279 22.6953 8.58333 22.6953 9.48828C22.6953 10.3932 22.4902 11.207 22.0801 11.9297C21.6764 12.6458 21.1165 13.2057 20.4004 13.6094C19.6842 14.013 18.8802 14.2148 17.9883 14.2148C17.0964 14.2148 16.2923 14.013 15.5762 13.6094C14.86 13.2057 14.2969 12.6458 13.8867 11.9297C13.4831 11.207 13.2812 10.3932 13.2812 9.48828C13.2812 8.58333 13.4831 7.77279 13.8867 7.05664C14.2969 6.33398 14.86 5.77083 15.5762 5.36719C16.2923 4.96354 17.0964 4.76172 17.9883 4.76172ZM17.9883 6.20703C17.3568 6.20703 16.8001 6.34701 16.3184 6.62695C15.8431 6.90039 15.4753 7.28776 15.2148 7.78906C14.9544 8.28385 14.8242 8.85026 14.8242 9.48828C14.8242 10.1263 14.9544 10.696 15.2148 11.1973C15.4753 11.6921 15.8431 12.0794 16.3184 12.3594C16.8001 12.6328 17.3568 12.7695 17.9883 12.7695C18.6198 12.7695 19.1732 12.6328 19.6484 12.3594C20.1302 12.0794 20.5013 11.6921 20.7617 11.1973C21.0221 10.696 21.1523 10.1263 21.1523 9.48828C21.1523 8.85026 21.0221 8.28385 20.7617 7.78906C20.5013 7.28776 20.1302 6.90039 19.6484 6.62695C19.1732 6.34701 18.6198 6.20703 17.9883 6.20703ZM41.4355 4.76172C42.0736 4.76172 42.6628 4.90495 43.2031 5.19141C43.7435 5.47786 44.2188 5.88802 44.6289 6.42188V5.64062C44.6289 5.39974 44.6745 5.23047 44.7656 5.13281C44.8633 5.02865 45.0228 4.97656 45.2441 4.97656H46.7969C47.0182 4.97656 47.1745 5.02865 47.2656 5.13281C47.3633 5.23047 47.4121 5.39974 47.4121 5.64062C47.4121 5.88151 47.3633 6.05404 47.2656 6.1582C47.1745 6.25586 47.0182 6.30469 46.7969 6.30469H45.9961V14.293C45.9961 15.0677 45.8301 15.7318 45.498 16.2852C45.1725 16.8451 44.6973 17.2715 44.0723 17.5645C43.4473 17.8574 42.6953 18.0039 41.8164 18.0039C41.1914 18.0039 40.5599 17.9486 39.9219 17.8379C39.2839 17.7337 38.6882 17.5807 38.1348 17.3789C37.8809 17.2878 37.7539 17.1152 37.7539 16.8613C37.7539 16.7572 37.7799 16.627 37.832 16.4707C37.9492 16.1126 38.1348 15.9336 38.3887 15.9336C38.4603 15.9336 38.5319 15.9466 38.6035 15.9727C39.1113 16.1549 39.6452 16.2982 40.2051 16.4023C40.765 16.5065 41.3021 16.5586 41.8164 16.5586C42.7148 16.5586 43.3919 16.3438 43.8477 15.9141C44.3034 15.4909 44.5312 14.9082 44.5312 14.166V12.2031C43.724 13.2188 42.6921 13.7266 41.4355 13.7266C40.6283 13.7266 39.9056 13.5475 39.2676 13.1895C38.6296 12.8249 38.1283 12.304 37.7637 11.627C37.3991 10.9499 37.2168 10.1556 37.2168 9.24414C37.2168 8.33268 37.3991 7.53841 37.7637 6.86133C38.1283 6.18424 38.6296 5.66667 39.2676 5.30859C39.9056 4.94401 40.6283 4.76172 41.4355 4.76172ZM41.5332 6.20703C40.9538 6.20703 40.4557 6.33724 40.0391 6.59766C39.6224 6.85156 39.3034 7.20964 39.082 7.67188C38.8672 8.1276 38.7598 8.65169 38.7598 9.24414C38.7598 9.83659 38.8672 10.3639 39.082 10.8262C39.3034 11.2819 39.6224 11.64 40.0391 11.9004C40.4557 12.1543 40.9538 12.2812 41.5332 12.2812C42.1126 12.2812 42.627 12.1608 43.0762 11.9199C43.5319 11.679 43.8867 11.3307 44.1406 10.875C44.401 10.4128 44.5312 9.86914 44.5312 9.24414C44.5312 8.61914 44.401 8.07878 44.1406 7.62305C43.8867 7.16081 43.5319 6.80924 43.0762 6.56836C42.627 6.32747 42.1126 6.20703 41.5332 6.20703ZM54.0527 4.76172C54.9967 4.76172 55.8008 4.95378 56.4648 5.33789C57.1354 5.71549 57.6497 6.24284 58.0078 6.91992C58.3659 7.59049 58.571 8.36523 58.623 9.24414C58.623 9.46549 58.5742 9.62174 58.4766 9.71289C58.3854 9.80404 58.2292 9.84961 58.0078 9.84961H50.9375C50.9831 10.8197 51.2695 11.5553 51.7969 12.0566C52.3307 12.5514 53.0827 12.7988 54.0527 12.7988C54.6517 12.7988 55.2441 12.724 55.8301 12.5742C56.416 12.418 56.9303 12.2129 57.373 11.959C57.4837 11.9004 57.5846 11.8711 57.6758 11.8711C57.9036 11.8711 58.0892 12.0436 58.2324 12.3887C58.291 12.5254 58.3203 12.6491 58.3203 12.7598C58.3203 13.0202 58.1771 13.222 57.8906 13.3652C57.3893 13.6191 56.7969 13.8242 56.1133 13.9805C55.4297 14.1367 54.7428 14.2148 54.0527 14.2148C53.0697 14.2148 52.2298 14.026 51.5332 13.6484C50.8366 13.2708 50.306 12.7272 49.9414 12.0176C49.5768 11.3079 49.3945 10.4648 49.3945 9.48828C49.3945 8.55729 49.5931 7.73372 49.9902 7.01758C50.3874 6.30143 50.9375 5.74805 51.6406 5.35742C52.3438 4.96029 53.1478 4.76172 54.0527 4.76172ZM54.0527 6.17773C53.252 6.17773 52.5879 6.38281 52.0605 6.79297C51.5397 7.19661 51.1979 7.75977 51.0352 8.48242H57.002C56.8652 7.73372 56.5495 7.16406 56.0547 6.77344C55.5664 6.3763 54.8991 6.17773 54.0527 6.17773ZM64.4336 2.19336C64.7005 2.19336 64.8893 2.24219 65 2.33984C65.1107 2.4375 65.166 2.60026 65.166 2.82812V5.75781H69.1797C69.401 5.75781 69.5573 5.8099 69.6484 5.91406C69.7461 6.01172 69.7949 6.18099 69.7949 6.42188C69.7949 6.66276 69.7461 6.83529 69.6484 6.93945C69.5573 7.03711 69.401 7.08594 69.1797 7.08594H65.166V10.6406C65.166 11.3828 65.293 11.9264 65.5469 12.2715C65.8073 12.6165 66.2565 12.7891 66.8945 12.7891C67.3307 12.7891 67.7897 12.7012 68.2715 12.5254C68.7533 12.3496 69.2188 12.1152 69.668 11.8223C69.7591 11.7572 69.86 11.7246 69.9707 11.7246C70.1921 11.7246 70.3809 11.8743 70.5371 12.1738C70.6217 12.3431 70.6641 12.4896 70.6641 12.6133C70.6641 12.8216 70.5566 12.9909 70.3418 13.1211C69.834 13.4401 69.2676 13.7038 68.6426 13.9121C68.0176 14.1139 67.4349 14.2148 66.8945 14.2148C65.7878 14.2148 64.9772 13.9284 64.4629 13.3555C63.9551 12.776 63.7012 11.9134 63.7012 10.7676V7.08594H61.7188C61.4974 7.08594 61.3379 7.03711 61.2402 6.93945C61.1491 6.83529 61.1035 6.66276 61.1035 6.42188C61.1035 6.18099 61.1491 6.01172 61.2402 5.91406C61.3379 5.8099 61.4974 5.75781 61.7188 5.75781H63.7012V2.82812C63.7012 2.60026 63.7565 2.4375 63.8672 2.33984C63.9779 2.24219 64.1667 2.19336 64.4336 2.19336ZM88.418 2.19336C88.6849 2.19336 88.8737 2.24219 88.9844 2.33984C89.0951 2.4375 89.1504 2.60026 89.1504 2.82812V5.75781H93.1641C93.3854 5.75781 93.5417 5.8099 93.6328 5.91406C93.7305 6.01172 93.7793 6.18099 93.7793 6.42188C93.7793 6.66276 93.7305 6.83529 93.6328 6.93945C93.5417 7.03711 93.3854 7.08594 93.1641 7.08594H89.1504V10.6406C89.1504 11.3828 89.2773 11.9264 89.5312 12.2715C89.7917 12.6165 90.2409 12.7891 90.8789 12.7891C91.3151 12.7891 91.7741 12.7012 92.2559 12.5254C92.7376 12.3496 93.2031 12.1152 93.6523 11.8223C93.7435 11.7572 93.8444 11.7246 93.9551 11.7246C94.1764 11.7246 94.3652 11.8743 94.5215 12.1738C94.6061 12.3431 94.6484 12.4896 94.6484 12.6133C94.6484 12.8216 94.541 12.9909 94.3262 13.1211C93.8184 13.4401 93.252 13.7038 92.627 13.9121C92.002 14.1139 91.4193 14.2148 90.8789 14.2148C89.7721 14.2148 88.9616 13.9284 88.4473 13.3555C87.9395 12.776 87.6855 11.9134 87.6855 10.7676V7.08594H85.7031C85.4818 7.08594 85.3223 7.03711 85.2246 6.93945C85.1335 6.83529 85.0879 6.66276 85.0879 6.42188C85.0879 6.18099 85.1335 6.01172 85.2246 5.91406C85.3223 5.8099 85.4818 5.75781 85.7031 5.75781H87.6855V2.82812C87.6855 2.60026 87.7409 2.4375 87.8516 2.33984C87.9622 2.24219 88.151 2.19336 88.418 2.19336ZM99.0527 1.1875C99.2741 1.1875 99.4303 1.23958 99.5215 1.34375C99.6191 1.44141 99.668 1.61068 99.668 1.85156V6.71484C100.091 6.08333 100.579 5.60156 101.133 5.26953C101.693 4.93099 102.295 4.76172 102.939 4.76172C103.532 4.76172 104.046 4.89193 104.482 5.15234C104.919 5.40625 105.254 5.77409 105.488 6.25586C105.723 6.73763 105.84 7.30078 105.84 7.94531V12.6719H106.641C106.862 12.6719 107.018 12.724 107.109 12.8281C107.207 12.9258 107.256 13.0951 107.256 13.3359C107.256 13.5768 107.207 13.7493 107.109 13.8535C107.018 13.9512 106.862 14 106.641 14H103.477C103.255 14 103.096 13.9512 102.998 13.8535C102.907 13.7493 102.861 13.5768 102.861 13.3359C102.861 13.0951 102.907 12.9258 102.998 12.8281C103.096 12.724 103.255 12.6719 103.477 12.6719H104.375V8.0918C104.375 7.51237 104.242 7.05339 103.975 6.71484C103.708 6.3763 103.314 6.20703 102.793 6.20703C102.24 6.20703 101.722 6.36654 101.24 6.68555C100.765 7.00456 100.384 7.44401 100.098 8.00391C99.8112 8.5638 99.668 9.1888 99.668 9.87891V12.6719H100.566C100.788 12.6719 100.944 12.724 101.035 12.8281C101.133 12.9258 101.182 13.0951 101.182 13.3359C101.182 13.5768 101.133 13.7493 101.035 13.8535C100.944 13.9512 100.788 14 100.566 14H97.4023C97.181 14 97.0215 13.9512 96.9238 13.8535C96.8327 13.7493 96.7871 13.5768 96.7871 13.3359C96.7871 13.0951 96.8327 12.9258 96.9238 12.8281C97.0215 12.724 97.181 12.6719 97.4023 12.6719H98.2031V2.51562H97.3047C97.0833 2.51562 96.9238 2.4668 96.8262 2.36914C96.735 2.26497 96.6895 2.09245 96.6895 1.85156C96.6895 1.61068 96.735 1.44141 96.8262 1.34375C96.9238 1.23958 97.0833 1.1875 97.3047 1.1875H99.0527ZM114.014 4.76172C114.958 4.76172 115.762 4.95378 116.426 5.33789C117.096 5.71549 117.611 6.24284 117.969 6.91992C118.327 7.59049 118.532 8.36523 118.584 9.24414C118.584 9.46549 118.535 9.62174 118.438 9.71289C118.346 9.80404 118.19 9.84961 117.969 9.84961H110.898C110.944 10.8197 111.23 11.5553 111.758 12.0566C112.292 12.5514 113.044 12.7988 114.014 12.7988C114.613 12.7988 115.205 12.724 115.791 12.5742C116.377 12.418 116.891 12.2129 117.334 11.959C117.445 11.9004 117.546 11.8711 117.637 11.8711C117.865 11.8711 118.05 12.0436 118.193 12.3887C118.252 12.5254 118.281 12.6491 118.281 12.7598C118.281 13.0202 118.138 13.222 117.852 13.3652C117.35 13.6191 116.758 13.8242 116.074 13.9805C115.391 14.1367 114.704 14.2148 114.014 14.2148C113.031 14.2148 112.191 14.026 111.494 13.6484C110.798 13.2708 110.267 12.7272 109.902 12.0176C109.538 11.3079 109.355 10.4648 109.355 9.48828C109.355 8.55729 109.554 7.73372 109.951 7.01758C110.348 6.30143 110.898 5.74805 111.602 5.35742C112.305 4.96029 113.109 4.76172 114.014 4.76172ZM114.014 6.17773C113.213 6.17773 112.549 6.38281 112.021 6.79297C111.501 7.19661 111.159 7.75977 110.996 8.48242H116.963C116.826 7.73372 116.51 7.16406 116.016 6.77344C115.527 6.3763 114.86 6.17773 114.014 6.17773ZM131.553 12.6719C131.774 12.6719 131.93 12.724 132.021 12.8281C132.119 12.9258 132.168 13.0951 132.168 13.3359C132.168 13.5768 132.119 13.7493 132.021 13.8535C131.93 13.9512 131.774 14 131.553 14H130.098C129.876 14 129.717 13.9512 129.619 13.8535C129.528 13.7493 129.482 13.5768 129.482 13.3359V7.55469C129.482 7.10547 129.408 6.77018 129.258 6.54883C129.115 6.32096 128.88 6.20703 128.555 6.20703C128.249 6.20703 127.965 6.35026 127.705 6.63672C127.445 6.91667 127.236 7.31055 127.08 7.81836C126.93 8.31966 126.855 8.89258 126.855 9.53711V12.6719H127.412C127.633 12.6719 127.79 12.724 127.881 12.8281C127.979 12.9258 128.027 13.0951 128.027 13.3359C128.027 13.5768 127.979 13.7493 127.881 13.8535C127.79 13.9512 127.633 14 127.412 14H126.006C125.785 14 125.625 13.9512 125.527 13.8535C125.436 13.7493 125.391 13.5768 125.391 13.3359V7.55469C125.391 7.10547 125.316 6.77018 125.166 6.54883C125.023 6.32096 124.788 6.20703 124.463 6.20703C124.157 6.20703 123.874 6.35026 123.613 6.63672C123.353 6.91667 123.145 7.31055 122.988 7.81836C122.839 8.31966 122.764 8.89258 122.764 9.53711V12.6719H123.271C123.493 12.6719 123.649 12.724 123.74 12.8281C123.838 12.9258 123.887 13.0951 123.887 13.3359C123.887 13.5768 123.838 13.7493 123.74 13.8535C123.649 13.9512 123.493 14 123.271 14H120.498C120.277 14 120.117 13.9512 120.02 13.8535C119.928 13.7493 119.883 13.5768 119.883 13.3359C119.883 13.0951 119.928 12.9258 120.02 12.8281C120.117 12.724 120.277 12.6719 120.498 12.6719H121.299V6.30469H120.498C120.277 6.30469 120.117 6.25586 120.02 6.1582C119.928 6.05404 119.883 5.88151 119.883 5.64062C119.883 5.39974 119.928 5.23047 120.02 5.13281C120.117 5.02865 120.277 4.97656 120.498 4.97656H121.953C122.174 4.97656 122.331 5.02865 122.422 5.13281C122.52 5.23047 122.568 5.39974 122.568 5.64062V6.60742C122.848 5.99544 123.184 5.53646 123.574 5.23047C123.965 4.91797 124.388 4.76172 124.844 4.76172C125.286 4.76172 125.674 4.91146 126.006 5.21094C126.338 5.51042 126.562 5.94987 126.68 6.5293C127.259 5.35091 128.008 4.76172 128.926 4.76172C129.31 4.76172 129.652 4.85938 129.951 5.05469C130.257 5.24349 130.498 5.53646 130.674 5.93359C130.856 6.32422 130.947 6.80599 130.947 7.37891V12.6719H131.553ZM150.254 4.97656C150.475 4.97656 150.632 5.02865 150.723 5.13281C150.82 5.23047 150.869 5.39974 150.869 5.64062V12.6719H154.004C154.225 12.6719 154.382 12.724 154.473 12.8281C154.57 12.9258 154.619 13.0951 154.619 13.3359C154.619 13.5768 154.57 13.7493 154.473 13.8535C154.382 13.9512 154.225 14 154.004 14H146.348C146.126 14 145.967 13.9512 145.869 13.8535C145.778 13.7493 145.732 13.5768 145.732 13.3359C145.732 13.0951 145.778 12.9258 145.869 12.8281C145.967 12.724 146.126 12.6719 146.348 12.6719H149.404V6.30469H146.934C146.712 6.30469 146.553 6.25586 146.455 6.1582C146.364 6.05404 146.318 5.88151 146.318 5.64062C146.318 5.39974 146.364 5.23047 146.455 5.13281C146.553 5.02865 146.712 4.97656 146.934 4.97656H150.254ZM149.941 0.689453C150.299 0.689453 150.544 0.738281 150.674 0.835938C150.804 0.927083 150.869 1.08984 150.869 1.32422V2.59375C150.869 2.82812 150.804 2.99414 150.674 3.0918C150.544 3.18294 150.299 3.22852 149.941 3.22852C149.583 3.22852 149.339 3.18294 149.209 3.0918C149.079 2.99414 149.014 2.82812 149.014 2.59375V1.32422C149.014 1.08984 149.079 0.927083 149.209 0.835938C149.339 0.738281 149.583 0.689453 149.941 0.689453ZM162.998 4.76172C163.59 4.76172 164.105 4.89193 164.541 5.15234C164.977 5.40625 165.312 5.77409 165.547 6.25586C165.781 6.73763 165.898 7.30078 165.898 7.94531V12.6719H166.699C166.921 12.6719 167.077 12.724 167.168 12.8281C167.266 12.9258 167.314 13.0951 167.314 13.3359C167.314 13.5768 167.266 13.7493 167.168 13.8535C167.077 13.9512 166.921 14 166.699 14H163.535C163.314 14 163.154 13.9512 163.057 13.8535C162.965 13.7493 162.92 13.5768 162.92 13.3359C162.92 13.0951 162.965 12.9258 163.057 12.8281C163.154 12.724 163.314 12.6719 163.535 12.6719H164.434V8.0918C164.434 7.51237 164.3 7.05339 164.033 6.71484C163.766 6.3763 163.372 6.20703 162.852 6.20703C162.298 6.20703 161.781 6.36654 161.299 6.68555C160.824 7.00456 160.443 7.44401 160.156 8.00391C159.87 8.5638 159.727 9.1888 159.727 9.87891V12.6719H160.625C160.846 12.6719 161.003 12.724 161.094 12.8281C161.191 12.9258 161.24 13.0951 161.24 13.3359C161.24 13.5768 161.191 13.7493 161.094 13.8535C161.003 13.9512 160.846 14 160.625 14H157.461C157.24 14 157.08 13.9512 156.982 13.8535C156.891 13.7493 156.846 13.5768 156.846 13.3359C156.846 13.0951 156.891 12.9258 156.982 12.8281C157.08 12.724 157.24 12.6719 157.461 12.6719H158.262V6.30469H157.266C157.044 6.30469 156.885 6.25586 156.787 6.1582C156.696 6.05404 156.65 5.88151 156.65 5.64062C156.65 5.39974 156.696 5.23047 156.787 5.13281C156.885 5.02865 157.044 4.97656 157.266 4.97656H159.014C159.235 4.97656 159.391 5.02865 159.482 5.13281C159.58 5.23047 159.629 5.39974 159.629 5.64062V6.8125C160.059 6.14844 160.56 5.64062 161.133 5.28906C161.712 4.9375 162.334 4.76172 162.998 4.76172ZM172.363 2.19336C172.63 2.19336 172.819 2.24219 172.93 2.33984C173.04 2.4375 173.096 2.60026 173.096 2.82812V5.75781H177.109C177.331 5.75781 177.487 5.8099 177.578 5.91406C177.676 6.01172 177.725 6.18099 177.725 6.42188C177.725 6.66276 177.676 6.83529 177.578 6.93945C177.487 7.03711 177.331 7.08594 177.109 7.08594H173.096V10.6406C173.096 11.3828 173.223 11.9264 173.477 12.2715C173.737 12.6165 174.186 12.7891 174.824 12.7891C175.26 12.7891 175.719 12.7012 176.201 12.5254C176.683 12.3496 177.148 12.1152 177.598 11.8223C177.689 11.7572 177.79 11.7246 177.9 11.7246C178.122 11.7246 178.311 11.8743 178.467 12.1738C178.551 12.3431 178.594 12.4896 178.594 12.6133C178.594 12.8216 178.486 12.9909 178.271 13.1211C177.764 13.4401 177.197 13.7038 176.572 13.9121C175.947 14.1139 175.365 14.2148 174.824 14.2148C173.717 14.2148 172.907 13.9284 172.393 13.3555C171.885 12.776 171.631 11.9134 171.631 10.7676V7.08594H169.648C169.427 7.08594 169.268 7.03711 169.17 6.93945C169.079 6.83529 169.033 6.66276 169.033 6.42188C169.033 6.18099 169.079 6.01172 169.17 5.91406C169.268 5.8099 169.427 5.75781 169.648 5.75781H171.631V2.82812C171.631 2.60026 171.686 2.4375 171.797 2.33984C171.908 2.24219 172.096 2.19336 172.363 2.19336ZM185.967 4.76172C186.911 4.76172 187.715 4.95378 188.379 5.33789C189.049 5.71549 189.564 6.24284 189.922 6.91992C190.28 7.59049 190.485 8.36523 190.537 9.24414C190.537 9.46549 190.488 9.62174 190.391 9.71289C190.299 9.80404 190.143 9.84961 189.922 9.84961H182.852C182.897 10.8197 183.184 11.5553 183.711 12.0566C184.245 12.5514 184.997 12.7988 185.967 12.7988C186.566 12.7988 187.158 12.724 187.744 12.5742C188.33 12.418 188.844 12.2129 189.287 11.959C189.398 11.9004 189.499 11.8711 189.59 11.8711C189.818 11.8711 190.003 12.0436 190.146 12.3887C190.205 12.5254 190.234 12.6491 190.234 12.7598C190.234 13.0202 190.091 13.222 189.805 13.3652C189.303 13.6191 188.711 13.8242 188.027 13.9805C187.344 14.1367 186.657 14.2148 185.967 14.2148C184.984 14.2148 184.144 14.026 183.447 13.6484C182.751 13.2708 182.22 12.7272 181.855 12.0176C181.491 11.3079 181.309 10.4648 181.309 9.48828C181.309 8.55729 181.507 7.73372 181.904 7.01758C182.301 6.30143 182.852 5.74805 183.555 5.35742C184.258 4.96029 185.062 4.76172 185.967 4.76172ZM185.967 6.17773C185.166 6.17773 184.502 6.38281 183.975 6.79297C183.454 7.19661 183.112 7.75977 182.949 8.48242H188.916C188.779 7.73372 188.464 7.16406 187.969 6.77344C187.48 6.3763 186.813 6.17773 185.967 6.17773ZM200.859 4.76172C201.367 4.76172 201.842 4.89193 202.285 5.15234C202.546 5.30859 202.676 5.51042 202.676 5.75781C202.676 5.875 202.646 6.01172 202.588 6.16797C202.451 6.53906 202.262 6.72461 202.021 6.72461C201.924 6.72461 201.833 6.69857 201.748 6.64648C201.429 6.4707 201.087 6.38281 200.723 6.38281C200.137 6.38281 199.548 6.58789 198.955 6.99805C198.363 7.40169 197.874 7.94206 197.49 8.61914C197.113 9.29622 196.924 10.0156 196.924 10.7773V12.6719H200.215C200.436 12.6719 200.592 12.724 200.684 12.8281C200.781 12.9258 200.83 13.0951 200.83 13.3359C200.83 13.5768 200.781 13.7493 200.684 13.8535C200.592 13.9512 200.436 14 200.215 14H193.926C193.704 14 193.545 13.9512 193.447 13.8535C193.356 13.7493 193.311 13.5768 193.311 13.3359C193.311 13.0951 193.356 12.9258 193.447 12.8281C193.545 12.724 193.704 12.6719 193.926 12.6719H195.459V6.30469H194.219C193.997 6.30469 193.838 6.25586 193.74 6.1582C193.649 6.05404 193.604 5.88151 193.604 5.64062C193.604 5.39974 193.649 5.23047 193.74 5.13281C193.838 5.02865 193.997 4.97656 194.219 4.97656H196.211C196.432 4.97656 196.589 5.02865 196.68 5.13281C196.777 5.23047 196.826 5.39974 196.826 5.64062V7.61328C197.139 7.04036 197.516 6.53906 197.959 6.10938C198.402 5.67969 198.874 5.34766 199.375 5.11328C199.876 4.87891 200.371 4.76172 200.859 4.76172ZM210.967 4.76172C211.559 4.76172 212.074 4.89193 212.51 5.15234C212.946 5.40625 213.281 5.77409 213.516 6.25586C213.75 6.73763 213.867 7.30078 213.867 7.94531V12.6719H214.668C214.889 12.6719 215.046 12.724 215.137 12.8281C215.234 12.9258 215.283 13.0951 215.283 13.3359C215.283 13.5768 215.234 13.7493 215.137 13.8535C215.046 13.9512 214.889 14 214.668 14H211.504C211.283 14 211.123 13.9512 211.025 13.8535C210.934 13.7493 210.889 13.5768 210.889 13.3359C210.889 13.0951 210.934 12.9258 211.025 12.8281C211.123 12.724 211.283 12.6719 211.504 12.6719H212.402V8.0918C212.402 7.51237 212.269 7.05339 212.002 6.71484C211.735 6.3763 211.341 6.20703 210.82 6.20703C210.267 6.20703 209.749 6.36654 209.268 6.68555C208.792 7.00456 208.411 7.44401 208.125 8.00391C207.839 8.5638 207.695 9.1888 207.695 9.87891V12.6719H208.594C208.815 12.6719 208.971 12.724 209.062 12.8281C209.16 12.9258 209.209 13.0951 209.209 13.3359C209.209 13.5768 209.16 13.7493 209.062 13.8535C208.971 13.9512 208.815 14 208.594 14H205.43C205.208 14 205.049 13.9512 204.951 13.8535C204.86 13.7493 204.814 13.5768 204.814 13.3359C204.814 13.0951 204.86 12.9258 204.951 12.8281C205.049 12.724 205.208 12.6719 205.43 12.6719H206.23V6.30469H205.234C205.013 6.30469 204.854 6.25586 204.756 6.1582C204.665 6.05404 204.619 5.88151 204.619 5.64062C204.619 5.39974 204.665 5.23047 204.756 5.13281C204.854 5.02865 205.013 4.97656 205.234 4.97656H206.982C207.204 4.97656 207.36 5.02865 207.451 5.13281C207.549 5.23047 207.598 5.39974 207.598 5.64062V6.8125C208.027 6.14844 208.529 5.64062 209.102 5.28906C209.681 4.9375 210.303 4.76172 210.967 4.76172ZM224.932 4.76172C225.199 4.76172 225.387 4.81055 225.498 4.9082C225.609 5.00586 225.664 5.16862 225.664 5.39648V7.25195C225.664 7.47982 225.609 7.64258 225.498 7.74023C225.387 7.83789 225.199 7.88672 224.932 7.88672C224.71 7.88672 224.554 7.80208 224.463 7.63281C224.183 7.09896 223.776 6.72461 223.242 6.50977C222.708 6.28841 222.031 6.17773 221.211 6.17773C220.579 6.17773 220.085 6.29167 219.727 6.51953C219.375 6.74089 219.199 7.05339 219.199 7.45703C219.199 7.66536 219.264 7.83464 219.395 7.96484C219.531 8.09505 219.73 8.20247 219.99 8.28711C220.205 8.35872 220.452 8.41406 220.732 8.45312C221.019 8.49219 221.387 8.53451 221.836 8.58008C222.467 8.65169 222.975 8.72005 223.359 8.78516C223.75 8.84375 224.118 8.9349 224.463 9.05859C224.984 9.2474 225.387 9.52083 225.674 9.87891C225.967 10.237 226.113 10.709 226.113 11.2949C226.113 11.8809 225.964 12.3952 225.664 12.8379C225.371 13.2741 224.938 13.6126 224.365 13.8535C223.799 14.0944 223.118 14.2148 222.324 14.2148C221.621 14.2148 221.003 14.1172 220.469 13.9219C219.935 13.7266 219.469 13.4303 219.072 13.0332V13.5801C219.072 13.8079 219.017 13.9707 218.906 14.0684C218.796 14.166 218.607 14.2148 218.34 14.2148C218.073 14.2148 217.884 14.166 217.773 14.0684C217.663 13.9707 217.607 13.8079 217.607 13.5801V11.2363C217.607 11.0085 217.663 10.8457 217.773 10.748C217.884 10.6504 218.073 10.6016 218.34 10.6016C218.477 10.6016 218.584 10.6341 218.662 10.6992C218.74 10.7578 218.809 10.8587 218.867 11.002C219.102 11.627 219.492 12.0827 220.039 12.3691C220.586 12.6556 221.315 12.7988 222.227 12.7988C222.982 12.7988 223.561 12.6621 223.965 12.3887C224.368 12.1152 224.57 11.7507 224.57 11.2949C224.57 11.0736 224.499 10.8913 224.355 10.748C224.212 10.6048 224.007 10.4876 223.74 10.3965C223.512 10.3249 223.249 10.2663 222.949 10.2207C222.656 10.1686 222.282 10.1198 221.826 10.0742C221.214 10.0091 220.703 9.94076 220.293 9.86914C219.883 9.79753 219.505 9.69336 219.16 9.55664C218.685 9.36784 218.314 9.10742 218.047 8.77539C217.786 8.43685 217.656 7.9974 217.656 7.45703C217.656 6.89062 217.803 6.4056 218.096 6.00195C218.395 5.5918 218.805 5.28255 219.326 5.07422C219.854 4.86589 220.449 4.76172 221.113 4.76172C221.745 4.76172 222.321 4.85612 222.842 5.04492C223.369 5.23372 223.822 5.4974 224.199 5.83594V5.39648C224.199 5.16862 224.255 5.00586 224.365 4.9082C224.476 4.81055 224.665 4.76172 224.932 4.76172ZM230.967 1.1875C231.188 1.1875 231.344 1.23958 231.436 1.34375C231.533 1.44141 231.582 1.61068 231.582 1.85156V6.71484C232.005 6.08333 232.493 5.60156 233.047 5.26953C233.607 4.93099 234.209 4.76172 234.854 4.76172C235.446 4.76172 235.96 4.89193 236.396 5.15234C236.833 5.40625 237.168 5.77409 237.402 6.25586C237.637 6.73763 237.754 7.30078 237.754 7.94531V12.6719H238.555C238.776 12.6719 238.932 12.724 239.023 12.8281C239.121 12.9258 239.17 13.0951 239.17 13.3359C239.17 13.5768 239.121 13.7493 239.023 13.8535C238.932 13.9512 238.776 14 238.555 14H235.391C235.169 14 235.01 13.9512 234.912 13.8535C234.821 13.7493 234.775 13.5768 234.775 13.3359C234.775 13.0951 234.821 12.9258 234.912 12.8281C235.01 12.724 235.169 12.6719 235.391 12.6719H236.289V8.0918C236.289 7.51237 236.156 7.05339 235.889 6.71484C235.622 6.3763 235.228 6.20703 234.707 6.20703C234.154 6.20703 233.636 6.36654 233.154 6.68555C232.679 7.00456 232.298 7.44401 232.012 8.00391C231.725 8.5638 231.582 9.1888 231.582 9.87891V12.6719H232.48C232.702 12.6719 232.858 12.724 232.949 12.8281C233.047 12.9258 233.096 13.0951 233.096 13.3359C233.096 13.5768 233.047 13.7493 232.949 13.8535C232.858 13.9512 232.702 14 232.48 14H229.316C229.095 14 228.936 13.9512 228.838 13.8535C228.747 13.7493 228.701 13.5768 228.701 13.3359C228.701 13.0951 228.747 12.9258 228.838 12.8281C228.936 12.724 229.095 12.6719 229.316 12.6719H230.117V2.51562H229.219C228.997 2.51562 228.838 2.4668 228.74 2.36914C228.649 2.26497 228.604 2.09245 228.604 1.85156C228.604 1.61068 228.649 1.44141 228.74 1.34375C228.838 1.23958 228.997 1.1875 229.219 1.1875H230.967ZM246.191 4.97656C246.413 4.97656 246.569 5.02865 246.66 5.13281C246.758 5.23047 246.807 5.39974 246.807 5.64062V12.6719H249.941C250.163 12.6719 250.319 12.724 250.41 12.8281C250.508 12.9258 250.557 13.0951 250.557 13.3359C250.557 13.5768 250.508 13.7493 250.41 13.8535C250.319 13.9512 250.163 14 249.941 14H242.285C242.064 14 241.904 13.9512 241.807 13.8535C241.715 13.7493 241.67 13.5768 241.67 13.3359C241.67 13.0951 241.715 12.9258 241.807 12.8281C241.904 12.724 242.064 12.6719 242.285 12.6719H245.342V6.30469H242.871C242.65 6.30469 242.49 6.25586 242.393 6.1582C242.301 6.05404 242.256 5.88151 242.256 5.64062C242.256 5.39974 242.301 5.23047 242.393 5.13281C242.49 5.02865 242.65 4.97656 242.871 4.97656H246.191ZM245.879 0.689453C246.237 0.689453 246.481 0.738281 246.611 0.835938C246.742 0.927083 246.807 1.08984 246.807 1.32422V2.59375C246.807 2.82812 246.742 2.99414 246.611 3.0918C246.481 3.18294 246.237 3.22852 245.879 3.22852C245.521 3.22852 245.277 3.18294 245.146 3.0918C245.016 2.99414 244.951 2.82812 244.951 2.59375V1.32422C244.951 1.08984 245.016 0.927083 245.146 0.835938C245.277 0.738281 245.521 0.689453 245.879 0.689453ZM258.369 4.76172C259.176 4.76172 259.899 4.95378 260.537 5.33789C261.175 5.71549 261.676 6.26237 262.041 6.97852C262.406 7.68815 262.588 8.52474 262.588 9.48828C262.588 10.4518 262.406 11.2917 262.041 12.0078C261.676 12.7174 261.175 13.2643 260.537 13.6484C259.899 14.026 259.176 14.2148 258.369 14.2148C257.145 14.2148 256.113 13.6777 255.273 12.6035V16.4609H256.953C257.174 16.4609 257.331 16.5098 257.422 16.6074C257.52 16.7116 257.568 16.8841 257.568 17.125C257.568 17.3659 257.52 17.5352 257.422 17.6328C257.331 17.737 257.174 17.7891 256.953 17.7891H252.812C252.591 17.7891 252.432 17.737 252.334 17.6328C252.243 17.5352 252.197 17.3659 252.197 17.125C252.197 16.8841 252.243 16.7116 252.334 16.6074C252.432 16.5098 252.591 16.4609 252.812 16.4609H253.809V6.30469H253.008C252.786 6.30469 252.627 6.25586 252.529 6.1582C252.438 6.05404 252.393 5.88151 252.393 5.64062C252.393 5.39974 252.438 5.23047 252.529 5.13281C252.627 5.02865 252.786 4.97656 253.008 4.97656H254.561C254.782 4.97656 254.938 5.02865 255.029 5.13281C255.127 5.23047 255.176 5.39974 255.176 5.64062V6.42188C255.586 5.88802 256.061 5.47786 256.602 5.19141C257.142 4.90495 257.731 4.76172 258.369 4.76172ZM258.271 6.20703C257.692 6.20703 257.174 6.33724 256.719 6.59766C256.27 6.85807 255.915 7.23568 255.654 7.73047C255.4 8.22526 255.273 8.8112 255.273 9.48828C255.273 10.1654 255.4 10.7513 255.654 11.2461C255.915 11.7409 256.27 12.1185 256.719 12.3789C257.174 12.6393 257.692 12.7695 258.271 12.7695C258.851 12.7695 259.349 12.6328 259.766 12.3594C260.182 12.0794 260.498 11.6921 260.713 11.1973C260.934 10.7025 261.045 10.1328 261.045 9.48828C261.045 8.84375 260.934 8.27409 260.713 7.7793C260.498 7.28451 260.182 6.90039 259.766 6.62695C259.349 6.34701 258.851 6.20703 258.271 6.20703ZM272.9 4.76172C273.167 4.76172 273.356 4.81055 273.467 4.9082C273.577 5.00586 273.633 5.16862 273.633 5.39648V7.25195C273.633 7.47982 273.577 7.64258 273.467 7.74023C273.356 7.83789 273.167 7.88672 272.9 7.88672C272.679 7.88672 272.523 7.80208 272.432 7.63281C272.152 7.09896 271.745 6.72461 271.211 6.50977C270.677 6.28841 270 6.17773 269.18 6.17773C268.548 6.17773 268.053 6.29167 267.695 6.51953C267.344 6.74089 267.168 7.05339 267.168 7.45703C267.168 7.66536 267.233 7.83464 267.363 7.96484C267.5 8.09505 267.699 8.20247 267.959 8.28711C268.174 8.35872 268.421 8.41406 268.701 8.45312C268.988 8.49219 269.355 8.53451 269.805 8.58008C270.436 8.65169 270.944 8.72005 271.328 8.78516C271.719 8.84375 272.087 8.9349 272.432 9.05859C272.952 9.2474 273.356 9.52083 273.643 9.87891C273.936 10.237 274.082 10.709 274.082 11.2949C274.082 11.8809 273.932 12.3952 273.633 12.8379C273.34 13.2741 272.907 13.6126 272.334 13.8535C271.768 14.0944 271.087 14.2148 270.293 14.2148C269.59 14.2148 268.971 14.1172 268.438 13.9219C267.904 13.7266 267.438 13.4303 267.041 13.0332V13.5801C267.041 13.8079 266.986 13.9707 266.875 14.0684C266.764 14.166 266.576 14.2148 266.309 14.2148C266.042 14.2148 265.853 14.166 265.742 14.0684C265.632 13.9707 265.576 13.8079 265.576 13.5801V11.2363C265.576 11.0085 265.632 10.8457 265.742 10.748C265.853 10.6504 266.042 10.6016 266.309 10.6016C266.445 10.6016 266.553 10.6341 266.631 10.6992C266.709 10.7578 266.777 10.8587 266.836 11.002C267.07 11.627 267.461 12.0827 268.008 12.3691C268.555 12.6556 269.284 12.7988 270.195 12.7988C270.951 12.7988 271.53 12.6621 271.934 12.3887C272.337 12.1152 272.539 11.7507 272.539 11.2949C272.539 11.0736 272.467 10.8913 272.324 10.748C272.181 10.6048 271.976 10.4876 271.709 10.3965C271.481 10.3249 271.217 10.2663 270.918 10.2207C270.625 10.1686 270.251 10.1198 269.795 10.0742C269.183 10.0091 268.672 9.94076 268.262 9.86914C267.852 9.79753 267.474 9.69336 267.129 9.55664C266.654 9.36784 266.283 9.10742 266.016 8.77539C265.755 8.43685 265.625 7.9974 265.625 7.45703C265.625 6.89062 265.771 6.4056 266.064 6.00195C266.364 5.5918 266.774 5.28255 267.295 5.07422C267.822 4.86589 268.418 4.76172 269.082 4.76172C269.714 4.76172 270.29 4.85612 270.811 5.04492C271.338 5.23372 271.79 5.4974 272.168 5.83594V5.39648C272.168 5.16862 272.223 5.00586 272.334 4.9082C272.445 4.81055 272.633 4.76172 272.9 4.76172Z" fill="white"/>
</svg>
