<svg width="614" height="161" viewBox="0 0 614 161" fill="none" xmlns="http://www.w3.org/2000/svg">
<path d="M76.6834 133.259C71.6909 144.143 56.2258 144.143 51.2332 133.259L17.6683 60.0872C13.4143 50.8134 20.1905 40.25 30.3934 40.25L97.5232 40.25C107.726 40.25 114.502 50.8134 110.248 60.0872L76.6834 133.259Z" fill="#D9D9D9"/>
<path d="M82.89 109.607C82.89 130.958 74.1849 148.266 63.4467 148.266C52.7084 148.266 44.0033 130.958 44.0033 109.607C44.0033 88.257 52.7084 70.9492 63.4467 70.9492C74.1849 70.9492 82.89 88.257 82.89 109.607Z" fill="#7A87FF"/>
<path d="M73.3755 79.9462C68.571 86.0295 59.3456 86.0295 54.5411 79.9462L31.8962 51.2737C25.6815 43.4047 31.2862 31.8362 41.3134 31.8362L86.6033 31.8362C96.6304 31.8362 102.235 43.4047 96.0205 51.2737L73.3755 79.9462Z" fill="#8C83C2"/>
<path d="M69.8626 62.3348C66.6636 66.63 60.2297 66.63 57.0307 62.3348L34.8562 32.5625C30.9257 27.2853 34.6921 19.7839 41.2722 19.7839L85.6212 19.7839C92.2012 19.7839 95.9676 27.2853 92.0371 32.5625L69.8626 62.3348Z" fill="#1E1E1E"/>
<path d="M162.044 49.8151C162.641 49.8151 163.063 49.9558 163.309 50.237C163.573 50.5007 163.705 50.9577 163.705 51.6081C163.705 52.2585 163.573 52.7243 163.309 53.0056C163.063 53.2692 162.641 53.4011 162.044 53.4011H155.294V77.5271H162.571C163.169 77.5271 163.591 77.6677 163.837 77.9489C164.1 78.2126 164.232 78.6696 164.232 79.32C164.232 79.9704 164.1 80.4362 163.837 80.7175C163.591 80.9812 163.169 81.113 162.571 81.113H144.061C143.464 81.113 143.033 80.9812 142.769 80.7175C142.523 80.4362 142.4 79.9704 142.4 79.32C142.4 78.6696 142.523 78.2126 142.769 77.9489C143.033 77.6677 143.464 77.5271 144.061 77.5271H151.339V53.4011H144.589C143.991 53.4011 143.56 53.2692 143.297 53.0056C143.05 52.7243 142.927 52.2585 142.927 51.6081C142.927 50.9577 143.05 50.5007 143.297 50.237C143.56 49.9558 143.991 49.8151 144.589 49.8151H162.044ZM188.675 56.1696C190.274 56.1696 191.663 56.5212 192.841 57.2243C194.018 57.9099 194.924 58.903 195.556 60.2038C196.189 61.5046 196.506 63.0251 196.506 64.7653V77.5271H198.668C199.265 77.5271 199.687 77.6677 199.933 77.9489C200.197 78.2126 200.329 78.6696 200.329 79.32C200.329 79.9704 200.197 80.4362 199.933 80.7175C199.687 80.9812 199.265 81.113 198.668 81.113H190.125C189.527 81.113 189.096 80.9812 188.833 80.7175C188.587 80.4362 188.464 79.9704 188.464 79.32C188.464 78.6696 188.587 78.2126 188.833 77.9489C189.096 77.6677 189.527 77.5271 190.125 77.5271H192.55V65.1608C192.55 63.5964 192.19 62.3571 191.469 61.4431C190.749 60.529 189.685 60.072 188.279 60.072C186.785 60.072 185.387 60.5026 184.087 61.364C182.803 62.2253 181.775 63.4118 181.002 64.9235C180.228 66.4353 179.842 68.1228 179.842 69.986V77.5271H182.267C182.865 77.5271 183.287 77.6677 183.533 77.9489C183.797 78.2126 183.928 78.6696 183.928 79.32C183.928 79.9704 183.797 80.4362 183.533 80.7175C183.287 80.9812 182.865 81.113 182.267 81.113H173.724C173.127 81.113 172.696 80.9812 172.432 80.7175C172.186 80.4362 172.063 79.9704 172.063 79.32C172.063 78.6696 172.186 78.2126 172.432 77.9489C172.696 77.6677 173.127 77.5271 173.724 77.5271H175.886V60.3356H173.197C172.599 60.3356 172.169 60.2038 171.905 59.9401C171.659 59.6589 171.536 59.1931 171.536 58.5427C171.536 57.8923 171.659 57.4353 171.905 57.1716C172.169 56.8903 172.599 56.7497 173.197 56.7497H177.917C178.514 56.7497 178.936 56.8903 179.182 57.1716C179.446 57.4353 179.578 57.8923 179.578 58.5427V61.7067C180.738 59.9138 182.092 58.5427 183.638 57.5935C185.203 56.6442 186.882 56.1696 188.675 56.1696ZM213.961 49.2351C214.681 49.2351 215.191 49.3669 215.49 49.6306C215.789 49.8942 215.938 50.3337 215.938 50.9489V58.8591H226.775C227.373 58.8591 227.795 58.9997 228.041 59.281C228.304 59.5446 228.436 60.0017 228.436 60.6521C228.436 61.3024 228.304 61.7683 228.041 62.0495C227.795 62.3132 227.373 62.445 226.775 62.445H215.938V72.0427C215.938 74.0466 216.281 75.5144 216.967 76.446C217.67 77.3776 218.883 77.8435 220.605 77.8435C221.783 77.8435 223.022 77.6062 224.323 77.1315C225.624 76.6569 226.881 76.0241 228.093 75.2331C228.34 75.0573 228.612 74.9694 228.911 74.9694C229.508 74.9694 230.018 75.3737 230.44 76.1823C230.669 76.6394 230.783 77.0349 230.783 77.3689C230.783 77.9314 230.493 78.3884 229.913 78.7399C228.542 79.6013 227.012 80.3132 225.325 80.8757C223.637 81.4206 222.064 81.6931 220.605 81.6931C217.617 81.6931 215.428 80.9196 214.04 79.3728C212.669 77.8083 211.983 75.4792 211.983 72.3855V62.445H206.631C206.033 62.445 205.602 62.3132 205.339 62.0495C205.092 61.7683 204.969 61.3024 204.969 60.6521C204.969 60.0017 205.092 59.5446 205.339 59.281C205.602 58.9997 206.033 58.8591 206.631 58.8591H211.983V50.9489C211.983 50.3337 212.133 49.8942 212.431 49.6306C212.73 49.3669 213.24 49.2351 213.961 49.2351ZM250.69 56.1696C253.239 56.1696 255.41 56.6882 257.203 57.7253C259.013 58.7448 260.402 60.1687 261.369 61.9968C262.336 63.8073 262.889 65.8991 263.03 68.2722C263.03 68.8698 262.898 69.2917 262.634 69.5378C262.388 69.7839 261.967 69.9069 261.369 69.9069H242.279C242.402 72.5261 243.175 74.5124 244.599 75.8659C246.041 77.2019 248.071 77.8698 250.69 77.8698C252.307 77.8698 253.907 77.6677 255.489 77.2634C257.071 76.8415 258.46 76.2878 259.655 75.6022C259.954 75.444 260.226 75.3649 260.472 75.3649C261.088 75.3649 261.589 75.8308 261.975 76.7624C262.133 77.1315 262.213 77.4655 262.213 77.7644C262.213 78.4675 261.826 79.0124 261.052 79.3991C259.699 80.0847 258.099 80.6384 256.254 81.0603C254.408 81.4821 252.553 81.6931 250.69 81.6931C248.036 81.6931 245.768 81.1833 243.887 80.1638C242.007 79.1442 240.574 77.6765 239.59 75.7605C238.605 73.8444 238.113 71.5681 238.113 68.9314C238.113 66.4177 238.649 64.194 239.721 62.2605C240.794 60.3269 242.279 58.8327 244.177 57.778C246.076 56.7058 248.247 56.1696 250.69 56.1696ZM250.69 59.9929C248.528 59.9929 246.735 60.5466 245.311 61.654C243.905 62.7439 242.982 64.2644 242.543 66.2155H258.653C258.284 64.194 257.431 62.656 256.095 61.6013C254.777 60.529 252.975 59.9929 250.69 59.9929ZM290.9 56.1696C292.271 56.1696 293.554 56.5212 294.75 57.2243C295.453 57.6462 295.804 58.1911 295.804 58.8591C295.804 59.1755 295.725 59.5446 295.567 59.9665C295.198 60.9685 294.688 61.4694 294.038 61.4694C293.774 61.4694 293.528 61.3991 293.3 61.2585C292.438 60.7839 291.515 60.5466 290.531 60.5466C288.949 60.5466 287.358 61.1003 285.758 62.2077C284.159 63.2976 282.841 64.7565 281.803 66.5847C280.784 68.4128 280.274 70.3552 280.274 72.4118V77.5271H289.16C289.758 77.5271 290.179 77.6677 290.425 77.9489C290.689 78.2126 290.821 78.6696 290.821 79.32C290.821 79.9704 290.689 80.4362 290.425 80.7175C290.179 80.9812 289.758 81.113 289.16 81.113H272.179C271.582 81.113 271.151 80.9812 270.887 80.7175C270.641 80.4362 270.518 79.9704 270.518 79.32C270.518 78.6696 270.641 78.2126 270.887 77.9489C271.151 77.6677 271.582 77.5271 272.179 77.5271H276.319V60.3356H272.97C272.373 60.3356 271.942 60.2038 271.678 59.9401C271.432 59.6589 271.309 59.1931 271.309 58.5427C271.309 57.8923 271.432 57.4353 271.678 57.1716C271.942 56.8903 272.373 56.7497 272.97 56.7497H278.349C278.947 56.7497 279.369 56.8903 279.615 57.1716C279.879 57.4353 280.01 57.8923 280.01 58.5427V63.8689C280.854 62.322 281.874 60.9685 283.069 59.8083C284.264 58.6481 285.539 57.7517 286.892 57.1189C288.246 56.486 289.582 56.1696 290.9 56.1696ZM328.421 56.7497C329.018 56.7497 329.44 56.8903 329.686 57.1716C329.95 57.4353 330.082 57.8923 330.082 58.5427C330.082 59.1931 329.95 59.6589 329.686 59.9401C329.44 60.2038 329.018 60.3356 328.421 60.3356H326.759L318.243 79.9792C317.997 80.5769 317.628 81.0075 317.135 81.2712C316.661 81.5524 315.993 81.6931 315.132 81.6931C314.288 81.6931 313.629 81.5524 313.154 81.2712C312.697 81.0075 312.337 80.5769 312.073 79.9792L303.635 60.3356H302.001C301.403 60.3356 300.972 60.2038 300.709 59.9401C300.463 59.6589 300.34 59.1931 300.34 58.5427C300.34 57.8923 300.463 57.4353 300.709 57.1716C300.972 56.8903 301.403 56.7497 302.001 56.7497H311.335C311.932 56.7497 312.354 56.8903 312.6 57.1716C312.864 57.4353 312.996 57.8923 312.996 58.5427C312.996 59.1931 312.864 59.6589 312.6 59.9401C312.354 60.2038 311.932 60.3356 311.335 60.3356H307.96L315.158 77.5271L322.435 60.3356H320.141C319.544 60.3356 319.113 60.2038 318.849 59.9401C318.603 59.6589 318.48 59.1931 318.48 58.5427C318.48 57.8923 318.603 57.4353 318.849 57.1716C319.113 56.8903 319.544 56.7497 320.141 56.7497H328.421ZM348.539 56.7497C349.136 56.7497 349.558 56.8903 349.804 57.1716C350.068 57.4353 350.2 57.8923 350.2 58.5427V77.5271H358.664C359.261 77.5271 359.683 77.6677 359.929 77.9489C360.193 78.2126 360.325 78.6696 360.325 79.32C360.325 79.9704 360.193 80.4362 359.929 80.7175C359.683 80.9812 359.261 81.113 358.664 81.113H337.992C337.394 81.113 336.964 80.9812 336.7 80.7175C336.454 80.4362 336.331 79.9704 336.331 79.32C336.331 78.6696 336.454 78.2126 336.7 77.9489C336.964 77.6677 337.394 77.5271 337.992 77.5271H346.245V60.3356H339.574C338.976 60.3356 338.546 60.2038 338.282 59.9401C338.036 59.6589 337.913 59.1931 337.913 58.5427C337.913 57.8923 338.036 57.4353 338.282 57.1716C338.546 56.8903 338.976 56.7497 339.574 56.7497H348.539ZM347.695 45.1745C348.662 45.1745 349.321 45.3064 349.673 45.57C350.024 45.8161 350.2 46.2556 350.2 46.8884V50.3161C350.2 50.9489 350.024 51.3972 349.673 51.6608C349.321 51.9069 348.662 52.03 347.695 52.03C346.728 52.03 346.069 51.9069 345.717 51.6608C345.366 51.3972 345.19 50.9489 345.19 50.3161V46.8884C345.19 46.2556 345.366 45.8161 345.717 45.57C346.069 45.3064 346.728 45.1745 347.695 45.1745ZM380.206 56.1696C382.755 56.1696 384.925 56.6882 386.718 57.7253C388.529 58.7448 389.918 60.1687 390.884 61.9968C391.851 63.8073 392.405 65.8991 392.546 68.2722C392.546 68.8698 392.414 69.2917 392.15 69.5378C391.904 69.7839 391.482 69.9069 390.884 69.9069H371.795C371.918 72.5261 372.691 74.5124 374.115 75.8659C375.556 77.2019 377.587 77.8698 380.206 77.8698C381.823 77.8698 383.423 77.6677 385.005 77.2634C386.587 76.8415 387.975 76.2878 389.171 75.6022C389.469 75.444 389.742 75.3649 389.988 75.3649C390.603 75.3649 391.104 75.8308 391.491 76.7624C391.649 77.1315 391.728 77.4655 391.728 77.7644C391.728 78.4675 391.342 79.0124 390.568 79.3991C389.215 80.0847 387.615 80.6384 385.769 81.0603C383.924 81.4821 382.069 81.6931 380.206 81.6931C377.551 81.6931 375.284 81.1833 373.403 80.1638C371.522 79.1442 370.09 77.6765 369.105 75.7605C368.121 73.8444 367.629 71.5681 367.629 68.9314C367.629 66.4177 368.165 64.194 369.237 62.2605C370.309 60.3269 371.795 58.8327 373.693 57.778C375.592 56.7058 377.762 56.1696 380.206 56.1696ZM380.206 59.9929C378.044 59.9929 376.251 60.5466 374.827 61.654C373.421 62.7439 372.498 64.2644 372.058 66.2155H388.169C387.8 64.194 386.947 62.656 385.611 61.6013C384.293 60.529 382.491 59.9929 380.206 59.9929ZM427.139 56.7497C427.737 56.7497 428.159 56.8903 428.405 57.1716C428.669 57.4353 428.8 57.8923 428.8 58.5427C428.8 59.1931 428.669 59.6589 428.405 59.9401C428.159 60.2038 427.737 60.3356 427.139 60.3356H426.507L421.312 79.9792C421.136 80.612 420.873 81.0515 420.521 81.2976C420.187 81.5612 419.686 81.6931 419.018 81.6931C418.262 81.6931 417.665 81.5524 417.225 81.2712C416.803 81.0075 416.487 80.5769 416.276 79.9792L412.242 68.5358L408.155 79.9792C407.944 80.5769 407.61 81.0075 407.153 81.2712C406.714 81.5524 406.116 81.6931 405.36 81.6931C404.692 81.6931 404.191 81.5612 403.857 81.2976C403.523 81.0515 403.277 80.612 403.119 79.9792L398.03 60.3356H397.555C396.958 60.3356 396.527 60.2038 396.263 59.9401C396.017 59.6589 395.894 59.1931 395.894 58.5427C395.894 57.8923 396.017 57.4353 396.263 57.1716C396.527 56.8903 396.958 56.7497 397.555 56.7497H405.307C405.905 56.7497 406.327 56.8903 406.573 57.1716C406.837 57.4353 406.968 57.8923 406.968 58.5427C406.968 59.1931 406.837 59.6589 406.573 59.9401C406.327 60.2038 405.905 60.3356 405.307 60.3356H402.064L405.861 75.6814L410.264 63.447C410.387 63.0778 410.616 62.779 410.95 62.5505C411.284 62.322 411.723 62.2077 412.268 62.2077C413.376 62.2077 414.052 62.5593 414.299 63.2624L418.675 75.6814L422.578 60.3356H419.915C419.317 60.3356 418.886 60.2038 418.623 59.9401C418.377 59.6589 418.254 59.1931 418.254 58.5427C418.254 57.8923 418.377 57.4353 418.623 57.1716C418.886 56.8903 419.317 56.7497 419.915 56.7497H427.139ZM479.109 49.8151C481.447 49.8151 483.451 50.2282 485.121 51.0544C486.791 51.8806 488.056 53.0495 488.918 54.5612C489.797 56.073 490.236 57.822 490.236 59.8083C490.236 61.7946 489.797 63.5349 488.918 65.029C488.056 66.5056 486.791 67.6569 485.121 68.4831C483.451 69.2917 481.447 69.696 479.109 69.696H472.913V77.5271H479.241C479.839 77.5271 480.26 77.6677 480.507 77.9489C480.77 78.2126 480.902 78.6696 480.902 79.32C480.902 79.9704 480.77 80.4362 480.507 80.7175C480.26 80.9812 479.839 81.113 479.241 81.113H464.686C464.089 81.113 463.658 80.9812 463.394 80.7175C463.148 80.4362 463.025 79.9704 463.025 79.32C463.025 78.6696 463.148 78.2126 463.394 77.9489C463.658 77.6677 464.089 77.5271 464.686 77.5271H468.958V53.4011H464.686C464.089 53.4011 463.658 53.2692 463.394 53.0056C463.148 52.7243 463.025 52.2585 463.025 51.6081C463.025 50.9577 463.148 50.5007 463.394 50.237C463.658 49.9558 464.089 49.8151 464.686 49.8151H479.109ZM472.913 66.1101H478.555C480.999 66.1101 482.862 65.5564 484.145 64.4489C485.428 63.3415 486.07 61.7946 486.07 59.8083C486.07 57.7868 485.42 56.2136 484.119 55.0886C482.836 53.9636 480.981 53.4011 478.555 53.4011H472.913V66.1101ZM517.552 56.1696C518.924 56.1696 520.207 56.5212 521.402 57.2243C522.105 57.6462 522.457 58.1911 522.457 58.8591C522.457 59.1755 522.378 59.5446 522.219 59.9665C521.85 60.9685 521.341 61.4694 520.69 61.4694C520.426 61.4694 520.18 61.3991 519.952 61.2585C519.091 60.7839 518.168 60.5466 517.183 60.5466C515.601 60.5466 514.01 61.1003 512.411 62.2077C510.811 63.2976 509.493 64.7565 508.456 66.5847C507.436 68.4128 506.926 70.3552 506.926 72.4118V77.5271H515.812C516.41 77.5271 516.832 77.6677 517.078 77.9489C517.342 78.2126 517.473 78.6696 517.473 79.32C517.473 79.9704 517.342 80.4362 517.078 80.7175C516.832 80.9812 516.41 81.113 515.812 81.113H498.832C498.234 81.113 497.803 80.9812 497.54 80.7175C497.294 80.4362 497.171 79.9704 497.171 79.32C497.171 78.6696 497.294 78.2126 497.54 77.9489C497.803 77.6677 498.234 77.5271 498.832 77.5271H502.971V60.3356H499.623C499.025 60.3356 498.594 60.2038 498.331 59.9401C498.085 59.6589 497.962 59.1931 497.962 58.5427C497.962 57.8923 498.085 57.4353 498.331 57.1716C498.594 56.8903 499.025 56.7497 499.623 56.7497H505.002C505.599 56.7497 506.021 56.8903 506.267 57.1716C506.531 57.4353 506.663 57.8923 506.663 58.5427V63.8689C507.507 62.322 508.526 60.9685 509.721 59.8083C510.917 58.6481 512.191 57.7517 513.545 57.1189C514.898 56.486 516.234 56.1696 517.552 56.1696ZM542.1 56.1696C544.649 56.1696 546.82 56.6882 548.613 57.7253C550.424 58.7448 551.812 60.1687 552.779 61.9968C553.746 63.8073 554.3 65.8991 554.44 68.2722C554.44 68.8698 554.308 69.2917 554.045 69.5378C553.799 69.7839 553.377 69.9069 552.779 69.9069H533.689C533.812 72.5261 534.586 74.5124 536.009 75.8659C537.451 77.2019 539.481 77.8698 542.1 77.8698C543.717 77.8698 545.317 77.6677 546.899 77.2634C548.481 76.8415 549.87 76.2878 551.065 75.6022C551.364 75.444 551.636 75.3649 551.883 75.3649C552.498 75.3649 552.999 75.8308 553.385 76.7624C553.544 77.1315 553.623 77.4655 553.623 77.7644C553.623 78.4675 553.236 79.0124 552.463 79.3991C551.109 80.0847 549.509 80.6384 547.664 81.0603C545.818 81.4821 543.964 81.6931 542.1 81.6931C539.446 81.6931 537.178 81.1833 535.298 80.1638C533.417 79.1442 531.984 77.6765 531 75.7605C530.015 73.8444 529.523 71.5681 529.523 68.9314C529.523 66.4177 530.059 64.194 531.132 62.2605C532.204 60.3269 533.689 58.8327 535.588 57.778C537.486 56.7058 539.657 56.1696 542.1 56.1696ZM542.1 59.9929C539.938 59.9929 538.145 60.5466 536.721 61.654C535.315 62.7439 534.392 64.2644 533.953 66.2155H550.063C549.694 64.194 548.842 62.656 547.506 61.6013C546.187 60.529 544.385 59.9929 542.1 59.9929ZM575.692 56.1696C577.872 56.1696 579.823 56.6882 581.546 57.7253C583.268 58.7448 584.622 60.2214 585.606 62.155C586.591 64.071 587.083 66.3298 587.083 68.9314C587.083 71.5329 586.591 73.8005 585.606 75.7341C584.622 77.6501 583.268 79.1267 581.546 80.1638C579.823 81.1833 577.872 81.6931 575.692 81.6931C572.387 81.6931 569.601 80.2429 567.334 77.3425V87.7575H571.869C572.467 87.7575 572.888 87.8894 573.134 88.153C573.398 88.4343 573.53 88.9001 573.53 89.5505C573.53 90.2009 573.398 90.6579 573.134 90.9216C572.888 91.2028 572.467 91.3435 571.869 91.3435H560.689C560.092 91.3435 559.661 91.2028 559.397 90.9216C559.151 90.6579 559.028 90.2009 559.028 89.5505C559.028 88.9001 559.151 88.4343 559.397 88.153C559.661 87.8894 560.092 87.7575 560.689 87.7575H563.379V60.3356H561.217C560.619 60.3356 560.188 60.2038 559.925 59.9401C559.678 59.6589 559.555 59.1931 559.555 58.5427C559.555 57.8923 559.678 57.4353 559.925 57.1716C560.188 56.8903 560.619 56.7497 561.217 56.7497H565.409C566.007 56.7497 566.428 56.8903 566.675 57.1716C566.938 57.4353 567.07 57.8923 567.07 58.5427V60.6521C568.177 59.2106 569.461 58.1032 570.92 57.3298C572.379 56.5564 573.969 56.1696 575.692 56.1696ZM575.428 60.072C573.864 60.072 572.467 60.4235 571.236 61.1267C570.023 61.8298 569.065 62.8493 568.362 64.1853C567.676 65.5212 567.334 67.1032 567.334 68.9314C567.334 70.7595 567.676 72.3415 568.362 73.6774C569.065 75.0134 570.023 76.0329 571.236 76.736C572.467 77.4392 573.864 77.7907 575.428 77.7907C576.993 77.7907 578.338 77.4216 579.463 76.6833C580.588 75.9274 581.44 74.8815 582.02 73.5456C582.618 72.2097 582.917 70.6716 582.917 68.9314C582.917 67.1911 582.618 65.653 582.02 64.3171C581.44 62.9812 580.588 61.944 579.463 61.2058C578.338 60.4499 576.993 60.072 575.428 60.072Z" fill="white"/>
<path d="M180.179 107.985C180.606 107.985 180.908 108.063 181.085 108.219C181.262 108.376 181.35 108.636 181.35 109.001V113.532C181.35 113.897 181.262 114.157 181.085 114.313C180.908 114.469 180.606 114.548 180.179 114.548C179.751 114.548 179.449 114.469 179.272 114.313C179.095 114.157 179.007 113.897 179.007 113.532C179.007 112.907 178.835 112.35 178.491 111.86C178.158 111.37 177.663 110.99 177.007 110.719C176.35 110.438 175.569 110.298 174.663 110.298C173.507 110.298 172.481 110.594 171.585 111.188C170.699 111.782 170.007 112.631 169.507 113.735C169.007 114.839 168.757 116.131 168.757 117.61C168.757 119.089 168.991 120.381 169.46 121.485C169.939 122.579 170.611 123.423 171.475 124.016C172.35 124.61 173.361 124.907 174.507 124.907C176.33 124.907 177.887 124.61 179.179 124.016V120.469H175.319C174.965 120.469 174.71 120.391 174.554 120.235C174.408 120.068 174.335 119.792 174.335 119.407C174.335 119.022 174.408 118.751 174.554 118.594C174.71 118.428 174.965 118.344 175.319 118.344H182.022C182.376 118.344 182.626 118.428 182.772 118.594C182.929 118.751 183.007 119.022 183.007 119.407C183.007 119.792 182.929 120.068 182.772 120.235C182.626 120.391 182.376 120.469 182.022 120.469H181.522V124.641C181.522 125.152 181.335 125.511 180.96 125.719C180.106 126.209 179.121 126.584 178.007 126.844C176.892 127.094 175.725 127.219 174.507 127.219C172.882 127.219 171.444 126.824 170.194 126.032C168.955 125.23 167.991 124.105 167.304 122.657C166.626 121.199 166.288 119.516 166.288 117.61C166.288 115.714 166.637 114.037 167.335 112.579C168.043 111.12 169.017 109.99 170.257 109.188C171.507 108.386 172.923 107.985 174.507 107.985C175.486 107.985 176.35 108.141 177.1 108.454C177.861 108.756 178.496 109.193 179.007 109.766V109.001C179.007 108.636 179.095 108.376 179.272 108.219C179.449 108.063 179.751 107.985 180.179 107.985ZM193.679 112.094C195.189 112.094 196.475 112.402 197.538 113.016C198.611 113.62 199.434 114.464 200.007 115.548C200.58 116.62 200.908 117.86 200.991 119.266C200.991 119.62 200.913 119.87 200.757 120.016C200.611 120.162 200.361 120.235 200.007 120.235H188.694C188.767 121.787 189.225 122.964 190.069 123.766C190.923 124.558 192.126 124.954 193.679 124.954C194.637 124.954 195.585 124.834 196.522 124.594C197.46 124.344 198.283 124.016 198.991 123.61C199.168 123.516 199.33 123.469 199.475 123.469C199.84 123.469 200.137 123.745 200.366 124.298C200.46 124.516 200.507 124.714 200.507 124.891C200.507 125.308 200.278 125.631 199.819 125.86C199.017 126.266 198.069 126.594 196.975 126.844C195.882 127.094 194.783 127.219 193.679 127.219C192.106 127.219 190.762 126.917 189.647 126.313C188.533 125.709 187.684 124.839 187.1 123.704C186.517 122.568 186.225 121.219 186.225 119.657C186.225 118.167 186.543 116.85 187.179 115.704C187.814 114.558 188.694 113.673 189.819 113.048C190.944 112.412 192.231 112.094 193.679 112.094ZM193.679 114.36C192.397 114.36 191.335 114.688 190.491 115.344C189.658 115.99 189.111 116.891 188.85 118.048H198.397C198.179 116.85 197.673 115.938 196.882 115.313C196.1 114.678 195.033 114.36 193.679 114.36ZM210.288 107.985C210.715 107.985 211.017 108.063 211.194 108.219C211.371 108.376 211.46 108.636 211.46 109.001V113.688H217.882C218.236 113.688 218.486 113.772 218.632 113.938C218.788 114.094 218.866 114.365 218.866 114.751C218.866 115.136 218.788 115.412 218.632 115.579C218.486 115.735 218.236 115.813 217.882 115.813H211.46V121.501C211.46 122.688 211.663 123.558 212.069 124.11C212.486 124.662 213.205 124.938 214.225 124.938C214.923 124.938 215.658 124.798 216.429 124.516C217.199 124.235 217.944 123.86 218.663 123.391C218.809 123.287 218.97 123.235 219.147 123.235C219.501 123.235 219.804 123.475 220.054 123.954C220.189 124.225 220.257 124.459 220.257 124.657C220.257 124.99 220.085 125.261 219.741 125.469C218.929 125.98 218.022 126.402 217.022 126.735C216.022 127.058 215.09 127.219 214.225 127.219C212.455 127.219 211.158 126.761 210.335 125.844C209.522 124.917 209.116 123.537 209.116 121.704V115.813H205.944C205.59 115.813 205.335 115.735 205.179 115.579C205.033 115.412 204.96 115.136 204.96 114.751C204.96 114.365 205.033 114.094 205.179 113.938C205.335 113.772 205.59 113.688 205.944 113.688H209.116V109.001C209.116 108.636 209.205 108.376 209.382 108.219C209.559 108.063 209.861 107.985 210.288 107.985ZM248.663 107.985C249.09 107.985 249.392 108.063 249.569 108.219C249.746 108.376 249.835 108.636 249.835 109.001V113.688H256.257C256.611 113.688 256.861 113.772 257.007 113.938C257.163 114.094 257.241 114.365 257.241 114.751C257.241 115.136 257.163 115.412 257.007 115.579C256.861 115.735 256.611 115.813 256.257 115.813H249.835V121.501C249.835 122.688 250.038 123.558 250.444 124.11C250.861 124.662 251.58 124.938 252.6 124.938C253.298 124.938 254.033 124.798 254.804 124.516C255.574 124.235 256.319 123.86 257.038 123.391C257.184 123.287 257.345 123.235 257.522 123.235C257.876 123.235 258.179 123.475 258.429 123.954C258.564 124.225 258.632 124.459 258.632 124.657C258.632 124.99 258.46 125.261 258.116 125.469C257.304 125.98 256.397 126.402 255.397 126.735C254.397 127.058 253.465 127.219 252.6 127.219C250.83 127.219 249.533 126.761 248.71 125.844C247.897 124.917 247.491 123.537 247.491 121.704V115.813H244.319C243.965 115.813 243.71 115.735 243.554 115.579C243.408 115.412 243.335 115.136 243.335 114.751C243.335 114.365 243.408 114.094 243.554 113.938C243.71 113.772 243.965 113.688 244.319 113.688H247.491V109.001C247.491 108.636 247.58 108.376 247.757 108.219C247.934 108.063 248.236 107.985 248.663 107.985ZM265.679 106.376C266.033 106.376 266.283 106.459 266.429 106.626C266.585 106.782 266.663 107.053 266.663 107.438V115.219C267.34 114.209 268.121 113.438 269.007 112.907C269.903 112.365 270.866 112.094 271.897 112.094C272.845 112.094 273.668 112.303 274.366 112.719C275.064 113.126 275.6 113.714 275.975 114.485C276.35 115.256 276.538 116.157 276.538 117.188V124.751H277.819C278.173 124.751 278.423 124.834 278.569 125.001C278.725 125.157 278.804 125.428 278.804 125.813C278.804 126.199 278.725 126.475 278.569 126.641C278.423 126.798 278.173 126.876 277.819 126.876H272.757C272.403 126.876 272.147 126.798 271.991 126.641C271.845 126.475 271.772 126.199 271.772 125.813C271.772 125.428 271.845 125.157 271.991 125.001C272.147 124.834 272.403 124.751 272.757 124.751H274.194V117.423C274.194 116.495 273.981 115.761 273.554 115.219C273.126 114.678 272.496 114.407 271.663 114.407C270.778 114.407 269.949 114.662 269.179 115.173C268.418 115.683 267.809 116.386 267.35 117.282C266.892 118.178 266.663 119.178 266.663 120.282V124.751H268.1C268.455 124.751 268.705 124.834 268.85 125.001C269.007 125.157 269.085 125.428 269.085 125.813C269.085 126.199 269.007 126.475 268.85 126.641C268.705 126.798 268.455 126.876 268.1 126.876H263.038C262.684 126.876 262.429 126.798 262.272 126.641C262.126 126.475 262.054 126.199 262.054 125.813C262.054 125.428 262.126 125.157 262.272 125.001C262.429 124.834 262.684 124.751 263.038 124.751H264.319V108.501H262.882C262.528 108.501 262.272 108.423 262.116 108.266C261.97 108.1 261.897 107.824 261.897 107.438C261.897 107.053 261.97 106.782 262.116 106.626C262.272 106.459 262.528 106.376 262.882 106.376H265.679ZM289.616 112.094C291.126 112.094 292.413 112.402 293.475 113.016C294.548 113.62 295.371 114.464 295.944 115.548C296.517 116.62 296.845 117.86 296.929 119.266C296.929 119.62 296.85 119.87 296.694 120.016C296.548 120.162 296.298 120.235 295.944 120.235H284.632C284.705 121.787 285.163 122.964 286.007 123.766C286.861 124.558 288.064 124.954 289.616 124.954C290.574 124.954 291.522 124.834 292.46 124.594C293.397 124.344 294.22 124.016 294.929 123.61C295.106 123.516 295.267 123.469 295.413 123.469C295.778 123.469 296.074 123.745 296.304 124.298C296.397 124.516 296.444 124.714 296.444 124.891C296.444 125.308 296.215 125.631 295.757 125.86C294.955 126.266 294.007 126.594 292.913 126.844C291.819 127.094 290.72 127.219 289.616 127.219C288.043 127.219 286.699 126.917 285.585 126.313C284.47 125.709 283.621 124.839 283.038 123.704C282.455 122.568 282.163 121.219 282.163 119.657C282.163 118.167 282.481 116.85 283.116 115.704C283.751 114.558 284.632 113.673 285.757 113.048C286.882 112.412 288.168 112.094 289.616 112.094ZM289.616 114.36C288.335 114.36 287.272 114.688 286.429 115.344C285.595 115.99 285.048 116.891 284.788 118.048H294.335C294.116 116.85 293.611 115.938 292.819 115.313C292.038 114.678 290.97 114.36 289.616 114.36ZM317.679 124.751C318.033 124.751 318.283 124.834 318.429 125.001C318.585 125.157 318.663 125.428 318.663 125.813C318.663 126.199 318.585 126.475 318.429 126.641C318.283 126.798 318.033 126.876 317.679 126.876H315.35C314.996 126.876 314.741 126.798 314.585 126.641C314.439 126.475 314.366 126.199 314.366 125.813V116.563C314.366 115.844 314.246 115.308 314.007 114.954C313.778 114.589 313.403 114.407 312.882 114.407C312.392 114.407 311.939 114.636 311.522 115.094C311.106 115.542 310.772 116.173 310.522 116.985C310.283 117.787 310.163 118.704 310.163 119.735V124.751H311.054C311.408 124.751 311.658 124.834 311.804 125.001C311.96 125.157 312.038 125.428 312.038 125.813C312.038 126.199 311.96 126.475 311.804 126.641C311.658 126.798 311.408 126.876 311.054 126.876H308.804C308.449 126.876 308.194 126.798 308.038 126.641C307.892 126.475 307.819 126.199 307.819 125.813V116.563C307.819 115.844 307.699 115.308 307.46 114.954C307.231 114.589 306.856 114.407 306.335 114.407C305.845 114.407 305.392 114.636 304.975 115.094C304.559 115.542 304.225 116.173 303.975 116.985C303.736 117.787 303.616 118.704 303.616 119.735V124.751H304.429C304.783 124.751 305.033 124.834 305.179 125.001C305.335 125.157 305.413 125.428 305.413 125.813C305.413 126.199 305.335 126.475 305.179 126.641C305.033 126.798 304.783 126.876 304.429 126.876H299.991C299.637 126.876 299.382 126.798 299.225 126.641C299.08 126.475 299.007 126.199 299.007 125.813C299.007 125.428 299.08 125.157 299.225 125.001C299.382 124.834 299.637 124.751 299.991 124.751H301.272V114.563H299.991C299.637 114.563 299.382 114.485 299.225 114.329C299.08 114.162 299.007 113.886 299.007 113.501C299.007 113.115 299.08 112.844 299.225 112.688C299.382 112.522 299.637 112.438 299.991 112.438H302.319C302.673 112.438 302.923 112.522 303.069 112.688C303.225 112.844 303.304 113.115 303.304 113.501V115.048C303.751 114.068 304.288 113.334 304.913 112.844C305.538 112.344 306.215 112.094 306.944 112.094C307.653 112.094 308.272 112.334 308.804 112.813C309.335 113.292 309.694 113.995 309.882 114.923C310.809 113.037 312.007 112.094 313.475 112.094C314.09 112.094 314.637 112.251 315.116 112.563C315.606 112.865 315.991 113.334 316.272 113.969C316.564 114.594 316.71 115.365 316.71 116.282V124.751H317.679ZM347.6 112.438C347.955 112.438 348.205 112.522 348.35 112.688C348.507 112.844 348.585 113.115 348.585 113.501V124.751H353.6C353.955 124.751 354.205 124.834 354.35 125.001C354.507 125.157 354.585 125.428 354.585 125.813C354.585 126.199 354.507 126.475 354.35 126.641C354.205 126.798 353.955 126.876 353.6 126.876H341.35C340.996 126.876 340.741 126.798 340.585 126.641C340.439 126.475 340.366 126.199 340.366 125.813C340.366 125.428 340.439 125.157 340.585 125.001C340.741 124.834 340.996 124.751 341.35 124.751H346.241V114.563H342.288C341.934 114.563 341.679 114.485 341.522 114.329C341.376 114.162 341.304 113.886 341.304 113.501C341.304 113.115 341.376 112.844 341.522 112.688C341.679 112.522 341.934 112.438 342.288 112.438H347.6ZM347.1 105.579C347.673 105.579 348.064 105.657 348.272 105.813C348.481 105.959 348.585 106.219 348.585 106.594V108.626C348.585 109.001 348.481 109.266 348.272 109.423C348.064 109.568 347.673 109.641 347.1 109.641C346.528 109.641 346.137 109.568 345.929 109.423C345.72 109.266 345.616 109.001 345.616 108.626V106.594C345.616 106.219 345.72 105.959 345.929 105.813C346.137 105.657 346.528 105.579 347.1 105.579ZM367.991 112.094C368.939 112.094 369.762 112.303 370.46 112.719C371.158 113.126 371.694 113.714 372.069 114.485C372.444 115.256 372.632 116.157 372.632 117.188V124.751H373.913C374.267 124.751 374.517 124.834 374.663 125.001C374.819 125.157 374.897 125.428 374.897 125.813C374.897 126.199 374.819 126.475 374.663 126.641C374.517 126.798 374.267 126.876 373.913 126.876H368.85C368.496 126.876 368.241 126.798 368.085 126.641C367.939 126.475 367.866 126.199 367.866 125.813C367.866 125.428 367.939 125.157 368.085 125.001C368.241 124.834 368.496 124.751 368.85 124.751H370.288V117.423C370.288 116.495 370.074 115.761 369.647 115.219C369.22 114.678 368.59 114.407 367.757 114.407C366.871 114.407 366.043 114.662 365.272 115.173C364.512 115.683 363.903 116.386 363.444 117.282C362.986 118.178 362.757 119.178 362.757 120.282V124.751H364.194C364.548 124.751 364.798 124.834 364.944 125.001C365.1 125.157 365.179 125.428 365.179 125.813C365.179 126.199 365.1 126.475 364.944 126.641C364.798 126.798 364.548 126.876 364.194 126.876H359.132C358.778 126.876 358.522 126.798 358.366 126.641C358.22 126.475 358.147 126.199 358.147 125.813C358.147 125.428 358.22 125.157 358.366 125.001C358.522 124.834 358.778 124.751 359.132 124.751H360.413V114.563H358.819C358.465 114.563 358.21 114.485 358.054 114.329C357.908 114.162 357.835 113.886 357.835 113.501C357.835 113.115 357.908 112.844 358.054 112.688C358.21 112.522 358.465 112.438 358.819 112.438H361.616C361.97 112.438 362.22 112.522 362.366 112.688C362.522 112.844 362.6 113.115 362.6 113.501V115.376C363.288 114.313 364.09 113.501 365.007 112.938C365.934 112.376 366.929 112.094 367.991 112.094ZM382.975 107.985C383.403 107.985 383.705 108.063 383.882 108.219C384.059 108.376 384.147 108.636 384.147 109.001V113.688H390.569C390.923 113.688 391.173 113.772 391.319 113.938C391.475 114.094 391.554 114.365 391.554 114.751C391.554 115.136 391.475 115.412 391.319 115.579C391.173 115.735 390.923 115.813 390.569 115.813H384.147V121.501C384.147 122.688 384.35 123.558 384.757 124.11C385.173 124.662 385.892 124.938 386.913 124.938C387.611 124.938 388.345 124.798 389.116 124.516C389.887 124.235 390.632 123.86 391.35 123.391C391.496 123.287 391.658 123.235 391.835 123.235C392.189 123.235 392.491 123.475 392.741 123.954C392.876 124.225 392.944 124.459 392.944 124.657C392.944 124.99 392.772 125.261 392.429 125.469C391.616 125.98 390.71 126.402 389.71 126.735C388.71 127.058 387.778 127.219 386.913 127.219C385.142 127.219 383.845 126.761 383.022 125.844C382.21 124.917 381.804 123.537 381.804 121.704V115.813H378.632C378.278 115.813 378.022 115.735 377.866 115.579C377.72 115.412 377.647 115.136 377.647 114.751C377.647 114.365 377.72 114.094 377.866 113.938C378.022 113.772 378.278 113.688 378.632 113.688H381.804V109.001C381.804 108.636 381.892 108.376 382.069 108.219C382.246 108.063 382.548 107.985 382.975 107.985ZM404.741 112.094C406.251 112.094 407.538 112.402 408.6 113.016C409.673 113.62 410.496 114.464 411.069 115.548C411.642 116.62 411.97 117.86 412.054 119.266C412.054 119.62 411.975 119.87 411.819 120.016C411.673 120.162 411.423 120.235 411.069 120.235H399.757C399.83 121.787 400.288 122.964 401.132 123.766C401.986 124.558 403.189 124.954 404.741 124.954C405.699 124.954 406.647 124.834 407.585 124.594C408.522 124.344 409.345 124.016 410.054 123.61C410.231 123.516 410.392 123.469 410.538 123.469C410.903 123.469 411.199 123.745 411.429 124.298C411.522 124.516 411.569 124.714 411.569 124.891C411.569 125.308 411.34 125.631 410.882 125.86C410.08 126.266 409.132 126.594 408.038 126.844C406.944 127.094 405.845 127.219 404.741 127.219C403.168 127.219 401.824 126.917 400.71 126.313C399.595 125.709 398.746 124.839 398.163 123.704C397.58 122.568 397.288 121.219 397.288 119.657C397.288 118.167 397.606 116.85 398.241 115.704C398.876 114.558 399.757 113.673 400.882 113.048C402.007 112.412 403.293 112.094 404.741 112.094ZM404.741 114.36C403.46 114.36 402.397 114.688 401.554 115.344C400.72 115.99 400.173 116.891 399.913 118.048H409.46C409.241 116.85 408.736 115.938 407.944 115.313C407.163 114.678 406.095 114.36 404.741 114.36ZM428.569 112.094C429.382 112.094 430.142 112.303 430.85 112.719C431.267 112.969 431.475 113.292 431.475 113.688C431.475 113.876 431.429 114.094 431.335 114.344C431.116 114.938 430.814 115.235 430.429 115.235C430.272 115.235 430.126 115.193 429.991 115.11C429.481 114.829 428.934 114.688 428.35 114.688C427.413 114.688 426.47 115.016 425.522 115.673C424.574 116.318 423.793 117.183 423.179 118.266C422.574 119.35 422.272 120.501 422.272 121.719V124.751H427.538C427.892 124.751 428.142 124.834 428.288 125.001C428.444 125.157 428.522 125.428 428.522 125.813C428.522 126.199 428.444 126.475 428.288 126.641C428.142 126.798 427.892 126.876 427.538 126.876H417.475C417.121 126.876 416.866 126.798 416.71 126.641C416.564 126.475 416.491 126.199 416.491 125.813C416.491 125.428 416.564 125.157 416.71 125.001C416.866 124.834 417.121 124.751 417.475 124.751H419.929V114.563H417.944C417.59 114.563 417.335 114.485 417.179 114.329C417.033 114.162 416.96 113.886 416.96 113.501C416.96 113.115 417.033 112.844 417.179 112.688C417.335 112.522 417.59 112.438 417.944 112.438H421.132C421.486 112.438 421.736 112.522 421.882 112.688C422.038 112.844 422.116 113.115 422.116 113.501V116.657C422.616 115.74 423.22 114.938 423.929 114.251C424.637 113.563 425.392 113.032 426.194 112.657C426.996 112.282 427.788 112.094 428.569 112.094ZM444.741 112.094C445.689 112.094 446.512 112.303 447.21 112.719C447.908 113.126 448.444 113.714 448.819 114.485C449.194 115.256 449.382 116.157 449.382 117.188V124.751H450.663C451.017 124.751 451.267 124.834 451.413 125.001C451.569 125.157 451.647 125.428 451.647 125.813C451.647 126.199 451.569 126.475 451.413 126.641C451.267 126.798 451.017 126.876 450.663 126.876H445.6C445.246 126.876 444.991 126.798 444.835 126.641C444.689 126.475 444.616 126.199 444.616 125.813C444.616 125.428 444.689 125.157 444.835 125.001C444.991 124.834 445.246 124.751 445.6 124.751H447.038V117.423C447.038 116.495 446.824 115.761 446.397 115.219C445.97 114.678 445.34 114.407 444.507 114.407C443.621 114.407 442.793 114.662 442.022 115.173C441.262 115.683 440.653 116.386 440.194 117.282C439.736 118.178 439.507 119.178 439.507 120.282V124.751H440.944C441.298 124.751 441.548 124.834 441.694 125.001C441.85 125.157 441.929 125.428 441.929 125.813C441.929 126.199 441.85 126.475 441.694 126.641C441.548 126.798 441.298 126.876 440.944 126.876H435.882C435.528 126.876 435.272 126.798 435.116 126.641C434.97 126.475 434.897 126.199 434.897 125.813C434.897 125.428 434.97 125.157 435.116 125.001C435.272 124.834 435.528 124.751 435.882 124.751H437.163V114.563H435.569C435.215 114.563 434.96 114.485 434.804 114.329C434.658 114.162 434.585 113.886 434.585 113.501C434.585 113.115 434.658 112.844 434.804 112.688C434.96 112.522 435.215 112.438 435.569 112.438H438.366C438.72 112.438 438.97 112.522 439.116 112.688C439.272 112.844 439.35 113.115 439.35 113.501V115.376C440.038 114.313 440.84 113.501 441.757 112.938C442.684 112.376 443.679 112.094 444.741 112.094ZM467.085 112.094C467.512 112.094 467.814 112.173 467.991 112.329C468.168 112.485 468.257 112.745 468.257 113.11V116.079C468.257 116.443 468.168 116.704 467.991 116.86C467.814 117.016 467.512 117.094 467.085 117.094C466.731 117.094 466.481 116.959 466.335 116.688C465.887 115.834 465.236 115.235 464.382 114.891C463.528 114.537 462.444 114.36 461.132 114.36C460.121 114.36 459.33 114.542 458.757 114.907C458.194 115.261 457.913 115.761 457.913 116.407C457.913 116.74 458.017 117.011 458.225 117.219C458.444 117.428 458.762 117.6 459.179 117.735C459.522 117.85 459.918 117.938 460.366 118.001C460.824 118.063 461.413 118.131 462.132 118.204C463.142 118.318 463.955 118.428 464.569 118.532C465.194 118.626 465.783 118.772 466.335 118.969C467.168 119.272 467.814 119.709 468.272 120.282C468.741 120.855 468.975 121.61 468.975 122.548C468.975 123.485 468.736 124.308 468.257 125.016C467.788 125.714 467.095 126.256 466.179 126.641C465.272 127.027 464.184 127.219 462.913 127.219C461.788 127.219 460.798 127.063 459.944 126.751C459.09 126.438 458.345 125.964 457.71 125.329V126.204C457.71 126.568 457.621 126.829 457.444 126.985C457.267 127.141 456.965 127.219 456.538 127.219C456.111 127.219 455.809 127.141 455.632 126.985C455.455 126.829 455.366 126.568 455.366 126.204V122.454C455.366 122.089 455.455 121.829 455.632 121.673C455.809 121.516 456.111 121.438 456.538 121.438C456.757 121.438 456.929 121.49 457.054 121.594C457.179 121.688 457.288 121.85 457.382 122.079C457.757 123.079 458.382 123.808 459.257 124.266C460.132 124.725 461.298 124.954 462.757 124.954C463.965 124.954 464.892 124.735 465.538 124.298C466.184 123.86 466.507 123.277 466.507 122.548C466.507 122.193 466.392 121.902 466.163 121.673C465.934 121.443 465.606 121.256 465.179 121.11C464.814 120.995 464.392 120.902 463.913 120.829C463.444 120.745 462.845 120.667 462.116 120.594C461.137 120.49 460.319 120.381 459.663 120.266C459.007 120.152 458.403 119.985 457.85 119.766C457.09 119.464 456.496 119.048 456.069 118.516C455.653 117.975 455.444 117.272 455.444 116.407C455.444 115.501 455.679 114.725 456.147 114.079C456.626 113.423 457.283 112.928 458.116 112.594C458.96 112.261 459.913 112.094 460.975 112.094C461.986 112.094 462.908 112.245 463.741 112.548C464.585 112.85 465.309 113.272 465.913 113.813V113.11C465.913 112.745 466.001 112.485 466.179 112.329C466.356 112.173 466.658 112.094 467.085 112.094ZM476.741 106.376C477.095 106.376 477.345 106.459 477.491 106.626C477.647 106.782 477.725 107.053 477.725 107.438V115.219C478.403 114.209 479.184 113.438 480.069 112.907C480.965 112.365 481.929 112.094 482.96 112.094C483.908 112.094 484.731 112.303 485.429 112.719C486.126 113.126 486.663 113.714 487.038 114.485C487.413 115.256 487.6 116.157 487.6 117.188V124.751H488.882C489.236 124.751 489.486 124.834 489.632 125.001C489.788 125.157 489.866 125.428 489.866 125.813C489.866 126.199 489.788 126.475 489.632 126.641C489.486 126.798 489.236 126.876 488.882 126.876H483.819C483.465 126.876 483.21 126.798 483.054 126.641C482.908 126.475 482.835 126.199 482.835 125.813C482.835 125.428 482.908 125.157 483.054 125.001C483.21 124.834 483.465 124.751 483.819 124.751H485.257V117.423C485.257 116.495 485.043 115.761 484.616 115.219C484.189 114.678 483.559 114.407 482.725 114.407C481.84 114.407 481.012 114.662 480.241 115.173C479.481 115.683 478.871 116.386 478.413 117.282C477.955 118.178 477.725 119.178 477.725 120.282V124.751H479.163C479.517 124.751 479.767 124.834 479.913 125.001C480.069 125.157 480.147 125.428 480.147 125.813C480.147 126.199 480.069 126.475 479.913 126.641C479.767 126.798 479.517 126.876 479.163 126.876H474.1C473.746 126.876 473.491 126.798 473.335 126.641C473.189 126.475 473.116 126.199 473.116 125.813C473.116 125.428 473.189 125.157 473.335 125.001C473.491 124.834 473.746 124.751 474.1 124.751H475.382V108.501H473.944C473.59 108.501 473.335 108.423 473.179 108.266C473.033 108.1 472.96 107.824 472.96 107.438C472.96 107.053 473.033 106.782 473.179 106.626C473.335 106.459 473.59 106.376 473.944 106.376H476.741ZM501.1 112.438C501.455 112.438 501.705 112.522 501.85 112.688C502.007 112.844 502.085 113.115 502.085 113.501V124.751H507.1C507.455 124.751 507.705 124.834 507.85 125.001C508.007 125.157 508.085 125.428 508.085 125.813C508.085 126.199 508.007 126.475 507.85 126.641C507.705 126.798 507.455 126.876 507.1 126.876H494.85C494.496 126.876 494.241 126.798 494.085 126.641C493.939 126.475 493.866 126.199 493.866 125.813C493.866 125.428 493.939 125.157 494.085 125.001C494.241 124.834 494.496 124.751 494.85 124.751H499.741V114.563H495.788C495.434 114.563 495.179 114.485 495.022 114.329C494.876 114.162 494.804 113.886 494.804 113.501C494.804 113.115 494.876 112.844 495.022 112.688C495.179 112.522 495.434 112.438 495.788 112.438H501.1ZM500.6 105.579C501.173 105.579 501.564 105.657 501.772 105.813C501.981 105.959 502.085 106.219 502.085 106.594V108.626C502.085 109.001 501.981 109.266 501.772 109.423C501.564 109.568 501.173 109.641 500.6 109.641C500.028 109.641 499.637 109.568 499.429 109.423C499.22 109.266 499.116 109.001 499.116 108.626V106.594C499.116 106.219 499.22 105.959 499.429 105.813C499.637 105.657 500.028 105.579 500.6 105.579ZM520.585 112.094C521.876 112.094 523.033 112.402 524.054 113.016C525.074 113.62 525.876 114.495 526.46 115.641C527.043 116.777 527.335 118.115 527.335 119.657C527.335 121.199 527.043 122.542 526.46 123.688C525.876 124.824 525.074 125.699 524.054 126.313C523.033 126.917 521.876 127.219 520.585 127.219C518.626 127.219 516.975 126.36 515.632 124.641V130.813H518.319C518.673 130.813 518.923 130.891 519.069 131.048C519.225 131.214 519.304 131.49 519.304 131.876C519.304 132.261 519.225 132.532 519.069 132.688C518.923 132.855 518.673 132.938 518.319 132.938H511.694C511.34 132.938 511.085 132.855 510.929 132.688C510.783 132.532 510.71 132.261 510.71 131.876C510.71 131.49 510.783 131.214 510.929 131.048C511.085 130.891 511.34 130.813 511.694 130.813H513.288V114.563H512.007C511.653 114.563 511.397 114.485 511.241 114.329C511.095 114.162 511.022 113.886 511.022 113.501C511.022 113.115 511.095 112.844 511.241 112.688C511.397 112.522 511.653 112.438 512.007 112.438H514.491C514.845 112.438 515.095 112.522 515.241 112.688C515.397 112.844 515.475 113.115 515.475 113.501V114.751C516.132 113.897 516.892 113.24 517.757 112.782C518.621 112.324 519.564 112.094 520.585 112.094ZM520.429 114.407C519.501 114.407 518.673 114.615 517.944 115.032C517.225 115.449 516.658 116.053 516.241 116.844C515.835 117.636 515.632 118.574 515.632 119.657C515.632 120.74 515.835 121.678 516.241 122.469C516.658 123.261 517.225 123.865 517.944 124.282C518.673 124.699 519.501 124.907 520.429 124.907C521.356 124.907 522.153 124.688 522.819 124.251C523.486 123.803 523.991 123.183 524.335 122.391C524.689 121.6 524.866 120.688 524.866 119.657C524.866 118.626 524.689 117.714 524.335 116.923C523.991 116.131 523.486 115.516 522.819 115.079C522.153 114.631 521.356 114.407 520.429 114.407ZM543.835 112.094C544.262 112.094 544.564 112.173 544.741 112.329C544.918 112.485 545.007 112.745 545.007 113.11V116.079C545.007 116.443 544.918 116.704 544.741 116.86C544.564 117.016 544.262 117.094 543.835 117.094C543.481 117.094 543.231 116.959 543.085 116.688C542.637 115.834 541.986 115.235 541.132 114.891C540.278 114.537 539.194 114.36 537.882 114.36C536.871 114.36 536.08 114.542 535.507 114.907C534.944 115.261 534.663 115.761 534.663 116.407C534.663 116.74 534.767 117.011 534.975 117.219C535.194 117.428 535.512 117.6 535.929 117.735C536.272 117.85 536.668 117.938 537.116 118.001C537.574 118.063 538.163 118.131 538.882 118.204C539.892 118.318 540.705 118.428 541.319 118.532C541.944 118.626 542.533 118.772 543.085 118.969C543.918 119.272 544.564 119.709 545.022 120.282C545.491 120.855 545.725 121.61 545.725 122.548C545.725 123.485 545.486 124.308 545.007 125.016C544.538 125.714 543.845 126.256 542.929 126.641C542.022 127.027 540.934 127.219 539.663 127.219C538.538 127.219 537.548 127.063 536.694 126.751C535.84 126.438 535.095 125.964 534.46 125.329V126.204C534.46 126.568 534.371 126.829 534.194 126.985C534.017 127.141 533.715 127.219 533.288 127.219C532.861 127.219 532.559 127.141 532.382 126.985C532.205 126.829 532.116 126.568 532.116 126.204V122.454C532.116 122.089 532.205 121.829 532.382 121.673C532.559 121.516 532.861 121.438 533.288 121.438C533.507 121.438 533.679 121.49 533.804 121.594C533.929 121.688 534.038 121.85 534.132 122.079C534.507 123.079 535.132 123.808 536.007 124.266C536.882 124.725 538.048 124.954 539.507 124.954C540.715 124.954 541.642 124.735 542.288 124.298C542.934 123.86 543.257 123.277 543.257 122.548C543.257 122.193 543.142 121.902 542.913 121.673C542.684 121.443 542.356 121.256 541.929 121.11C541.564 120.995 541.142 120.902 540.663 120.829C540.194 120.745 539.595 120.667 538.866 120.594C537.887 120.49 537.069 120.381 536.413 120.266C535.757 120.152 535.153 119.985 534.6 119.766C533.84 119.464 533.246 119.048 532.819 118.516C532.403 117.975 532.194 117.272 532.194 116.407C532.194 115.501 532.429 114.725 532.897 114.079C533.376 113.423 534.033 112.928 534.866 112.594C535.71 112.261 536.663 112.094 537.725 112.094C538.736 112.094 539.658 112.245 540.491 112.548C541.335 112.85 542.059 113.272 542.663 113.813V113.11C542.663 112.745 542.751 112.485 542.929 112.329C543.106 112.173 543.408 112.094 543.835 112.094Z" fill="white"/>
</svg>
