<svg width="331" height="35" viewBox="0 0 331 35" fill="none" xmlns="http://www.w3.org/2000/svg">
<path d="M15.457 3.81641C15.8997 3.81641 16.2122 3.92057 16.3945 4.12891C16.5898 4.32422 16.6875 4.66276 16.6875 5.14453C16.6875 5.6263 16.5898 5.97135 16.3945 6.17969C16.2122 6.375 15.8997 6.47266 15.457 6.47266H10.457V24.3438H15.8477C16.2904 24.3438 16.6029 24.4479 16.7852 24.6562C16.9805 24.8516 17.0781 25.1901 17.0781 25.6719C17.0781 26.1536 16.9805 26.4987 16.7852 26.707C16.6029 26.9023 16.2904 27 15.8477 27H2.13672C1.69401 27 1.375 26.9023 1.17969 26.707C0.997396 26.4987 0.90625 26.1536 0.90625 25.6719C0.90625 25.1901 0.997396 24.8516 1.17969 24.6562C1.375 24.4479 1.69401 24.3438 2.13672 24.3438H7.52734V6.47266H2.52734C2.08464 6.47266 1.76562 6.375 1.57031 6.17969C1.38802 5.97135 1.29688 5.6263 1.29688 5.14453C1.29688 4.66276 1.38802 4.32422 1.57031 4.12891C1.76562 3.92057 2.08464 3.81641 2.52734 3.81641H15.457ZM35.1836 8.52344C36.3685 8.52344 37.3971 8.78385 38.2695 9.30469C39.1419 9.8125 39.8125 10.5482 40.2812 11.5117C40.75 12.4753 40.9844 13.6016 40.9844 14.8906V24.3438H42.5859C43.0286 24.3438 43.3411 24.4479 43.5234 24.6562C43.7188 24.8516 43.8164 25.1901 43.8164 25.6719C43.8164 26.1536 43.7188 26.4987 43.5234 26.707C43.3411 26.9023 43.0286 27 42.5859 27H36.2578C35.8151 27 35.4961 26.9023 35.3008 26.707C35.1185 26.4987 35.0273 26.1536 35.0273 25.6719C35.0273 25.1901 35.1185 24.8516 35.3008 24.6562C35.4961 24.4479 35.8151 24.3438 36.2578 24.3438H38.0547V15.1836C38.0547 14.0247 37.7878 13.1068 37.2539 12.4297C36.7201 11.7526 35.9323 11.4141 34.8906 11.4141C33.7839 11.4141 32.7487 11.7331 31.7852 12.3711C30.8346 13.0091 30.0729 13.888 29.5 15.0078C28.9271 16.1276 28.6406 17.3776 28.6406 18.7578V24.3438H30.4375C30.8802 24.3438 31.1927 24.4479 31.375 24.6562C31.5703 24.8516 31.668 25.1901 31.668 25.6719C31.668 26.1536 31.5703 26.4987 31.375 26.707C31.1927 26.9023 30.8802 27 30.4375 27H24.1094C23.6667 27 23.3477 26.9023 23.1523 26.707C22.9701 26.4987 22.8789 26.1536 22.8789 25.6719C22.8789 25.1901 22.9701 24.8516 23.1523 24.6562C23.3477 24.4479 23.6667 24.3438 24.1094 24.3438H25.7109V11.6094H23.7188C23.276 11.6094 22.957 11.5117 22.7617 11.3164C22.5794 11.1081 22.4883 10.763 22.4883 10.2812C22.4883 9.79948 22.5794 9.46094 22.7617 9.26562C22.957 9.05729 23.276 8.95312 23.7188 8.95312H27.2148C27.6576 8.95312 27.9701 9.05729 28.1523 9.26562C28.3477 9.46094 28.4453 9.79948 28.4453 10.2812V12.625C29.3047 11.2969 30.3073 10.2812 31.4531 9.57812C32.612 8.875 33.8555 8.52344 35.1836 8.52344ZM53.9141 3.38672C54.4479 3.38672 54.8255 3.48438 55.0469 3.67969C55.2682 3.875 55.3789 4.20052 55.3789 4.65625V10.5156H63.4062C63.849 10.5156 64.1615 10.6198 64.3438 10.8281C64.5391 11.0234 64.6367 11.362 64.6367 11.8438C64.6367 12.3255 64.5391 12.6706 64.3438 12.8789C64.1615 13.0742 63.849 13.1719 63.4062 13.1719H55.3789V20.2812C55.3789 21.7656 55.6328 22.8529 56.1406 23.543C56.6615 24.2331 57.5599 24.5781 58.8359 24.5781C59.7083 24.5781 60.6263 24.4023 61.5898 24.0508C62.5534 23.6992 63.4844 23.2305 64.3828 22.6445C64.5651 22.5143 64.7669 22.4492 64.9883 22.4492C65.431 22.4492 65.8086 22.7487 66.1211 23.3477C66.2904 23.6862 66.375 23.9792 66.375 24.2266C66.375 24.6432 66.1602 24.9818 65.7305 25.2422C64.7148 25.8802 63.582 26.4076 62.332 26.8242C61.082 27.2279 59.9167 27.4297 58.8359 27.4297C56.6224 27.4297 55.0013 26.8568 53.9727 25.7109C52.957 24.5521 52.4492 22.8268 52.4492 20.5352V13.1719H48.4844C48.0417 13.1719 47.7227 13.0742 47.5273 12.8789C47.3451 12.6706 47.2539 12.3255 47.2539 11.8438C47.2539 11.362 47.3451 11.0234 47.5273 10.8281C47.7227 10.6198 48.0417 10.5156 48.4844 10.5156H52.4492V4.65625C52.4492 4.20052 52.5599 3.875 52.7812 3.67969C53.0026 3.48438 53.3802 3.38672 53.9141 3.38672ZM81.1211 8.52344C83.0091 8.52344 84.6172 8.90755 85.9453 9.67578C87.2865 10.431 88.3151 11.4857 89.0312 12.8398C89.7474 14.181 90.1576 15.7305 90.2617 17.4883C90.2617 17.931 90.1641 18.2435 89.9688 18.4258C89.7865 18.6081 89.474 18.6992 89.0312 18.6992H74.8906C74.9818 20.6393 75.5547 22.1107 76.6094 23.1133C77.6771 24.1029 79.181 24.5977 81.1211 24.5977C82.319 24.5977 83.5039 24.4479 84.6758 24.1484C85.8477 23.8359 86.8763 23.4258 87.7617 22.918C87.9831 22.8008 88.1849 22.7422 88.3672 22.7422C88.8229 22.7422 89.194 23.0872 89.4805 23.7773C89.5977 24.0508 89.6562 24.2982 89.6562 24.5195C89.6562 25.0404 89.3698 25.444 88.7969 25.7305C87.7943 26.2383 86.6094 26.6484 85.2422 26.9609C83.875 27.2734 82.5013 27.4297 81.1211 27.4297C79.1549 27.4297 77.4753 27.0521 76.082 26.2969C74.6888 25.5417 73.6276 24.4544 72.8984 23.0352C72.1693 21.6159 71.8047 19.9297 71.8047 17.9766C71.8047 16.1146 72.2018 14.4674 72.9961 13.0352C73.7904 11.6029 74.8906 10.4961 76.2969 9.71484C77.7031 8.92057 79.3112 8.52344 81.1211 8.52344ZM81.1211 11.3555C79.5195 11.3555 78.1914 11.7656 77.1367 12.5859C76.0951 13.3932 75.4115 14.5195 75.0859 15.9648H87.0195C86.7461 14.4674 86.1146 13.3281 85.125 12.5469C84.1484 11.7526 82.8138 11.3555 81.1211 11.3555ZM110.906 8.52344C111.922 8.52344 112.872 8.78385 113.758 9.30469C114.279 9.61719 114.539 10.0208 114.539 10.5156C114.539 10.75 114.48 11.0234 114.363 11.3359C114.09 12.0781 113.712 12.4492 113.23 12.4492C113.035 12.4492 112.853 12.3971 112.684 12.293C112.046 11.9414 111.362 11.7656 110.633 11.7656C109.461 11.7656 108.283 12.1758 107.098 12.9961C105.913 13.8034 104.936 14.8841 104.168 16.2383C103.413 17.5924 103.035 19.0312 103.035 20.5547V24.3438H109.617C110.06 24.3438 110.372 24.4479 110.555 24.6562C110.75 24.8516 110.848 25.1901 110.848 25.6719C110.848 26.1536 110.75 26.4987 110.555 26.707C110.372 26.9023 110.06 27 109.617 27H97.0391C96.5964 27 96.2773 26.9023 96.082 26.707C95.8997 26.4987 95.8086 26.1536 95.8086 25.6719C95.8086 25.1901 95.8997 24.8516 96.082 24.6562C96.2773 24.4479 96.5964 24.3438 97.0391 24.3438H100.105V11.6094H97.625C97.1823 11.6094 96.8633 11.5117 96.668 11.3164C96.4857 11.1081 96.3945 10.763 96.3945 10.2812C96.3945 9.79948 96.4857 9.46094 96.668 9.26562C96.8633 9.05729 97.1823 8.95312 97.625 8.95312H101.609C102.052 8.95312 102.365 9.05729 102.547 9.26562C102.742 9.46094 102.84 9.79948 102.84 10.2812V14.2266C103.465 13.0807 104.22 12.0781 105.105 11.2188C105.991 10.3594 106.935 9.69531 107.938 9.22656C108.94 8.75781 109.93 8.52344 110.906 8.52344ZM138.699 8.95312C139.142 8.95312 139.454 9.05729 139.637 9.26562C139.832 9.46094 139.93 9.79948 139.93 10.2812C139.93 10.763 139.832 11.1081 139.637 11.3164C139.454 11.5117 139.142 11.6094 138.699 11.6094H137.469L131.16 26.1602C130.978 26.6029 130.704 26.9219 130.34 27.1172C129.988 27.3255 129.493 27.4297 128.855 27.4297C128.23 27.4297 127.742 27.3255 127.391 27.1172C127.052 26.9219 126.785 26.6029 126.59 26.1602L120.34 11.6094H119.129C118.686 11.6094 118.367 11.5117 118.172 11.3164C117.99 11.1081 117.898 10.763 117.898 10.2812C117.898 9.79948 117.99 9.46094 118.172 9.26562C118.367 9.05729 118.686 8.95312 119.129 8.95312H126.043C126.486 8.95312 126.798 9.05729 126.98 9.26562C127.176 9.46094 127.273 9.79948 127.273 10.2812C127.273 10.763 127.176 11.1081 126.98 11.3164C126.798 11.5117 126.486 11.6094 126.043 11.6094H123.543L128.875 24.3438L134.266 11.6094H132.566C132.124 11.6094 131.805 11.5117 131.609 11.3164C131.427 11.1081 131.336 10.763 131.336 10.2812C131.336 9.79948 131.427 9.46094 131.609 9.26562C131.805 9.05729 132.124 8.95312 132.566 8.95312H138.699ZM153.602 8.95312C154.044 8.95312 154.357 9.05729 154.539 9.26562C154.734 9.46094 154.832 9.79948 154.832 10.2812V24.3438H161.102C161.544 24.3438 161.857 24.4479 162.039 24.6562C162.234 24.8516 162.332 25.1901 162.332 25.6719C162.332 26.1536 162.234 26.4987 162.039 26.707C161.857 26.9023 161.544 27 161.102 27H145.789C145.346 27 145.027 26.9023 144.832 26.707C144.65 26.4987 144.559 26.1536 144.559 25.6719C144.559 25.1901 144.65 24.8516 144.832 24.6562C145.027 24.4479 145.346 24.3438 145.789 24.3438H151.902V11.6094H146.961C146.518 11.6094 146.199 11.5117 146.004 11.3164C145.822 11.1081 145.73 10.763 145.73 10.2812C145.73 9.79948 145.822 9.46094 146.004 9.26562C146.199 9.05729 146.518 8.95312 146.961 8.95312H153.602ZM152.977 0.378906C153.693 0.378906 154.181 0.476562 154.441 0.671875C154.702 0.854167 154.832 1.17969 154.832 1.64844V4.1875C154.832 4.65625 154.702 4.98828 154.441 5.18359C154.181 5.36589 153.693 5.45703 152.977 5.45703C152.26 5.45703 151.772 5.36589 151.512 5.18359C151.251 4.98828 151.121 4.65625 151.121 4.1875V1.64844C151.121 1.17969 151.251 0.854167 151.512 0.671875C151.772 0.476562 152.26 0.378906 152.977 0.378906ZM177.059 8.52344C178.947 8.52344 180.555 8.90755 181.883 9.67578C183.224 10.431 184.253 11.4857 184.969 12.8398C185.685 14.181 186.095 15.7305 186.199 17.4883C186.199 17.931 186.102 18.2435 185.906 18.4258C185.724 18.6081 185.411 18.6992 184.969 18.6992H170.828C170.919 20.6393 171.492 22.1107 172.547 23.1133C173.615 24.1029 175.118 24.5977 177.059 24.5977C178.257 24.5977 179.441 24.4479 180.613 24.1484C181.785 23.8359 182.814 23.4258 183.699 22.918C183.921 22.8008 184.122 22.7422 184.305 22.7422C184.76 22.7422 185.132 23.0872 185.418 23.7773C185.535 24.0508 185.594 24.2982 185.594 24.5195C185.594 25.0404 185.307 25.444 184.734 25.7305C183.732 26.2383 182.547 26.6484 181.18 26.9609C179.812 27.2734 178.439 27.4297 177.059 27.4297C175.092 27.4297 173.413 27.0521 172.02 26.2969C170.626 25.5417 169.565 24.4544 168.836 23.0352C168.107 21.6159 167.742 19.9297 167.742 17.9766C167.742 16.1146 168.139 14.4674 168.934 13.0352C169.728 11.6029 170.828 10.4961 172.234 9.71484C173.641 8.92057 175.249 8.52344 177.059 8.52344ZM177.059 11.3555C175.457 11.3555 174.129 11.7656 173.074 12.5859C172.033 13.3932 171.349 14.5195 171.023 15.9648H182.957C182.684 14.4674 182.052 13.3281 181.062 12.5469C180.086 11.7526 178.751 11.3555 177.059 11.3555ZM211.824 8.95312C212.267 8.95312 212.579 9.05729 212.762 9.26562C212.957 9.46094 213.055 9.79948 213.055 10.2812C213.055 10.763 212.957 11.1081 212.762 11.3164C212.579 11.5117 212.267 11.6094 211.824 11.6094H211.355L207.508 26.1602C207.378 26.6289 207.182 26.9544 206.922 27.1367C206.674 27.332 206.303 27.4297 205.809 27.4297C205.249 27.4297 204.806 27.3255 204.48 27.1172C204.168 26.9219 203.934 26.6029 203.777 26.1602L200.789 17.6836L197.762 26.1602C197.605 26.6029 197.358 26.9219 197.02 27.1172C196.694 27.3255 196.251 27.4297 195.691 27.4297C195.197 27.4297 194.826 27.332 194.578 27.1367C194.331 26.9544 194.148 26.6289 194.031 26.1602L190.262 11.6094H189.91C189.467 11.6094 189.148 11.5117 188.953 11.3164C188.771 11.1081 188.68 10.763 188.68 10.2812C188.68 9.79948 188.771 9.46094 188.953 9.26562C189.148 9.05729 189.467 8.95312 189.91 8.95312H195.652C196.095 8.95312 196.408 9.05729 196.59 9.26562C196.785 9.46094 196.883 9.79948 196.883 10.2812C196.883 10.763 196.785 11.1081 196.59 11.3164C196.408 11.5117 196.095 11.6094 195.652 11.6094H193.25L196.062 22.9766L199.324 13.9141C199.415 13.6406 199.585 13.4193 199.832 13.25C200.079 13.0807 200.405 12.9961 200.809 12.9961C201.629 12.9961 202.13 13.2565 202.312 13.7773L205.555 22.9766L208.445 11.6094H206.473C206.03 11.6094 205.711 11.5117 205.516 11.3164C205.333 11.1081 205.242 10.763 205.242 10.2812C205.242 9.79948 205.333 9.46094 205.516 9.26562C205.711 9.05729 206.03 8.95312 206.473 8.95312H211.824ZM250.32 3.81641C252.052 3.81641 253.536 4.1224 254.773 4.73438C256.01 5.34635 256.948 6.21224 257.586 7.33203C258.237 8.45182 258.562 9.7474 258.562 11.2188C258.562 12.6901 258.237 13.9792 257.586 15.0859C256.948 16.1797 256.01 17.0326 254.773 17.6445C253.536 18.2435 252.052 18.543 250.32 18.543H245.73V24.3438H250.418C250.861 24.3438 251.173 24.4479 251.355 24.6562C251.551 24.8516 251.648 25.1901 251.648 25.6719C251.648 26.1536 251.551 26.4987 251.355 26.707C251.173 26.9023 250.861 27 250.418 27H239.637C239.194 27 238.875 26.9023 238.68 26.707C238.497 26.4987 238.406 26.1536 238.406 25.6719C238.406 25.1901 238.497 24.8516 238.68 24.6562C238.875 24.4479 239.194 24.3438 239.637 24.3438H242.801V6.47266H239.637C239.194 6.47266 238.875 6.375 238.68 6.17969C238.497 5.97135 238.406 5.6263 238.406 5.14453C238.406 4.66276 238.497 4.32422 238.68 4.12891C238.875 3.92057 239.194 3.81641 239.637 3.81641H250.32ZM245.73 15.8867H249.91C251.72 15.8867 253.1 15.4766 254.051 14.6562C255.001 13.8359 255.477 12.6901 255.477 11.2188C255.477 9.72135 254.995 8.55599 254.031 7.72266C253.081 6.88932 251.707 6.47266 249.91 6.47266H245.73V15.8867ZM278.797 8.52344C279.812 8.52344 280.763 8.78385 281.648 9.30469C282.169 9.61719 282.43 10.0208 282.43 10.5156C282.43 10.75 282.371 11.0234 282.254 11.3359C281.98 12.0781 281.603 12.4492 281.121 12.4492C280.926 12.4492 280.743 12.3971 280.574 12.293C279.936 11.9414 279.253 11.7656 278.523 11.7656C277.352 11.7656 276.173 12.1758 274.988 12.9961C273.803 13.8034 272.827 14.8841 272.059 16.2383C271.303 17.5924 270.926 19.0312 270.926 20.5547V24.3438H277.508C277.951 24.3438 278.263 24.4479 278.445 24.6562C278.641 24.8516 278.738 25.1901 278.738 25.6719C278.738 26.1536 278.641 26.4987 278.445 26.707C278.263 26.9023 277.951 27 277.508 27H264.93C264.487 27 264.168 26.9023 263.973 26.707C263.79 26.4987 263.699 26.1536 263.699 25.6719C263.699 25.1901 263.79 24.8516 263.973 24.6562C264.168 24.4479 264.487 24.3438 264.93 24.3438H267.996V11.6094H265.516C265.073 11.6094 264.754 11.5117 264.559 11.3164C264.376 11.1081 264.285 10.763 264.285 10.2812C264.285 9.79948 264.376 9.46094 264.559 9.26562C264.754 9.05729 265.073 8.95312 265.516 8.95312H269.5C269.943 8.95312 270.255 9.05729 270.438 9.26562C270.633 9.46094 270.73 9.79948 270.73 10.2812V14.2266C271.355 13.0807 272.111 12.0781 272.996 11.2188C273.882 10.3594 274.826 9.69531 275.828 9.22656C276.831 8.75781 277.82 8.52344 278.797 8.52344ZM296.98 8.52344C298.868 8.52344 300.477 8.90755 301.805 9.67578C303.146 10.431 304.174 11.4857 304.891 12.8398C305.607 14.181 306.017 15.7305 306.121 17.4883C306.121 17.931 306.023 18.2435 305.828 18.4258C305.646 18.6081 305.333 18.6992 304.891 18.6992H290.75C290.841 20.6393 291.414 22.1107 292.469 23.1133C293.536 24.1029 295.04 24.5977 296.98 24.5977C298.178 24.5977 299.363 24.4479 300.535 24.1484C301.707 23.8359 302.736 23.4258 303.621 22.918C303.842 22.8008 304.044 22.7422 304.227 22.7422C304.682 22.7422 305.053 23.0872 305.34 23.7773C305.457 24.0508 305.516 24.2982 305.516 24.5195C305.516 25.0404 305.229 25.444 304.656 25.7305C303.654 26.2383 302.469 26.6484 301.102 26.9609C299.734 27.2734 298.361 27.4297 296.98 27.4297C295.014 27.4297 293.335 27.0521 291.941 26.2969C290.548 25.5417 289.487 24.4544 288.758 23.0352C288.029 21.6159 287.664 19.9297 287.664 17.9766C287.664 16.1146 288.061 14.4674 288.855 13.0352C289.65 11.6029 290.75 10.4961 292.156 9.71484C293.562 8.92057 295.171 8.52344 296.98 8.52344ZM296.98 11.3555C295.379 11.3555 294.051 11.7656 292.996 12.5859C291.954 13.3932 291.271 14.5195 290.945 15.9648H302.879C302.605 14.4674 301.974 13.3281 300.984 12.5469C300.008 11.7526 298.673 11.3555 296.98 11.3555ZM321.863 8.52344C323.478 8.52344 324.923 8.90755 326.199 9.67578C327.475 10.431 328.478 11.5247 329.207 12.957C329.936 14.3763 330.301 16.0495 330.301 17.9766C330.301 19.9036 329.936 21.5833 329.207 23.0156C328.478 24.4349 327.475 25.5286 326.199 26.2969C324.923 27.0521 323.478 27.4297 321.863 27.4297C319.415 27.4297 317.352 26.3555 315.672 24.207V31.9219H319.031C319.474 31.9219 319.786 32.0195 319.969 32.2148C320.164 32.4232 320.262 32.7682 320.262 33.25C320.262 33.7318 320.164 34.0703 319.969 34.2656C319.786 34.474 319.474 34.5781 319.031 34.5781H310.75C310.307 34.5781 309.988 34.474 309.793 34.2656C309.611 34.0703 309.52 33.7318 309.52 33.25C309.52 32.7682 309.611 32.4232 309.793 32.2148C309.988 32.0195 310.307 31.9219 310.75 31.9219H312.742V11.6094H311.141C310.698 11.6094 310.379 11.5117 310.184 11.3164C310.001 11.1081 309.91 10.763 309.91 10.2812C309.91 9.79948 310.001 9.46094 310.184 9.26562C310.379 9.05729 310.698 8.95312 311.141 8.95312H314.246C314.689 8.95312 315.001 9.05729 315.184 9.26562C315.379 9.46094 315.477 9.79948 315.477 10.2812V11.8438C316.297 10.776 317.247 9.95573 318.328 9.38281C319.409 8.8099 320.587 8.52344 321.863 8.52344ZM321.668 11.4141C320.509 11.4141 319.474 11.6745 318.562 12.1953C317.664 12.7161 316.954 13.4714 316.434 14.4609C315.926 15.4505 315.672 16.6224 315.672 17.9766C315.672 19.3307 315.926 20.5026 316.434 21.4922C316.954 22.4818 317.664 23.237 318.562 23.7578C319.474 24.2786 320.509 24.5391 321.668 24.5391C322.827 24.5391 323.823 24.2656 324.656 23.7188C325.49 23.1589 326.121 22.3841 326.551 21.3945C326.993 20.4049 327.215 19.2656 327.215 17.9766C327.215 16.6875 326.993 15.5482 326.551 14.5586C326.121 13.569 325.49 12.8008 324.656 12.2539C323.823 11.694 322.827 11.4141 321.668 11.4141Z" fill="white"/>
</svg>
