<svg width="650" height="161" viewBox="0 0 650 161" fill="none" xmlns="http://www.w3.org/2000/svg">
<path d="M76.6834 133.259C71.6909 144.143 56.2258 144.143 51.2332 133.259L17.6683 60.0872C13.4143 50.8134 20.1905 40.25 30.3934 40.25L97.5232 40.25C107.726 40.25 114.502 50.8134 110.248 60.0872L76.6834 133.259Z" fill="#D9D9D9"/>
<path d="M82.89 109.607C82.89 130.958 74.1849 148.266 63.4467 148.266C52.7084 148.266 44.0033 130.958 44.0033 109.607C44.0033 88.257 52.7084 70.9492 63.4467 70.9492C74.1849 70.9492 82.89 88.257 82.89 109.607Z" fill="#7A87FF"/>
<path d="M73.3755 79.9462C68.571 86.0295 59.3456 86.0295 54.5411 79.9462L31.8962 51.2737C25.6815 43.4047 31.2862 31.8362 41.3134 31.8362L86.6033 31.8362C96.6304 31.8362 102.235 43.4047 96.0205 51.2737L73.3755 79.9462Z" fill="#8C83C2"/>
<path d="M69.8626 62.3348C66.6636 66.63 60.2297 66.63 57.0307 62.3348L34.8562 32.5625C30.9257 27.2853 34.6921 19.7839 41.2722 19.7839L85.6212 19.7839C92.2012 19.7839 95.9676 27.2853 92.0371 32.5625L69.8626 62.3348Z" fill="white"/>
<path d="M153.84 38.543C154.46 38.543 154.897 38.6888 155.152 38.9805C155.426 39.2539 155.562 39.7279 155.562 40.4023C155.562 41.0768 155.426 41.5599 155.152 41.8516C154.897 42.125 154.46 42.2617 153.84 42.2617H146.84V67.2812H154.387C155.007 67.2812 155.444 67.4271 155.699 67.7188C155.973 67.9922 156.109 68.4661 156.109 69.1406C156.109 69.8151 155.973 70.2982 155.699 70.5898C155.444 70.8633 155.007 71 154.387 71H135.191C134.572 71 134.125 70.8633 133.852 70.5898C133.596 70.2982 133.469 69.8151 133.469 69.1406C133.469 68.4661 133.596 67.9922 133.852 67.7188C134.125 67.4271 134.572 67.2812 135.191 67.2812H142.738V42.2617H135.738C135.118 42.2617 134.672 42.125 134.398 41.8516C134.143 41.5599 134.016 41.0768 134.016 40.4023C134.016 39.7279 134.143 39.2539 134.398 38.9805C134.672 38.6888 135.118 38.543 135.738 38.543H153.84ZM181.457 45.1328C183.116 45.1328 184.556 45.4974 185.777 46.2266C186.999 46.9375 187.938 47.9674 188.594 49.3164C189.25 50.6654 189.578 52.2422 189.578 54.0469V67.2812H191.82C192.44 67.2812 192.878 67.4271 193.133 67.7188C193.406 67.9922 193.543 68.4661 193.543 69.1406C193.543 69.8151 193.406 70.2982 193.133 70.5898C192.878 70.8633 192.44 71 191.82 71H182.961C182.341 71 181.895 70.8633 181.621 70.5898C181.366 70.2982 181.238 69.8151 181.238 69.1406C181.238 68.4661 181.366 67.9922 181.621 67.7188C181.895 67.4271 182.341 67.2812 182.961 67.2812H185.477V54.457C185.477 52.8346 185.103 51.5495 184.355 50.6016C183.608 49.6536 182.505 49.1797 181.047 49.1797C179.497 49.1797 178.048 49.6263 176.699 50.5195C175.368 51.4128 174.302 52.6432 173.5 54.2109C172.698 55.7786 172.297 57.5286 172.297 59.4609V67.2812H174.812C175.432 67.2812 175.87 67.4271 176.125 67.7188C176.398 67.9922 176.535 68.4661 176.535 69.1406C176.535 69.8151 176.398 70.2982 176.125 70.5898C175.87 70.8633 175.432 71 174.812 71H165.953C165.333 71 164.887 70.8633 164.613 70.5898C164.358 70.2982 164.23 69.8151 164.23 69.1406C164.23 68.4661 164.358 67.9922 164.613 67.7188C164.887 67.4271 165.333 67.2812 165.953 67.2812H168.195V49.4531H165.406C164.786 49.4531 164.34 49.3164 164.066 49.043C163.811 48.7513 163.684 48.2682 163.684 47.5938C163.684 46.9193 163.811 46.4453 164.066 46.1719C164.34 45.8802 164.786 45.7344 165.406 45.7344H170.301C170.921 45.7344 171.358 45.8802 171.613 46.1719C171.887 46.4453 172.023 46.9193 172.023 47.5938V50.875C173.227 49.0156 174.63 47.5938 176.234 46.6094C177.857 45.625 179.598 45.1328 181.457 45.1328ZM207.68 37.9414C208.427 37.9414 208.956 38.0781 209.266 38.3516C209.576 38.625 209.73 39.0807 209.73 39.7188V47.9219H220.969C221.589 47.9219 222.026 48.0677 222.281 48.3594C222.555 48.6328 222.691 49.1068 222.691 49.7812C222.691 50.4557 222.555 50.9388 222.281 51.2305C222.026 51.5039 221.589 51.6406 220.969 51.6406H209.73V61.5938C209.73 63.6719 210.086 65.194 210.797 66.1602C211.526 67.1263 212.784 67.6094 214.57 67.6094C215.792 67.6094 217.077 67.3633 218.426 66.8711C219.775 66.3789 221.078 65.7227 222.336 64.9023C222.591 64.7201 222.874 64.6289 223.184 64.6289C223.803 64.6289 224.332 65.0482 224.77 65.8867C225.007 66.3607 225.125 66.7708 225.125 67.1172C225.125 67.7005 224.824 68.1745 224.223 68.5391C222.801 69.4323 221.215 70.1706 219.465 70.7539C217.715 71.319 216.083 71.6016 214.57 71.6016C211.471 71.6016 209.202 70.7995 207.762 69.1953C206.34 67.5729 205.629 65.1576 205.629 61.9492V51.6406H200.078C199.458 51.6406 199.012 51.5039 198.738 51.2305C198.483 50.9388 198.355 50.4557 198.355 49.7812C198.355 49.1068 198.483 48.6328 198.738 48.3594C199.012 48.0677 199.458 47.9219 200.078 47.9219H205.629V39.7188C205.629 39.0807 205.784 38.625 206.094 38.3516C206.404 38.0781 206.932 37.9414 207.68 37.9414ZM245.77 45.1328C248.413 45.1328 250.664 45.6706 252.523 46.7461C254.401 47.8034 255.841 49.2799 256.844 51.1758C257.846 53.0534 258.421 55.2227 258.566 57.6836C258.566 58.3034 258.43 58.7409 258.156 58.9961C257.901 59.2513 257.464 59.3789 256.844 59.3789H237.047C237.174 62.0951 237.977 64.1549 239.453 65.5586C240.948 66.944 243.053 67.6367 245.77 67.6367C247.447 67.6367 249.105 67.4271 250.746 67.0078C252.387 66.5703 253.827 65.9961 255.066 65.2852C255.376 65.1211 255.659 65.0391 255.914 65.0391C256.552 65.0391 257.072 65.5221 257.473 66.4883C257.637 66.8711 257.719 67.2174 257.719 67.5273C257.719 68.2565 257.318 68.8216 256.516 69.2227C255.112 69.9336 253.453 70.5078 251.539 70.9453C249.625 71.3828 247.702 71.6016 245.77 71.6016C243.017 71.6016 240.665 71.0729 238.715 70.0156C236.764 68.9583 235.279 67.4362 234.258 65.4492C233.237 63.4622 232.727 61.1016 232.727 58.3672C232.727 55.7604 233.283 53.4544 234.395 51.4492C235.507 49.444 237.047 47.8945 239.016 46.8008C240.984 45.6888 243.236 45.1328 245.77 45.1328ZM245.77 49.0977C243.527 49.0977 241.668 49.6719 240.191 50.8203C238.733 51.9505 237.776 53.5273 237.32 55.5508H254.027C253.645 53.4544 252.76 51.8594 251.375 50.7656C250.008 49.6536 248.139 49.0977 245.77 49.0977ZM287.469 45.1328C288.891 45.1328 290.221 45.4974 291.461 46.2266C292.19 46.6641 292.555 47.2292 292.555 47.9219C292.555 48.25 292.473 48.6328 292.309 49.0703C291.926 50.1094 291.397 50.6289 290.723 50.6289C290.449 50.6289 290.194 50.556 289.957 50.4102C289.064 49.918 288.107 49.6719 287.086 49.6719C285.445 49.6719 283.796 50.2461 282.137 51.3945C280.478 52.5247 279.111 54.0378 278.035 55.9336C276.978 57.8294 276.449 59.8438 276.449 61.9766V67.2812H285.664C286.284 67.2812 286.721 67.4271 286.977 67.7188C287.25 67.9922 287.387 68.4661 287.387 69.1406C287.387 69.8151 287.25 70.2982 286.977 70.5898C286.721 70.8633 286.284 71 285.664 71H268.055C267.435 71 266.988 70.8633 266.715 70.5898C266.46 70.2982 266.332 69.8151 266.332 69.1406C266.332 68.4661 266.46 67.9922 266.715 67.7188C266.988 67.4271 267.435 67.2812 268.055 67.2812H272.348V49.4531H268.875C268.255 49.4531 267.809 49.3164 267.535 49.043C267.28 48.7513 267.152 48.2682 267.152 47.5938C267.152 46.9193 267.28 46.4453 267.535 46.1719C267.809 45.8802 268.255 45.7344 268.875 45.7344H274.453C275.073 45.7344 275.51 45.8802 275.766 46.1719C276.039 46.4453 276.176 46.9193 276.176 47.5938V53.1172C277.051 51.513 278.108 50.1094 279.348 48.9062C280.587 47.7031 281.909 46.7734 283.312 46.1172C284.716 45.4609 286.102 45.1328 287.469 45.1328ZM326.379 45.7344C326.999 45.7344 327.436 45.8802 327.691 46.1719C327.965 46.4453 328.102 46.9193 328.102 47.5938C328.102 48.2682 327.965 48.7513 327.691 49.043C327.436 49.3164 326.999 49.4531 326.379 49.4531H324.656L315.824 69.8242C315.569 70.444 315.186 70.8906 314.676 71.1641C314.184 71.4557 313.491 71.6016 312.598 71.6016C311.723 71.6016 311.039 71.4557 310.547 71.1641C310.073 70.8906 309.699 70.444 309.426 69.8242L300.676 49.4531H298.98C298.361 49.4531 297.914 49.3164 297.641 49.043C297.385 48.7513 297.258 48.2682 297.258 47.5938C297.258 46.9193 297.385 46.4453 297.641 46.1719C297.914 45.8802 298.361 45.7344 298.98 45.7344H308.66C309.28 45.7344 309.717 45.8802 309.973 46.1719C310.246 46.4453 310.383 46.9193 310.383 47.5938C310.383 48.2682 310.246 48.7513 309.973 49.043C309.717 49.3164 309.28 49.4531 308.66 49.4531H305.16L312.625 67.2812L320.172 49.4531H317.793C317.173 49.4531 316.727 49.3164 316.453 49.043C316.198 48.7513 316.07 48.2682 316.07 47.5938C316.07 46.9193 316.198 46.4453 316.453 46.1719C316.727 45.8802 317.173 45.7344 317.793 45.7344H326.379ZM347.242 45.7344C347.862 45.7344 348.299 45.8802 348.555 46.1719C348.828 46.4453 348.965 46.9193 348.965 47.5938V67.2812H357.742C358.362 67.2812 358.799 67.4271 359.055 67.7188C359.328 67.9922 359.465 68.4661 359.465 69.1406C359.465 69.8151 359.328 70.2982 359.055 70.5898C358.799 70.8633 358.362 71 357.742 71H336.305C335.685 71 335.238 70.8633 334.965 70.5898C334.71 70.2982 334.582 69.8151 334.582 69.1406C334.582 68.4661 334.71 67.9922 334.965 67.7188C335.238 67.4271 335.685 67.2812 336.305 67.2812H344.863V49.4531H337.945C337.326 49.4531 336.879 49.3164 336.605 49.043C336.35 48.7513 336.223 48.2682 336.223 47.5938C336.223 46.9193 336.35 46.4453 336.605 46.1719C336.879 45.8802 337.326 45.7344 337.945 45.7344H347.242ZM346.367 33.7305C347.37 33.7305 348.053 33.8672 348.418 34.1406C348.783 34.3958 348.965 34.8516 348.965 35.5078V39.0625C348.965 39.7188 348.783 40.1836 348.418 40.457C348.053 40.7122 347.37 40.8398 346.367 40.8398C345.365 40.8398 344.681 40.7122 344.316 40.457C343.952 40.1836 343.77 39.7188 343.77 39.0625V35.5078C343.77 34.8516 343.952 34.3958 344.316 34.1406C344.681 33.8672 345.365 33.7305 346.367 33.7305ZM380.082 45.1328C382.725 45.1328 384.977 45.6706 386.836 46.7461C388.714 47.8034 390.154 49.2799 391.156 51.1758C392.159 53.0534 392.733 55.2227 392.879 57.6836C392.879 58.3034 392.742 58.7409 392.469 58.9961C392.214 59.2513 391.776 59.3789 391.156 59.3789H371.359C371.487 62.0951 372.289 64.1549 373.766 65.5586C375.26 66.944 377.366 67.6367 380.082 67.6367C381.759 67.6367 383.418 67.4271 385.059 67.0078C386.699 66.5703 388.139 65.9961 389.379 65.2852C389.689 65.1211 389.971 65.0391 390.227 65.0391C390.865 65.0391 391.384 65.5221 391.785 66.4883C391.949 66.8711 392.031 67.2174 392.031 67.5273C392.031 68.2565 391.63 68.8216 390.828 69.2227C389.424 69.9336 387.766 70.5078 385.852 70.9453C383.938 71.3828 382.014 71.6016 380.082 71.6016C377.329 71.6016 374.978 71.0729 373.027 70.0156C371.077 68.9583 369.591 67.4362 368.57 65.4492C367.549 63.4622 367.039 61.1016 367.039 58.3672C367.039 55.7604 367.595 53.4544 368.707 51.4492C369.819 49.444 371.359 47.8945 373.328 46.8008C375.297 45.6888 377.548 45.1328 380.082 45.1328ZM380.082 49.0977C377.84 49.0977 375.98 49.6719 374.504 50.8203C373.046 51.9505 372.089 53.5273 371.633 55.5508H388.34C387.957 53.4544 387.073 51.8594 385.688 50.7656C384.32 49.6536 382.452 49.0977 380.082 49.0977ZM428.754 45.7344C429.374 45.7344 429.811 45.8802 430.066 46.1719C430.34 46.4453 430.477 46.9193 430.477 47.5938C430.477 48.2682 430.34 48.7513 430.066 49.043C429.811 49.3164 429.374 49.4531 428.754 49.4531H428.098L422.711 69.8242C422.529 70.4805 422.255 70.9362 421.891 71.1914C421.544 71.4648 421.025 71.6016 420.332 71.6016C419.548 71.6016 418.928 71.4557 418.473 71.1641C418.035 70.8906 417.707 70.444 417.488 69.8242L413.305 57.957L409.066 69.8242C408.848 70.444 408.501 70.8906 408.027 71.1641C407.572 71.4557 406.952 71.6016 406.168 71.6016C405.475 71.6016 404.956 71.4648 404.609 71.1914C404.263 70.9362 404.008 70.4805 403.844 69.8242L398.566 49.4531H398.074C397.454 49.4531 397.008 49.3164 396.734 49.043C396.479 48.7513 396.352 48.2682 396.352 47.5938C396.352 46.9193 396.479 46.4453 396.734 46.1719C397.008 45.8802 397.454 45.7344 398.074 45.7344H406.113C406.733 45.7344 407.171 45.8802 407.426 46.1719C407.699 46.4453 407.836 46.9193 407.836 47.5938C407.836 48.2682 407.699 48.7513 407.426 49.043C407.171 49.3164 406.733 49.4531 406.113 49.4531H402.75L406.688 65.3672L411.254 52.6797C411.382 52.2969 411.618 51.987 411.965 51.75C412.311 51.513 412.767 51.3945 413.332 51.3945C414.48 51.3945 415.182 51.7591 415.438 52.4883L419.977 65.3672L424.023 49.4531H421.262C420.642 49.4531 420.195 49.3164 419.922 49.043C419.667 48.7513 419.539 48.2682 419.539 47.5938C419.539 46.9193 419.667 46.4453 419.922 46.1719C420.195 45.8802 420.642 45.7344 421.262 45.7344H428.754ZM482.648 38.543C485.073 38.543 487.151 38.9714 488.883 39.8281C490.615 40.6849 491.927 41.8971 492.82 43.4648C493.732 45.0326 494.188 46.8464 494.188 48.9062C494.188 50.9661 493.732 52.7708 492.82 54.3203C491.927 55.8516 490.615 57.0456 488.883 57.9023C487.151 58.7409 485.073 59.1602 482.648 59.1602H476.223V67.2812H482.785C483.405 67.2812 483.842 67.4271 484.098 67.7188C484.371 67.9922 484.508 68.4661 484.508 69.1406C484.508 69.8151 484.371 70.2982 484.098 70.5898C483.842 70.8633 483.405 71 482.785 71H467.691C467.072 71 466.625 70.8633 466.352 70.5898C466.096 70.2982 465.969 69.8151 465.969 69.1406C465.969 68.4661 466.096 67.9922 466.352 67.7188C466.625 67.4271 467.072 67.2812 467.691 67.2812H472.121V42.2617H467.691C467.072 42.2617 466.625 42.125 466.352 41.8516C466.096 41.5599 465.969 41.0768 465.969 40.4023C465.969 39.7279 466.096 39.2539 466.352 38.9805C466.625 38.6888 467.072 38.543 467.691 38.543H482.648ZM476.223 55.4414H482.074C484.608 55.4414 486.54 54.8672 487.871 53.7188C489.202 52.5703 489.867 50.9661 489.867 48.9062C489.867 46.8099 489.193 45.1784 487.844 44.0117C486.513 42.8451 484.59 42.2617 482.074 42.2617H476.223V55.4414ZM522.516 45.1328C523.938 45.1328 525.268 45.4974 526.508 46.2266C527.237 46.6641 527.602 47.2292 527.602 47.9219C527.602 48.25 527.52 48.6328 527.355 49.0703C526.973 50.1094 526.444 50.6289 525.77 50.6289C525.496 50.6289 525.241 50.556 525.004 50.4102C524.111 49.918 523.154 49.6719 522.133 49.6719C520.492 49.6719 518.842 50.2461 517.184 51.3945C515.525 52.5247 514.158 54.0378 513.082 55.9336C512.025 57.8294 511.496 59.8438 511.496 61.9766V67.2812H520.711C521.331 67.2812 521.768 67.4271 522.023 67.7188C522.297 67.9922 522.434 68.4661 522.434 69.1406C522.434 69.8151 522.297 70.2982 522.023 70.5898C521.768 70.8633 521.331 71 520.711 71H503.102C502.482 71 502.035 70.8633 501.762 70.5898C501.507 70.2982 501.379 69.8151 501.379 69.1406C501.379 68.4661 501.507 67.9922 501.762 67.7188C502.035 67.4271 502.482 67.2812 503.102 67.2812H507.395V49.4531H503.922C503.302 49.4531 502.855 49.3164 502.582 49.043C502.327 48.7513 502.199 48.2682 502.199 47.5938C502.199 46.9193 502.327 46.4453 502.582 46.1719C502.855 45.8802 503.302 45.7344 503.922 45.7344H509.5C510.12 45.7344 510.557 45.8802 510.812 46.1719C511.086 46.4453 511.223 46.9193 511.223 47.5938V53.1172C512.098 51.513 513.155 50.1094 514.395 48.9062C515.634 47.7031 516.956 46.7734 518.359 46.1172C519.763 45.4609 521.148 45.1328 522.516 45.1328ZM547.973 45.1328C550.616 45.1328 552.867 45.6706 554.727 46.7461C556.604 47.8034 558.044 49.2799 559.047 51.1758C560.049 53.0534 560.624 55.2227 560.77 57.6836C560.77 58.3034 560.633 58.7409 560.359 58.9961C560.104 59.2513 559.667 59.3789 559.047 59.3789H539.25C539.378 62.0951 540.18 64.1549 541.656 65.5586C543.151 66.944 545.257 67.6367 547.973 67.6367C549.65 67.6367 551.309 67.4271 552.949 67.0078C554.59 66.5703 556.03 65.9961 557.27 65.2852C557.579 65.1211 557.862 65.0391 558.117 65.0391C558.755 65.0391 559.275 65.5221 559.676 66.4883C559.84 66.8711 559.922 67.2174 559.922 67.5273C559.922 68.2565 559.521 68.8216 558.719 69.2227C557.315 69.9336 555.656 70.5078 553.742 70.9453C551.828 71.3828 549.905 71.6016 547.973 71.6016C545.22 71.6016 542.868 71.0729 540.918 70.0156C538.967 68.9583 537.482 67.4362 536.461 65.4492C535.44 63.4622 534.93 61.1016 534.93 58.3672C534.93 55.7604 535.486 53.4544 536.598 51.4492C537.71 49.444 539.25 47.8945 541.219 46.8008C543.188 45.6888 545.439 45.1328 547.973 45.1328ZM547.973 49.0977C545.73 49.0977 543.871 49.6719 542.395 50.8203C540.936 51.9505 539.979 53.5273 539.523 55.5508H556.23C555.848 53.4544 554.964 51.8594 553.578 50.7656C552.211 49.6536 550.342 49.0977 547.973 49.0977ZM582.809 45.1328C585.069 45.1328 587.092 45.6706 588.879 46.7461C590.665 47.8034 592.069 49.3346 593.09 51.3398C594.111 53.3268 594.621 55.6693 594.621 58.3672C594.621 61.0651 594.111 63.4167 593.09 65.4219C592.069 67.4089 590.665 68.9401 588.879 70.0156C587.092 71.0729 585.069 71.6016 582.809 71.6016C579.382 71.6016 576.492 70.0977 574.141 67.0898V77.8906H578.844C579.464 77.8906 579.901 78.0273 580.156 78.3008C580.43 78.5924 580.566 79.0755 580.566 79.75C580.566 80.4245 580.43 80.8984 580.156 81.1719C579.901 81.4635 579.464 81.6094 578.844 81.6094H567.25C566.63 81.6094 566.184 81.4635 565.91 81.1719C565.655 80.8984 565.527 80.4245 565.527 79.75C565.527 79.0755 565.655 78.5924 565.91 78.3008C566.184 78.0273 566.63 77.8906 567.25 77.8906H570.039V49.4531H567.797C567.177 49.4531 566.73 49.3164 566.457 49.043C566.202 48.7513 566.074 48.2682 566.074 47.5938C566.074 46.9193 566.202 46.4453 566.457 46.1719C566.73 45.8802 567.177 45.7344 567.797 45.7344H572.145C572.764 45.7344 573.202 45.8802 573.457 46.1719C573.73 46.4453 573.867 46.9193 573.867 47.5938V49.7812C575.016 48.2865 576.346 47.138 577.859 46.3359C579.372 45.5339 581.022 45.1328 582.809 45.1328ZM582.535 49.1797C580.913 49.1797 579.464 49.5443 578.188 50.2734C576.93 51.0026 575.936 52.0599 575.207 53.4453C574.496 54.8307 574.141 56.4714 574.141 58.3672C574.141 60.263 574.496 61.9036 575.207 63.2891C575.936 64.6745 576.93 65.7318 578.188 66.4609C579.464 67.1901 580.913 67.5547 582.535 67.5547C584.158 67.5547 585.552 67.1719 586.719 66.4062C587.885 65.6224 588.77 64.5378 589.371 63.1523C589.991 61.7669 590.301 60.1719 590.301 58.3672C590.301 56.5625 589.991 54.9674 589.371 53.582C588.77 52.1966 587.885 51.1211 586.719 50.3555C585.552 49.5716 584.158 49.1797 582.535 49.1797Z" fill="#0E0909"/>
<path d="M164.35 99.748C164.83 99.748 165.17 99.8359 165.369 100.012C165.568 100.188 165.668 100.48 165.668 100.891V105.988C165.668 106.398 165.568 106.691 165.369 106.867C165.17 107.043 164.83 107.131 164.35 107.131C163.869 107.131 163.529 107.043 163.33 106.867C163.131 106.691 163.031 106.398 163.031 105.988C163.031 105.285 162.838 104.658 162.451 104.107C162.076 103.557 161.52 103.129 160.781 102.824C160.043 102.508 159.164 102.35 158.145 102.35C156.844 102.35 155.689 102.684 154.682 103.352C153.686 104.02 152.906 104.975 152.344 106.217C151.781 107.459 151.5 108.912 151.5 110.576C151.5 112.24 151.764 113.693 152.291 114.936C152.83 116.166 153.586 117.115 154.559 117.783C155.543 118.451 156.68 118.785 157.969 118.785C160.02 118.785 161.771 118.451 163.225 117.783V113.793H158.883C158.484 113.793 158.197 113.705 158.021 113.529C157.857 113.342 157.775 113.031 157.775 112.598C157.775 112.164 157.857 111.859 158.021 111.684C158.197 111.496 158.484 111.402 158.883 111.402H166.424C166.822 111.402 167.104 111.496 167.268 111.684C167.443 111.859 167.531 112.164 167.531 112.598C167.531 113.031 167.443 113.342 167.268 113.529C167.104 113.705 166.822 113.793 166.424 113.793H165.861V118.486C165.861 119.061 165.65 119.465 165.229 119.699C164.268 120.25 163.16 120.672 161.906 120.965C160.652 121.246 159.34 121.387 157.969 121.387C156.141 121.387 154.523 120.941 153.117 120.051C151.723 119.148 150.639 117.883 149.865 116.254C149.104 114.613 148.723 112.721 148.723 110.576C148.723 108.443 149.115 106.557 149.9 104.916C150.697 103.275 151.793 102.004 153.188 101.102C154.594 100.199 156.188 99.748 157.969 99.748C159.07 99.748 160.043 99.9238 160.887 100.275C161.742 100.615 162.457 101.107 163.031 101.752V100.891C163.031 100.48 163.131 100.188 163.33 100.012C163.529 99.8359 163.869 99.748 164.35 99.748ZM179.537 104.371C181.236 104.371 182.684 104.717 183.879 105.408C185.086 106.088 186.012 107.037 186.656 108.256C187.301 109.463 187.67 110.857 187.764 112.439C187.764 112.838 187.676 113.119 187.5 113.283C187.336 113.447 187.055 113.529 186.656 113.529H173.93C174.012 115.275 174.527 116.6 175.477 117.502C176.438 118.393 177.791 118.838 179.537 118.838C180.615 118.838 181.682 118.703 182.736 118.434C183.791 118.152 184.717 117.783 185.514 117.326C185.713 117.221 185.895 117.168 186.059 117.168C186.469 117.168 186.803 117.479 187.061 118.1C187.166 118.346 187.219 118.568 187.219 118.768C187.219 119.236 186.961 119.6 186.445 119.857C185.543 120.314 184.477 120.684 183.246 120.965C182.016 121.246 180.779 121.387 179.537 121.387C177.768 121.387 176.256 121.047 175.002 120.367C173.748 119.688 172.793 118.709 172.137 117.432C171.48 116.154 171.152 114.637 171.152 112.879C171.152 111.203 171.51 109.721 172.225 108.432C172.939 107.143 173.93 106.146 175.195 105.443C176.461 104.729 177.908 104.371 179.537 104.371ZM179.537 106.92C178.096 106.92 176.9 107.289 175.951 108.027C175.014 108.754 174.398 109.768 174.105 111.068H184.846C184.6 109.721 184.031 108.695 183.141 107.992C182.262 107.277 181.061 106.92 179.537 106.92ZM198.223 99.748C198.703 99.748 199.043 99.8359 199.242 100.012C199.441 100.188 199.541 100.48 199.541 100.891V106.164H206.766C207.164 106.164 207.445 106.258 207.609 106.445C207.785 106.621 207.873 106.926 207.873 107.359C207.873 107.793 207.785 108.104 207.609 108.291C207.445 108.467 207.164 108.555 206.766 108.555H199.541V114.953C199.541 116.289 199.77 117.268 200.227 117.889C200.695 118.51 201.504 118.82 202.652 118.82C203.438 118.82 204.264 118.662 205.131 118.346C205.998 118.029 206.836 117.607 207.645 117.08C207.809 116.963 207.99 116.904 208.189 116.904C208.588 116.904 208.928 117.174 209.209 117.713C209.361 118.018 209.438 118.281 209.438 118.504C209.438 118.879 209.244 119.184 208.857 119.418C207.943 119.992 206.924 120.467 205.799 120.842C204.674 121.205 203.625 121.387 202.652 121.387C200.66 121.387 199.201 120.871 198.275 119.84C197.361 118.797 196.904 117.244 196.904 115.182V108.555H193.336C192.938 108.555 192.65 108.467 192.475 108.291C192.311 108.104 192.229 107.793 192.229 107.359C192.229 106.926 192.311 106.621 192.475 106.445C192.65 106.258 192.938 106.164 193.336 106.164H196.904V100.891C196.904 100.48 197.004 100.188 197.203 100.012C197.402 99.8359 197.742 99.748 198.223 99.748ZM241.395 99.748C241.875 99.748 242.215 99.8359 242.414 100.012C242.613 100.188 242.713 100.48 242.713 100.891V106.164H249.938C250.336 106.164 250.617 106.258 250.781 106.445C250.957 106.621 251.045 106.926 251.045 107.359C251.045 107.793 250.957 108.104 250.781 108.291C250.617 108.467 250.336 108.555 249.938 108.555H242.713V114.953C242.713 116.289 242.941 117.268 243.398 117.889C243.867 118.51 244.676 118.82 245.824 118.82C246.609 118.82 247.436 118.662 248.303 118.346C249.17 118.029 250.008 117.607 250.816 117.08C250.98 116.963 251.162 116.904 251.361 116.904C251.76 116.904 252.1 117.174 252.381 117.713C252.533 118.018 252.609 118.281 252.609 118.504C252.609 118.879 252.416 119.184 252.029 119.418C251.115 119.992 250.096 120.467 248.971 120.842C247.846 121.205 246.797 121.387 245.824 121.387C243.832 121.387 242.373 120.871 241.447 119.84C240.533 118.797 240.076 117.244 240.076 115.182V108.555H236.508C236.109 108.555 235.822 108.467 235.646 108.291C235.482 108.104 235.4 107.793 235.4 107.359C235.4 106.926 235.482 106.621 235.646 106.445C235.822 106.258 236.109 106.164 236.508 106.164H240.076V100.891C240.076 100.48 240.176 100.188 240.375 100.012C240.574 99.8359 240.914 99.748 241.395 99.748ZM260.537 97.9375C260.936 97.9375 261.217 98.0312 261.381 98.2188C261.557 98.3945 261.645 98.6992 261.645 99.1328V107.887C262.406 106.75 263.285 105.883 264.281 105.285C265.289 104.676 266.373 104.371 267.533 104.371C268.6 104.371 269.525 104.605 270.311 105.074C271.096 105.531 271.699 106.193 272.121 107.061C272.543 107.928 272.754 108.941 272.754 110.102V118.609H274.195C274.594 118.609 274.875 118.703 275.039 118.891C275.215 119.066 275.303 119.371 275.303 119.805C275.303 120.238 275.215 120.549 275.039 120.736C274.875 120.912 274.594 121 274.195 121H268.5C268.102 121 267.814 120.912 267.639 120.736C267.475 120.549 267.393 120.238 267.393 119.805C267.393 119.371 267.475 119.066 267.639 118.891C267.814 118.703 268.102 118.609 268.5 118.609H270.117V110.365C270.117 109.322 269.877 108.496 269.396 107.887C268.916 107.277 268.207 106.973 267.27 106.973C266.273 106.973 265.342 107.26 264.475 107.834C263.619 108.408 262.934 109.199 262.418 110.207C261.902 111.215 261.645 112.34 261.645 113.582V118.609H263.262C263.66 118.609 263.941 118.703 264.105 118.891C264.281 119.066 264.369 119.371 264.369 119.805C264.369 120.238 264.281 120.549 264.105 120.736C263.941 120.912 263.66 121 263.262 121H257.566C257.168 121 256.881 120.912 256.705 120.736C256.541 120.549 256.459 120.238 256.459 119.805C256.459 119.371 256.541 119.066 256.705 118.891C256.881 118.703 257.168 118.609 257.566 118.609H259.008V100.328H257.391C256.992 100.328 256.705 100.24 256.529 100.064C256.365 99.877 256.283 99.5664 256.283 99.1328C256.283 98.6992 256.365 98.3945 256.529 98.2188C256.705 98.0312 256.992 97.9375 257.391 97.9375H260.537ZM287.467 104.371C289.166 104.371 290.613 104.717 291.809 105.408C293.016 106.088 293.941 107.037 294.586 108.256C295.23 109.463 295.6 110.857 295.693 112.439C295.693 112.838 295.605 113.119 295.43 113.283C295.266 113.447 294.984 113.529 294.586 113.529H281.859C281.941 115.275 282.457 116.6 283.406 117.502C284.367 118.393 285.721 118.838 287.467 118.838C288.545 118.838 289.611 118.703 290.666 118.434C291.721 118.152 292.646 117.783 293.443 117.326C293.643 117.221 293.824 117.168 293.988 117.168C294.398 117.168 294.732 117.479 294.99 118.1C295.096 118.346 295.148 118.568 295.148 118.768C295.148 119.236 294.891 119.6 294.375 119.857C293.473 120.314 292.406 120.684 291.176 120.965C289.945 121.246 288.709 121.387 287.467 121.387C285.697 121.387 284.186 121.047 282.932 120.367C281.678 119.688 280.723 118.709 280.066 117.432C279.41 116.154 279.082 114.637 279.082 112.879C279.082 111.203 279.439 109.721 280.154 108.432C280.869 107.143 281.859 106.146 283.125 105.443C284.391 104.729 285.838 104.371 287.467 104.371ZM287.467 106.92C286.025 106.92 284.83 107.289 283.881 108.027C282.943 108.754 282.328 109.768 282.035 111.068H292.775C292.529 109.721 291.961 108.695 291.07 107.992C290.191 107.277 288.99 106.92 287.467 106.92ZM319.037 118.609C319.436 118.609 319.717 118.703 319.881 118.891C320.057 119.066 320.145 119.371 320.145 119.805C320.145 120.238 320.057 120.549 319.881 120.736C319.717 120.912 319.436 121 319.037 121H316.418C316.02 121 315.732 120.912 315.557 120.736C315.393 120.549 315.311 120.238 315.311 119.805V109.398C315.311 108.59 315.176 107.986 314.906 107.588C314.648 107.178 314.227 106.973 313.641 106.973C313.09 106.973 312.58 107.23 312.111 107.746C311.643 108.25 311.268 108.959 310.986 109.873C310.717 110.775 310.582 111.807 310.582 112.967V118.609H311.584C311.982 118.609 312.264 118.703 312.428 118.891C312.604 119.066 312.691 119.371 312.691 119.805C312.691 120.238 312.604 120.549 312.428 120.736C312.264 120.912 311.982 121 311.584 121H309.053C308.654 121 308.367 120.912 308.191 120.736C308.027 120.549 307.945 120.238 307.945 119.805V109.398C307.945 108.59 307.811 107.986 307.541 107.588C307.283 107.178 306.861 106.973 306.275 106.973C305.725 106.973 305.215 107.23 304.746 107.746C304.277 108.25 303.902 108.959 303.621 109.873C303.352 110.775 303.217 111.807 303.217 112.967V118.609H304.131C304.529 118.609 304.811 118.703 304.975 118.891C305.15 119.066 305.238 119.371 305.238 119.805C305.238 120.238 305.15 120.549 304.975 120.736C304.811 120.912 304.529 121 304.131 121H299.139C298.74 121 298.453 120.912 298.277 120.736C298.113 120.549 298.031 120.238 298.031 119.805C298.031 119.371 298.113 119.066 298.277 118.891C298.453 118.703 298.74 118.609 299.139 118.609H300.58V107.148H299.139C298.74 107.148 298.453 107.061 298.277 106.885C298.113 106.697 298.031 106.387 298.031 105.953C298.031 105.52 298.113 105.215 298.277 105.039C298.453 104.852 298.74 104.758 299.139 104.758H301.758C302.156 104.758 302.438 104.852 302.602 105.039C302.777 105.215 302.865 105.52 302.865 105.953V107.693C303.369 106.592 303.973 105.766 304.676 105.215C305.379 104.652 306.141 104.371 306.961 104.371C307.758 104.371 308.455 104.641 309.053 105.18C309.65 105.719 310.055 106.51 310.266 107.553C311.309 105.432 312.656 104.371 314.309 104.371C315 104.371 315.615 104.547 316.154 104.898C316.705 105.238 317.139 105.766 317.455 106.48C317.783 107.184 317.947 108.051 317.947 109.082V118.609H319.037ZM352.699 104.758C353.098 104.758 353.379 104.852 353.543 105.039C353.719 105.215 353.807 105.52 353.807 105.953V118.609H359.449C359.848 118.609 360.129 118.703 360.293 118.891C360.469 119.066 360.557 119.371 360.557 119.805C360.557 120.238 360.469 120.549 360.293 120.736C360.129 120.912 359.848 121 359.449 121H345.668C345.27 121 344.982 120.912 344.807 120.736C344.643 120.549 344.561 120.238 344.561 119.805C344.561 119.371 344.643 119.066 344.807 118.891C344.982 118.703 345.27 118.609 345.668 118.609H351.17V107.148H346.723C346.324 107.148 346.037 107.061 345.861 106.885C345.697 106.697 345.615 106.387 345.615 105.953C345.615 105.52 345.697 105.215 345.861 105.039C346.037 104.852 346.324 104.758 346.723 104.758H352.699ZM352.137 97.041C352.781 97.041 353.221 97.1289 353.455 97.3047C353.689 97.4688 353.807 97.7617 353.807 98.1836V100.469C353.807 100.891 353.689 101.189 353.455 101.365C353.221 101.529 352.781 101.611 352.137 101.611C351.492 101.611 351.053 101.529 350.818 101.365C350.584 101.189 350.467 100.891 350.467 100.469V98.1836C350.467 97.7617 350.584 97.4688 350.818 97.3047C351.053 97.1289 351.492 97.041 352.137 97.041ZM375.639 104.371C376.705 104.371 377.631 104.605 378.416 105.074C379.201 105.531 379.805 106.193 380.227 107.061C380.648 107.928 380.859 108.941 380.859 110.102V118.609H382.301C382.699 118.609 382.98 118.703 383.145 118.891C383.32 119.066 383.408 119.371 383.408 119.805C383.408 120.238 383.32 120.549 383.145 120.736C382.98 120.912 382.699 121 382.301 121H376.605C376.207 121 375.92 120.912 375.744 120.736C375.58 120.549 375.498 120.238 375.498 119.805C375.498 119.371 375.58 119.066 375.744 118.891C375.92 118.703 376.207 118.609 376.605 118.609H378.223V110.365C378.223 109.322 377.982 108.496 377.502 107.887C377.021 107.277 376.312 106.973 375.375 106.973C374.379 106.973 373.447 107.26 372.58 107.834C371.725 108.408 371.039 109.199 370.523 110.207C370.008 111.215 369.75 112.34 369.75 113.582V118.609H371.367C371.766 118.609 372.047 118.703 372.211 118.891C372.387 119.066 372.475 119.371 372.475 119.805C372.475 120.238 372.387 120.549 372.211 120.736C372.047 120.912 371.766 121 371.367 121H365.672C365.273 121 364.986 120.912 364.811 120.736C364.646 120.549 364.564 120.238 364.564 119.805C364.564 119.371 364.646 119.066 364.811 118.891C364.986 118.703 365.273 118.609 365.672 118.609H367.113V107.148H365.32C364.922 107.148 364.635 107.061 364.459 106.885C364.295 106.697 364.213 106.387 364.213 105.953C364.213 105.52 364.295 105.215 364.459 105.039C364.635 104.852 364.922 104.758 365.32 104.758H368.467C368.865 104.758 369.146 104.852 369.311 105.039C369.486 105.215 369.574 105.52 369.574 105.953V108.062C370.348 106.867 371.25 105.953 372.281 105.32C373.324 104.688 374.443 104.371 375.639 104.371ZM392.496 99.748C392.977 99.748 393.316 99.8359 393.516 100.012C393.715 100.188 393.814 100.48 393.814 100.891V106.164H401.039C401.438 106.164 401.719 106.258 401.883 106.445C402.059 106.621 402.146 106.926 402.146 107.359C402.146 107.793 402.059 108.104 401.883 108.291C401.719 108.467 401.438 108.555 401.039 108.555H393.814V114.953C393.814 116.289 394.043 117.268 394.5 117.889C394.969 118.51 395.777 118.82 396.926 118.82C397.711 118.82 398.537 118.662 399.404 118.346C400.271 118.029 401.109 117.607 401.918 117.08C402.082 116.963 402.264 116.904 402.463 116.904C402.861 116.904 403.201 117.174 403.482 117.713C403.635 118.018 403.711 118.281 403.711 118.504C403.711 118.879 403.518 119.184 403.131 119.418C402.217 119.992 401.197 120.467 400.072 120.842C398.947 121.205 397.898 121.387 396.926 121.387C394.934 121.387 393.475 120.871 392.549 119.84C391.635 118.797 391.178 117.244 391.178 115.182V108.555H387.609C387.211 108.555 386.924 108.467 386.748 108.291C386.584 108.104 386.502 107.793 386.502 107.359C386.502 106.926 386.584 106.621 386.748 106.445C386.924 106.258 387.211 106.164 387.609 106.164H391.178V100.891C391.178 100.48 391.277 100.188 391.477 100.012C391.676 99.8359 392.016 99.748 392.496 99.748ZM416.982 104.371C418.682 104.371 420.129 104.717 421.324 105.408C422.531 106.088 423.457 107.037 424.102 108.256C424.746 109.463 425.115 110.857 425.209 112.439C425.209 112.838 425.121 113.119 424.945 113.283C424.781 113.447 424.5 113.529 424.102 113.529H411.375C411.457 115.275 411.973 116.6 412.922 117.502C413.883 118.393 415.236 118.838 416.982 118.838C418.061 118.838 419.127 118.703 420.182 118.434C421.236 118.152 422.162 117.783 422.959 117.326C423.158 117.221 423.34 117.168 423.504 117.168C423.914 117.168 424.248 117.479 424.506 118.1C424.611 118.346 424.664 118.568 424.664 118.768C424.664 119.236 424.406 119.6 423.891 119.857C422.988 120.314 421.922 120.684 420.691 120.965C419.461 121.246 418.225 121.387 416.982 121.387C415.213 121.387 413.701 121.047 412.447 120.367C411.193 119.688 410.238 118.709 409.582 117.432C408.926 116.154 408.598 114.637 408.598 112.879C408.598 111.203 408.955 109.721 409.67 108.432C410.385 107.143 411.375 106.146 412.641 105.443C413.906 104.729 415.354 104.371 416.982 104.371ZM416.982 106.92C415.541 106.92 414.346 107.289 413.396 108.027C412.459 108.754 411.844 109.768 411.551 111.068H422.291C422.045 109.721 421.477 108.695 420.586 107.992C419.707 107.277 418.506 106.92 416.982 106.92ZM443.789 104.371C444.703 104.371 445.559 104.605 446.355 105.074C446.824 105.355 447.059 105.719 447.059 106.164C447.059 106.375 447.006 106.621 446.9 106.902C446.654 107.57 446.314 107.904 445.881 107.904C445.705 107.904 445.541 107.857 445.389 107.764C444.814 107.447 444.199 107.289 443.543 107.289C442.488 107.289 441.428 107.658 440.361 108.396C439.295 109.123 438.416 110.096 437.725 111.314C437.045 112.533 436.705 113.828 436.705 115.199V118.609H442.629C443.027 118.609 443.309 118.703 443.473 118.891C443.648 119.066 443.736 119.371 443.736 119.805C443.736 120.238 443.648 120.549 443.473 120.736C443.309 120.912 443.027 121 442.629 121H431.309C430.91 121 430.623 120.912 430.447 120.736C430.283 120.549 430.201 120.238 430.201 119.805C430.201 119.371 430.283 119.066 430.447 118.891C430.623 118.703 430.91 118.609 431.309 118.609H434.068V107.148H431.836C431.438 107.148 431.15 107.061 430.975 106.885C430.811 106.697 430.729 106.387 430.729 105.953C430.729 105.52 430.811 105.215 430.975 105.039C431.15 104.852 431.438 104.758 431.836 104.758H435.422C435.82 104.758 436.102 104.852 436.266 105.039C436.441 105.215 436.529 105.52 436.529 105.953V109.504C437.092 108.473 437.771 107.57 438.568 106.797C439.365 106.023 440.215 105.426 441.117 105.004C442.02 104.582 442.91 104.371 443.789 104.371ZM461.982 104.371C463.049 104.371 463.975 104.605 464.76 105.074C465.545 105.531 466.148 106.193 466.57 107.061C466.992 107.928 467.203 108.941 467.203 110.102V118.609H468.645C469.043 118.609 469.324 118.703 469.488 118.891C469.664 119.066 469.752 119.371 469.752 119.805C469.752 120.238 469.664 120.549 469.488 120.736C469.324 120.912 469.043 121 468.645 121H462.949C462.551 121 462.264 120.912 462.088 120.736C461.924 120.549 461.842 120.238 461.842 119.805C461.842 119.371 461.924 119.066 462.088 118.891C462.264 118.703 462.551 118.609 462.949 118.609H464.566V110.365C464.566 109.322 464.326 108.496 463.846 107.887C463.365 107.277 462.656 106.973 461.719 106.973C460.723 106.973 459.791 107.26 458.924 107.834C458.068 108.408 457.383 109.199 456.867 110.207C456.352 111.215 456.094 112.34 456.094 113.582V118.609H457.711C458.109 118.609 458.391 118.703 458.555 118.891C458.73 119.066 458.818 119.371 458.818 119.805C458.818 120.238 458.73 120.549 458.555 120.736C458.391 120.912 458.109 121 457.711 121H452.016C451.617 121 451.33 120.912 451.154 120.736C450.99 120.549 450.908 120.238 450.908 119.805C450.908 119.371 450.99 119.066 451.154 118.891C451.33 118.703 451.617 118.609 452.016 118.609H453.457V107.148H451.664C451.266 107.148 450.979 107.061 450.803 106.885C450.639 106.697 450.557 106.387 450.557 105.953C450.557 105.52 450.639 105.215 450.803 105.039C450.979 104.852 451.266 104.758 451.664 104.758H454.811C455.209 104.758 455.49 104.852 455.654 105.039C455.83 105.215 455.918 105.52 455.918 105.953V108.062C456.691 106.867 457.594 105.953 458.625 105.32C459.668 104.688 460.787 104.371 461.982 104.371ZM487.119 104.371C487.6 104.371 487.939 104.459 488.139 104.635C488.338 104.811 488.438 105.104 488.438 105.514V108.854C488.438 109.264 488.338 109.557 488.139 109.732C487.939 109.908 487.6 109.996 487.119 109.996C486.721 109.996 486.439 109.844 486.275 109.539C485.771 108.578 485.039 107.904 484.078 107.518C483.117 107.119 481.898 106.92 480.422 106.92C479.285 106.92 478.395 107.125 477.75 107.535C477.117 107.934 476.801 108.496 476.801 109.223C476.801 109.598 476.918 109.902 477.152 110.137C477.398 110.371 477.756 110.564 478.225 110.717C478.611 110.846 479.057 110.945 479.561 111.016C480.076 111.086 480.738 111.162 481.547 111.244C482.684 111.373 483.598 111.496 484.289 111.613C484.992 111.719 485.654 111.883 486.275 112.105C487.213 112.445 487.939 112.938 488.455 113.582C488.982 114.227 489.246 115.076 489.246 116.131C489.246 117.186 488.977 118.111 488.438 118.908C487.91 119.693 487.131 120.303 486.1 120.736C485.08 121.17 483.855 121.387 482.426 121.387C481.16 121.387 480.047 121.211 479.086 120.859C478.125 120.508 477.287 119.975 476.572 119.26V120.244C476.572 120.654 476.473 120.947 476.273 121.123C476.074 121.299 475.734 121.387 475.254 121.387C474.773 121.387 474.434 121.299 474.234 121.123C474.035 120.947 473.936 120.654 473.936 120.244V116.025C473.936 115.615 474.035 115.322 474.234 115.146C474.434 114.971 474.773 114.883 475.254 114.883C475.5 114.883 475.693 114.941 475.834 115.059C475.975 115.164 476.098 115.346 476.203 115.604C476.625 116.729 477.328 117.549 478.312 118.064C479.297 118.58 480.609 118.838 482.25 118.838C483.609 118.838 484.652 118.592 485.379 118.1C486.105 117.607 486.469 116.951 486.469 116.131C486.469 115.732 486.34 115.404 486.082 115.146C485.824 114.889 485.455 114.678 484.975 114.514C484.564 114.385 484.09 114.279 483.551 114.197C483.023 114.104 482.35 114.016 481.529 113.934C480.428 113.816 479.508 113.693 478.77 113.564C478.031 113.436 477.352 113.248 476.73 113.002C475.875 112.662 475.207 112.193 474.727 111.596C474.258 110.986 474.023 110.195 474.023 109.223C474.023 108.203 474.287 107.33 474.814 106.604C475.354 105.865 476.092 105.309 477.029 104.934C477.979 104.559 479.051 104.371 480.246 104.371C481.383 104.371 482.42 104.541 483.357 104.881C484.307 105.221 485.121 105.695 485.801 106.305V105.514C485.801 105.104 485.9 104.811 486.1 104.635C486.299 104.459 486.639 104.371 487.119 104.371ZM497.982 97.9375C498.381 97.9375 498.662 98.0312 498.826 98.2188C499.002 98.3945 499.09 98.6992 499.09 99.1328V107.887C499.852 106.75 500.73 105.883 501.727 105.285C502.734 104.676 503.818 104.371 504.979 104.371C506.045 104.371 506.971 104.605 507.756 105.074C508.541 105.531 509.145 106.193 509.566 107.061C509.988 107.928 510.199 108.941 510.199 110.102V118.609H511.641C512.039 118.609 512.32 118.703 512.484 118.891C512.66 119.066 512.748 119.371 512.748 119.805C512.748 120.238 512.66 120.549 512.484 120.736C512.32 120.912 512.039 121 511.641 121H505.945C505.547 121 505.26 120.912 505.084 120.736C504.92 120.549 504.838 120.238 504.838 119.805C504.838 119.371 504.92 119.066 505.084 118.891C505.26 118.703 505.547 118.609 505.945 118.609H507.562V110.365C507.562 109.322 507.322 108.496 506.842 107.887C506.361 107.277 505.652 106.973 504.715 106.973C503.719 106.973 502.787 107.26 501.92 107.834C501.064 108.408 500.379 109.199 499.863 110.207C499.348 111.215 499.09 112.34 499.09 113.582V118.609H500.707C501.105 118.609 501.387 118.703 501.551 118.891C501.727 119.066 501.814 119.371 501.814 119.805C501.814 120.238 501.727 120.549 501.551 120.736C501.387 120.912 501.105 121 500.707 121H495.012C494.613 121 494.326 120.912 494.15 120.736C493.986 120.549 493.904 120.238 493.904 119.805C493.904 119.371 493.986 119.066 494.15 118.891C494.326 118.703 494.613 118.609 495.012 118.609H496.453V100.328H494.836C494.438 100.328 494.15 100.24 493.975 100.064C493.811 99.877 493.729 99.5664 493.729 99.1328C493.729 98.6992 493.811 98.3945 493.975 98.2188C494.15 98.0312 494.438 97.9375 494.836 97.9375H497.982ZM525.387 104.758C525.785 104.758 526.066 104.852 526.23 105.039C526.406 105.215 526.494 105.52 526.494 105.953V118.609H532.137C532.535 118.609 532.816 118.703 532.98 118.891C533.156 119.066 533.244 119.371 533.244 119.805C533.244 120.238 533.156 120.549 532.98 120.736C532.816 120.912 532.535 121 532.137 121H518.355C517.957 121 517.67 120.912 517.494 120.736C517.33 120.549 517.248 120.238 517.248 119.805C517.248 119.371 517.33 119.066 517.494 118.891C517.67 118.703 517.957 118.609 518.355 118.609H523.857V107.148H519.41C519.012 107.148 518.725 107.061 518.549 106.885C518.385 106.697 518.303 106.387 518.303 105.953C518.303 105.52 518.385 105.215 518.549 105.039C518.725 104.852 519.012 104.758 519.41 104.758H525.387ZM524.824 97.041C525.469 97.041 525.908 97.1289 526.143 97.3047C526.377 97.4688 526.494 97.7617 526.494 98.1836V100.469C526.494 100.891 526.377 101.189 526.143 101.365C525.908 101.529 525.469 101.611 524.824 101.611C524.18 101.611 523.74 101.529 523.506 101.365C523.271 101.189 523.154 100.891 523.154 100.469V98.1836C523.154 97.7617 523.271 97.4688 523.506 97.3047C523.74 97.1289 524.18 97.041 524.824 97.041ZM547.307 104.371C548.76 104.371 550.061 104.717 551.209 105.408C552.357 106.088 553.26 107.072 553.916 108.361C554.572 109.639 554.9 111.145 554.9 112.879C554.9 114.613 554.572 116.125 553.916 117.414C553.26 118.691 552.357 119.676 551.209 120.367C550.061 121.047 548.76 121.387 547.307 121.387C545.104 121.387 543.246 120.42 541.734 118.486V125.43H544.758C545.156 125.43 545.438 125.518 545.602 125.693C545.777 125.881 545.865 126.191 545.865 126.625C545.865 127.059 545.777 127.363 545.602 127.539C545.438 127.727 545.156 127.82 544.758 127.82H537.305C536.906 127.82 536.619 127.727 536.443 127.539C536.279 127.363 536.197 127.059 536.197 126.625C536.197 126.191 536.279 125.881 536.443 125.693C536.619 125.518 536.906 125.43 537.305 125.43H539.098V107.148H537.656C537.258 107.148 536.971 107.061 536.795 106.885C536.631 106.697 536.549 106.387 536.549 105.953C536.549 105.52 536.631 105.215 536.795 105.039C536.971 104.852 537.258 104.758 537.656 104.758H540.451C540.85 104.758 541.131 104.852 541.295 105.039C541.471 105.215 541.559 105.52 541.559 105.953V107.359C542.297 106.398 543.152 105.66 544.125 105.145C545.098 104.629 546.158 104.371 547.307 104.371ZM547.131 106.973C546.088 106.973 545.156 107.207 544.336 107.676C543.527 108.145 542.889 108.824 542.42 109.715C541.963 110.605 541.734 111.66 541.734 112.879C541.734 114.098 541.963 115.152 542.42 116.043C542.889 116.934 543.527 117.613 544.336 118.082C545.156 118.551 546.088 118.785 547.131 118.785C548.174 118.785 549.07 118.539 549.82 118.047C550.57 117.543 551.139 116.846 551.525 115.955C551.924 115.064 552.123 114.039 552.123 112.879C552.123 111.719 551.924 110.693 551.525 109.803C551.139 108.912 550.57 108.221 549.82 107.729C549.07 107.225 548.174 106.973 547.131 106.973ZM573.463 104.371C573.943 104.371 574.283 104.459 574.482 104.635C574.682 104.811 574.781 105.104 574.781 105.514V108.854C574.781 109.264 574.682 109.557 574.482 109.732C574.283 109.908 573.943 109.996 573.463 109.996C573.064 109.996 572.783 109.844 572.619 109.539C572.115 108.578 571.383 107.904 570.422 107.518C569.461 107.119 568.242 106.92 566.766 106.92C565.629 106.92 564.738 107.125 564.094 107.535C563.461 107.934 563.145 108.496 563.145 109.223C563.145 109.598 563.262 109.902 563.496 110.137C563.742 110.371 564.1 110.564 564.568 110.717C564.955 110.846 565.4 110.945 565.904 111.016C566.42 111.086 567.082 111.162 567.891 111.244C569.027 111.373 569.941 111.496 570.633 111.613C571.336 111.719 571.998 111.883 572.619 112.105C573.557 112.445 574.283 112.938 574.799 113.582C575.326 114.227 575.59 115.076 575.59 116.131C575.59 117.186 575.32 118.111 574.781 118.908C574.254 119.693 573.475 120.303 572.443 120.736C571.424 121.17 570.199 121.387 568.77 121.387C567.504 121.387 566.391 121.211 565.43 120.859C564.469 120.508 563.631 119.975 562.916 119.26V120.244C562.916 120.654 562.816 120.947 562.617 121.123C562.418 121.299 562.078 121.387 561.598 121.387C561.117 121.387 560.777 121.299 560.578 121.123C560.379 120.947 560.279 120.654 560.279 120.244V116.025C560.279 115.615 560.379 115.322 560.578 115.146C560.777 114.971 561.117 114.883 561.598 114.883C561.844 114.883 562.037 114.941 562.178 115.059C562.318 115.164 562.441 115.346 562.547 115.604C562.969 116.729 563.672 117.549 564.656 118.064C565.641 118.58 566.953 118.838 568.594 118.838C569.953 118.838 570.996 118.592 571.723 118.1C572.449 117.607 572.812 116.951 572.812 116.131C572.812 115.732 572.684 115.404 572.426 115.146C572.168 114.889 571.799 114.678 571.318 114.514C570.908 114.385 570.434 114.279 569.895 114.197C569.367 114.104 568.693 114.016 567.873 113.934C566.771 113.816 565.852 113.693 565.113 113.564C564.375 113.436 563.695 113.248 563.074 113.002C562.219 112.662 561.551 112.193 561.07 111.596C560.602 110.986 560.367 110.195 560.367 109.223C560.367 108.203 560.631 107.33 561.158 106.604C561.697 105.865 562.436 105.309 563.373 104.934C564.322 104.559 565.395 104.371 566.59 104.371C567.727 104.371 568.764 104.541 569.701 104.881C570.65 105.221 571.465 105.695 572.145 106.305V105.514C572.145 105.104 572.244 104.811 572.443 104.635C572.643 104.459 572.982 104.371 573.463 104.371Z" fill="#0E0909"/>
</svg>
