<svg width="709" height="161" viewBox="0 0 709 161" fill="none" xmlns="http://www.w3.org/2000/svg">
<path d="M76.6834 133.259C71.6909 144.143 56.2258 144.143 51.2332 133.259L17.6683 60.0872C13.4143 50.8134 20.1905 40.25 30.3934 40.25L97.5232 40.25C107.726 40.25 114.502 50.8134 110.248 60.0872L76.6834 133.259Z" fill="#D9D9D9"/>
<path d="M82.89 109.607C82.89 130.958 74.1849 148.266 63.4467 148.266C52.7084 148.266 44.0034 130.958 44.0034 109.607C44.0034 88.257 52.7084 70.9492 63.4467 70.9492C74.1849 70.9492 82.89 88.257 82.89 109.607Z" fill="#7A87FF"/>
<path d="M73.3755 79.9462C68.571 86.0295 59.3456 86.0295 54.5411 79.9462L31.8962 51.2737C25.6815 43.4047 31.2862 31.8362 41.3134 31.8362L86.6033 31.8362C96.6304 31.8362 102.235 43.4047 96.0205 51.2737L73.3755 79.9462Z" fill="#8C83C2"/>
<path d="M69.8626 62.3348C66.6636 66.63 60.2298 66.63 57.0307 62.3348L34.8562 32.5625C30.9258 27.2853 34.6921 19.7839 41.2722 19.7839L85.6212 19.7839C92.2012 19.7839 95.9676 27.2853 92.0371 32.5625L69.8626 62.3348Z" fill="white"/>
<path d="M158.316 37.9414C159.064 37.9414 159.592 38.0781 159.902 38.3516C160.212 38.625 160.367 39.0807 160.367 39.7188V48.7422C160.367 49.3802 160.212 49.8359 159.902 50.1094C159.592 50.3828 159.064 50.5195 158.316 50.5195C157.569 50.5195 157.04 50.3828 156.73 50.1094C156.421 49.8359 156.266 49.3802 156.266 48.7422C156.266 47.5026 155.983 46.3724 155.418 45.3516C154.871 44.3307 154.023 43.5195 152.875 42.918C151.727 42.2982 150.305 41.9883 148.609 41.9883C146.641 41.9883 144.891 42.5078 143.359 43.5469C141.846 44.5859 140.661 46.0716 139.805 48.0039C138.966 49.9362 138.547 52.1966 138.547 54.7852C138.547 57.3737 138.948 59.6341 139.75 61.5664C140.552 63.4805 141.691 64.957 143.168 65.9961C144.645 67.0352 146.367 67.5547 148.336 67.5547C150.141 67.5547 151.863 67.2904 153.504 66.7617C155.145 66.2331 156.621 65.4674 157.934 64.4648C158.243 64.2096 158.581 64.082 158.945 64.082C159.492 64.082 159.975 64.4375 160.395 65.1484C160.723 65.6953 160.887 66.1784 160.887 66.5977C160.887 67.1445 160.604 67.6185 160.039 68.0195C158.344 69.2044 156.493 70.0977 154.488 70.6992C152.501 71.3008 150.451 71.6016 148.336 71.6016C145.492 71.6016 143.004 70.9089 140.871 69.5234C138.757 68.1198 137.116 66.151 135.949 63.6172C134.801 61.0833 134.227 58.1393 134.227 54.7852C134.227 51.4492 134.819 48.5143 136.004 45.9805C137.189 43.4284 138.848 41.4505 140.98 40.0469C143.132 38.6432 145.583 37.9414 148.336 37.9414C150.049 37.9414 151.572 38.2331 152.902 38.8164C154.233 39.3997 155.354 40.2292 156.266 41.3047V39.7188C156.266 39.0807 156.421 38.625 156.73 38.3516C157.04 38.0781 157.569 37.9414 158.316 37.9414ZM181.477 45.1328C184.904 45.1328 187.474 45.8984 189.188 47.4297C190.901 48.9609 191.758 51.2305 191.758 54.2383V65.1211C191.758 66.5612 192.359 67.2812 193.562 67.2812H194.52C195.139 67.2812 195.577 67.4271 195.832 67.7188C196.105 67.9922 196.242 68.4661 196.242 69.1406C196.242 69.8151 196.105 70.2982 195.832 70.5898C195.577 70.8633 195.139 71 194.52 71H192.77C191.585 71 190.564 70.7083 189.707 70.125C188.868 69.5234 188.322 68.6484 188.066 67.5C186.572 68.8125 184.949 69.8242 183.199 70.5352C181.467 71.2461 179.626 71.6016 177.676 71.6016C175.835 71.6016 174.203 71.2917 172.781 70.6719C171.378 70.0339 170.275 69.1133 169.473 67.9102C168.671 66.707 168.27 65.276 168.27 63.6172C168.27 60.737 169.299 58.6133 171.359 57.2461C173.419 55.8607 176.081 55.168 179.344 55.168C182.242 55.168 185.013 55.6328 187.656 56.5625V54.2383C187.656 52.4701 187.155 51.1758 186.152 50.3555C185.168 49.5169 183.573 49.0977 181.367 49.0977C180 49.0977 178.578 49.2891 177.102 49.6719C175.625 50.0547 174.221 50.5833 172.891 51.2578C172.581 51.4219 172.298 51.5039 172.043 51.5039C171.441 51.5039 170.94 51.0664 170.539 50.1914C170.339 49.7539 170.238 49.3893 170.238 49.0977C170.238 48.4596 170.576 47.9674 171.25 47.6211C172.781 46.819 174.422 46.2083 176.172 45.7891C177.94 45.3516 179.708 45.1328 181.477 45.1328ZM179.371 59.0234C177.275 59.0234 175.616 59.388 174.395 60.1172C173.191 60.8281 172.59 61.9674 172.59 63.5352C172.59 64.8659 173.046 65.9049 173.957 66.6523C174.887 67.3815 176.181 67.7461 177.84 67.7461C181.467 67.7461 184.74 66.2422 187.656 63.2344V60.2539C186.417 59.8529 185.086 59.5521 183.664 59.3516C182.242 59.1328 180.811 59.0234 179.371 59.0234ZM223.312 45.1328C224.734 45.1328 226.065 45.4974 227.305 46.2266C228.034 46.6641 228.398 47.2292 228.398 47.9219C228.398 48.25 228.316 48.6328 228.152 49.0703C227.77 50.1094 227.241 50.6289 226.566 50.6289C226.293 50.6289 226.038 50.556 225.801 50.4102C224.908 49.918 223.951 49.6719 222.93 49.6719C221.289 49.6719 219.639 50.2461 217.98 51.3945C216.322 52.5247 214.954 54.0378 213.879 55.9336C212.822 57.8294 212.293 59.8438 212.293 61.9766V67.2812H221.508C222.128 67.2812 222.565 67.4271 222.82 67.7188C223.094 67.9922 223.23 68.4661 223.23 69.1406C223.23 69.8151 223.094 70.2982 222.82 70.5898C222.565 70.8633 222.128 71 221.508 71H203.898C203.279 71 202.832 70.8633 202.559 70.5898C202.303 70.2982 202.176 69.8151 202.176 69.1406C202.176 68.4661 202.303 67.9922 202.559 67.7188C202.832 67.4271 203.279 67.2812 203.898 67.2812H208.191V49.4531H204.719C204.099 49.4531 203.652 49.3164 203.379 49.043C203.124 48.7513 202.996 48.2682 202.996 47.5938C202.996 46.9193 203.124 46.4453 203.379 46.1719C203.652 45.8802 204.099 45.7344 204.719 45.7344H210.297C210.917 45.7344 211.354 45.8802 211.609 46.1719C211.883 46.4453 212.02 46.9193 212.02 47.5938V53.1172C212.895 51.513 213.952 50.1094 215.191 48.9062C216.431 47.7031 217.753 46.7734 219.156 46.1172C220.56 45.4609 221.945 45.1328 223.312 45.1328ZM248.77 45.1328C251.413 45.1328 253.664 45.6706 255.523 46.7461C257.401 47.8034 258.841 49.2799 259.844 51.1758C260.846 53.0534 261.421 55.2227 261.566 57.6836C261.566 58.3034 261.43 58.7409 261.156 58.9961C260.901 59.2513 260.464 59.3789 259.844 59.3789H240.047C240.174 62.0951 240.977 64.1549 242.453 65.5586C243.948 66.944 246.053 67.6367 248.77 67.6367C250.447 67.6367 252.105 67.4271 253.746 67.0078C255.387 66.5703 256.827 65.9961 258.066 65.2852C258.376 65.1211 258.659 65.0391 258.914 65.0391C259.552 65.0391 260.072 65.5221 260.473 66.4883C260.637 66.8711 260.719 67.2174 260.719 67.5273C260.719 68.2565 260.318 68.8216 259.516 69.2227C258.112 69.9336 256.453 70.5078 254.539 70.9453C252.625 71.3828 250.702 71.6016 248.77 71.6016C246.017 71.6016 243.665 71.0729 241.715 70.0156C239.764 68.9583 238.279 67.4362 237.258 65.4492C236.237 63.4622 235.727 61.1016 235.727 58.3672C235.727 55.7604 236.283 53.4544 237.395 51.4492C238.507 49.444 240.047 47.8945 242.016 46.8008C243.984 45.6888 246.236 45.1328 248.77 45.1328ZM248.77 49.0977C246.527 49.0977 244.668 49.6719 243.191 50.8203C241.733 51.9505 240.776 53.5273 240.32 55.5508H257.027C256.645 53.4544 255.76 51.8594 254.375 50.7656C253.008 49.6536 251.139 49.0977 248.77 49.0977ZM282.348 45.1328C284.991 45.1328 287.242 45.6706 289.102 46.7461C290.979 47.8034 292.419 49.2799 293.422 51.1758C294.424 53.0534 294.999 55.2227 295.145 57.6836C295.145 58.3034 295.008 58.7409 294.734 58.9961C294.479 59.2513 294.042 59.3789 293.422 59.3789H273.625C273.753 62.0951 274.555 64.1549 276.031 65.5586C277.526 66.944 279.632 67.6367 282.348 67.6367C284.025 67.6367 285.684 67.4271 287.324 67.0078C288.965 66.5703 290.405 65.9961 291.645 65.2852C291.954 65.1211 292.237 65.0391 292.492 65.0391C293.13 65.0391 293.65 65.5221 294.051 66.4883C294.215 66.8711 294.297 67.2174 294.297 67.5273C294.297 68.2565 293.896 68.8216 293.094 69.2227C291.69 69.9336 290.031 70.5078 288.117 70.9453C286.203 71.3828 284.28 71.6016 282.348 71.6016C279.595 71.6016 277.243 71.0729 275.293 70.0156C273.342 68.9583 271.857 67.4362 270.836 65.4492C269.815 63.4622 269.305 61.1016 269.305 58.3672C269.305 55.7604 269.861 53.4544 270.973 51.4492C272.085 49.444 273.625 47.8945 275.594 46.8008C277.562 45.6888 279.814 45.1328 282.348 45.1328ZM282.348 49.0977C280.105 49.0977 278.246 49.6719 276.77 50.8203C275.311 51.9505 274.354 53.5273 273.898 55.5508H290.605C290.223 53.4544 289.339 51.8594 287.953 50.7656C286.586 49.6536 284.717 49.0977 282.348 49.0977ZM324.047 45.1328C325.469 45.1328 326.799 45.4974 328.039 46.2266C328.768 46.6641 329.133 47.2292 329.133 47.9219C329.133 48.25 329.051 48.6328 328.887 49.0703C328.504 50.1094 327.975 50.6289 327.301 50.6289C327.027 50.6289 326.772 50.556 326.535 50.4102C325.642 49.918 324.685 49.6719 323.664 49.6719C322.023 49.6719 320.374 50.2461 318.715 51.3945C317.056 52.5247 315.689 54.0378 314.613 55.9336C313.556 57.8294 313.027 59.8438 313.027 61.9766V67.2812H322.242C322.862 67.2812 323.299 67.4271 323.555 67.7188C323.828 67.9922 323.965 68.4661 323.965 69.1406C323.965 69.8151 323.828 70.2982 323.555 70.5898C323.299 70.8633 322.862 71 322.242 71H304.633C304.013 71 303.566 70.8633 303.293 70.5898C303.038 70.2982 302.91 69.8151 302.91 69.1406C302.91 68.4661 303.038 67.9922 303.293 67.7188C303.566 67.4271 304.013 67.2812 304.633 67.2812H308.926V49.4531H305.453C304.833 49.4531 304.387 49.3164 304.113 49.043C303.858 48.7513 303.73 48.2682 303.73 47.5938C303.73 46.9193 303.858 46.4453 304.113 46.1719C304.387 45.8802 304.833 45.7344 305.453 45.7344H311.031C311.651 45.7344 312.089 45.8802 312.344 46.1719C312.617 46.4453 312.754 46.9193 312.754 47.5938V53.1172C313.629 51.513 314.686 50.1094 315.926 48.9062C317.165 47.7031 318.487 46.7734 319.891 46.1172C321.294 45.4609 322.68 45.1328 324.047 45.1328ZM393.363 37.9414C394.111 37.9414 394.639 38.0781 394.949 38.3516C395.259 38.625 395.414 39.0807 395.414 39.7188V48.7422C395.414 49.3802 395.259 49.8359 394.949 50.1094C394.639 50.3828 394.111 50.5195 393.363 50.5195C392.616 50.5195 392.087 50.3828 391.777 50.1094C391.467 49.8359 391.312 49.3802 391.312 48.7422C391.312 47.5026 391.03 46.3724 390.465 45.3516C389.918 44.3307 389.07 43.5195 387.922 42.918C386.773 42.2982 385.352 41.9883 383.656 41.9883C381.688 41.9883 379.938 42.5078 378.406 43.5469C376.893 44.5859 375.708 46.0716 374.852 48.0039C374.013 49.9362 373.594 52.1966 373.594 54.7852C373.594 57.3737 373.995 59.6341 374.797 61.5664C375.599 63.4805 376.738 64.957 378.215 65.9961C379.691 67.0352 381.414 67.5547 383.383 67.5547C385.188 67.5547 386.91 67.2904 388.551 66.7617C390.191 66.2331 391.668 65.4674 392.98 64.4648C393.29 64.2096 393.628 64.082 393.992 64.082C394.539 64.082 395.022 64.4375 395.441 65.1484C395.77 65.6953 395.934 66.1784 395.934 66.5977C395.934 67.1445 395.651 67.6185 395.086 68.0195C393.391 69.2044 391.54 70.0977 389.535 70.6992C387.548 71.3008 385.497 71.6016 383.383 71.6016C380.539 71.6016 378.051 70.9089 375.918 69.5234C373.803 68.1198 372.163 66.151 370.996 63.6172C369.848 61.0833 369.273 58.1393 369.273 54.7852C369.273 51.4492 369.866 48.5143 371.051 45.9805C372.236 43.4284 373.895 41.4505 376.027 40.0469C378.178 38.6432 380.63 37.9414 383.383 37.9414C385.096 37.9414 386.618 38.2331 387.949 38.8164C389.28 39.3997 390.401 40.2292 391.312 41.3047V39.7188C391.312 39.0807 391.467 38.625 391.777 38.3516C392.087 38.0781 392.616 37.9414 393.363 37.9414ZM416.523 45.1328C419.951 45.1328 422.521 45.8984 424.234 47.4297C425.948 48.9609 426.805 51.2305 426.805 54.2383V65.1211C426.805 66.5612 427.406 67.2812 428.609 67.2812H429.566C430.186 67.2812 430.624 67.4271 430.879 67.7188C431.152 67.9922 431.289 68.4661 431.289 69.1406C431.289 69.8151 431.152 70.2982 430.879 70.5898C430.624 70.8633 430.186 71 429.566 71H427.816C426.632 71 425.611 70.7083 424.754 70.125C423.915 69.5234 423.368 68.6484 423.113 67.5C421.618 68.8125 419.996 69.8242 418.246 70.5352C416.514 71.2461 414.673 71.6016 412.723 71.6016C410.882 71.6016 409.25 71.2917 407.828 70.6719C406.424 70.0339 405.322 69.1133 404.52 67.9102C403.717 66.707 403.316 65.276 403.316 63.6172C403.316 60.737 404.346 58.6133 406.406 57.2461C408.466 55.8607 411.128 55.168 414.391 55.168C417.289 55.168 420.06 55.6328 422.703 56.5625V54.2383C422.703 52.4701 422.202 51.1758 421.199 50.3555C420.215 49.5169 418.62 49.0977 416.414 49.0977C415.047 49.0977 413.625 49.2891 412.148 49.6719C410.672 50.0547 409.268 50.5833 407.938 51.2578C407.628 51.4219 407.345 51.5039 407.09 51.5039C406.488 51.5039 405.987 51.0664 405.586 50.1914C405.385 49.7539 405.285 49.3893 405.285 49.0977C405.285 48.4596 405.622 47.9674 406.297 47.6211C407.828 46.819 409.469 46.2083 411.219 45.7891C412.987 45.3516 414.755 45.1328 416.523 45.1328ZM414.418 59.0234C412.322 59.0234 410.663 59.388 409.441 60.1172C408.238 60.8281 407.637 61.9674 407.637 63.5352C407.637 64.8659 408.092 65.9049 409.004 66.6523C409.934 67.3815 411.228 67.7461 412.887 67.7461C416.514 67.7461 419.786 66.2422 422.703 63.2344V60.2539C421.464 59.8529 420.133 59.5521 418.711 59.3516C417.289 59.1328 415.858 59.0234 414.418 59.0234ZM445.727 37.9414C446.474 37.9414 447.003 38.0781 447.312 38.3516C447.622 38.625 447.777 39.0807 447.777 39.7188V47.9219H459.016C459.635 47.9219 460.073 48.0677 460.328 48.3594C460.602 48.6328 460.738 49.1068 460.738 49.7812C460.738 50.4557 460.602 50.9388 460.328 51.2305C460.073 51.5039 459.635 51.6406 459.016 51.6406H447.777V61.5938C447.777 63.6719 448.133 65.194 448.844 66.1602C449.573 67.1263 450.831 67.6094 452.617 67.6094C453.839 67.6094 455.124 67.3633 456.473 66.8711C457.822 66.3789 459.125 65.7227 460.383 64.9023C460.638 64.7201 460.921 64.6289 461.23 64.6289C461.85 64.6289 462.379 65.0482 462.816 65.8867C463.053 66.3607 463.172 66.7708 463.172 67.1172C463.172 67.7005 462.871 68.1745 462.27 68.5391C460.848 69.4323 459.262 70.1706 457.512 70.7539C455.762 71.319 454.13 71.6016 452.617 71.6016C449.518 71.6016 447.249 70.7995 445.809 69.1953C444.387 67.5729 443.676 65.1576 443.676 61.9492V51.6406H438.125C437.505 51.6406 437.059 51.5039 436.785 51.2305C436.53 50.9388 436.402 50.4557 436.402 49.7812C436.402 49.1068 436.53 48.6328 436.785 48.3594C437.059 48.0677 437.505 47.9219 438.125 47.9219H443.676V39.7188C443.676 39.0807 443.831 38.625 444.141 38.3516C444.451 38.0781 444.979 37.9414 445.727 37.9414ZM483.68 45.1328C487.107 45.1328 489.677 45.8984 491.391 47.4297C493.104 48.9609 493.961 51.2305 493.961 54.2383V65.1211C493.961 66.5612 494.562 67.2812 495.766 67.2812H496.723C497.342 67.2812 497.78 67.4271 498.035 67.7188C498.309 67.9922 498.445 68.4661 498.445 69.1406C498.445 69.8151 498.309 70.2982 498.035 70.5898C497.78 70.8633 497.342 71 496.723 71H494.973C493.788 71 492.767 70.7083 491.91 70.125C491.072 69.5234 490.525 68.6484 490.27 67.5C488.775 68.8125 487.152 69.8242 485.402 70.5352C483.671 71.2461 481.829 71.6016 479.879 71.6016C478.038 71.6016 476.406 71.2917 474.984 70.6719C473.581 70.0339 472.478 69.1133 471.676 67.9102C470.874 66.707 470.473 65.276 470.473 63.6172C470.473 60.737 471.503 58.6133 473.562 57.2461C475.622 55.8607 478.284 55.168 481.547 55.168C484.445 55.168 487.216 55.6328 489.859 56.5625V54.2383C489.859 52.4701 489.358 51.1758 488.355 50.3555C487.371 49.5169 485.776 49.0977 483.57 49.0977C482.203 49.0977 480.781 49.2891 479.305 49.6719C477.828 50.0547 476.424 50.5833 475.094 51.2578C474.784 51.4219 474.501 51.5039 474.246 51.5039C473.645 51.5039 473.143 51.0664 472.742 50.1914C472.542 49.7539 472.441 49.3893 472.441 49.0977C472.441 48.4596 472.779 47.9674 473.453 47.6211C474.984 46.819 476.625 46.2083 478.375 45.7891C480.143 45.3516 481.911 45.1328 483.68 45.1328ZM481.574 59.0234C479.478 59.0234 477.819 59.388 476.598 60.1172C475.395 60.8281 474.793 61.9674 474.793 63.5352C474.793 64.8659 475.249 65.9049 476.16 66.6523C477.09 67.3815 478.384 67.7461 480.043 67.7461C483.671 67.7461 486.943 66.2422 489.859 63.2344V60.2539C488.62 59.8529 487.289 59.5521 485.867 59.3516C484.445 59.1328 483.014 59.0234 481.574 59.0234ZM517.859 35.125C518.479 35.125 518.917 35.2708 519.172 35.5625C519.445 35.8359 519.582 36.3099 519.582 36.9844V67.2812H528.359C528.979 67.2812 529.417 67.4271 529.672 67.7188C529.945 67.9922 530.082 68.4661 530.082 69.1406C530.082 69.8151 529.945 70.2982 529.672 70.5898C529.417 70.8633 528.979 71 528.359 71H506.922C506.302 71 505.855 70.8633 505.582 70.5898C505.327 70.2982 505.199 69.8151 505.199 69.1406C505.199 68.4661 505.327 67.9922 505.582 67.7188C505.855 67.4271 506.302 67.2812 506.922 67.2812H515.48V38.8438H508.016C507.396 38.8438 506.949 38.707 506.676 38.4336C506.421 38.1419 506.293 37.6589 506.293 36.9844C506.293 36.3099 506.421 35.8359 506.676 35.5625C506.949 35.2708 507.396 35.125 508.016 35.125H517.859ZM564.426 45.7344C565.046 45.7344 565.483 45.8802 565.738 46.1719C566.012 46.4453 566.148 46.9193 566.148 47.5938C566.148 48.2682 566.012 48.7513 565.738 49.043C565.483 49.3164 565.046 49.4531 564.426 49.4531H562.73L551.547 72.3672C550.362 74.7917 549.204 76.6966 548.074 78.082C546.944 79.4674 545.668 80.4792 544.246 81.1172C542.842 81.7734 541.129 82.138 539.105 82.2109C538.467 82.2292 537.975 82.0651 537.629 81.7188C537.283 81.3906 537.109 80.7982 537.109 79.9414C537.109 78.7565 537.592 78.1367 538.559 78.082C540.309 77.9909 541.694 77.6992 542.715 77.207C543.754 76.7148 544.702 75.8672 545.559 74.6641C546.434 73.4792 547.5 71.6198 548.758 69.0859L538.75 49.4531H537.027C536.408 49.4531 535.961 49.3164 535.688 49.043C535.432 48.7513 535.305 48.2682 535.305 47.5938C535.305 46.9193 535.432 46.4453 535.688 46.1719C535.961 45.8802 536.408 45.7344 537.027 45.7344H546.707C547.327 45.7344 547.764 45.8802 548.02 46.1719C548.293 46.4453 548.43 46.9193 548.43 47.5938C548.43 48.2682 548.293 48.7513 548.02 49.043C547.764 49.3164 547.327 49.4531 546.707 49.4531H543.207L550.918 64.8203L558.273 49.4531H555.84C555.22 49.4531 554.773 49.3164 554.5 49.043C554.245 48.7513 554.117 48.2682 554.117 47.5938C554.117 46.9193 554.245 46.4453 554.5 46.1719C554.773 45.8802 555.22 45.7344 555.84 45.7344H564.426ZM592.918 45.1328C593.665 45.1328 594.194 45.2695 594.504 45.543C594.814 45.8164 594.969 46.2721 594.969 46.9102V52.1055C594.969 52.7435 594.814 53.1992 594.504 53.4727C594.194 53.7461 593.665 53.8828 592.918 53.8828C592.298 53.8828 591.861 53.6458 591.605 53.1719C590.822 51.6771 589.682 50.6289 588.188 50.0273C586.693 49.4076 584.797 49.0977 582.5 49.0977C580.732 49.0977 579.346 49.4167 578.344 50.0547C577.359 50.6745 576.867 51.5495 576.867 52.6797C576.867 53.263 577.049 53.737 577.414 54.1016C577.797 54.4661 578.353 54.7669 579.082 55.0039C579.684 55.2044 580.376 55.3594 581.16 55.4688C581.962 55.5781 582.992 55.6966 584.25 55.8242C586.018 56.0247 587.44 56.2161 588.516 56.3984C589.609 56.5625 590.639 56.8177 591.605 57.1641C593.064 57.6927 594.194 58.4583 594.996 59.4609C595.816 60.4635 596.227 61.7852 596.227 63.4258C596.227 65.0664 595.807 66.5065 594.969 67.7461C594.148 68.9674 592.936 69.9154 591.332 70.5898C589.746 71.2643 587.841 71.6016 585.617 71.6016C583.648 71.6016 581.917 71.3281 580.422 70.7812C578.927 70.2344 577.624 69.4049 576.512 68.293V69.8242C576.512 70.4622 576.357 70.918 576.047 71.1914C575.737 71.4648 575.208 71.6016 574.461 71.6016C573.714 71.6016 573.185 71.4648 572.875 71.1914C572.565 70.918 572.41 70.4622 572.41 69.8242V63.2617C572.41 62.6237 572.565 62.168 572.875 61.8945C573.185 61.6211 573.714 61.4844 574.461 61.4844C574.844 61.4844 575.145 61.5755 575.363 61.7578C575.582 61.9219 575.773 62.2044 575.938 62.6055C576.594 64.3555 577.688 65.6315 579.219 66.4336C580.75 67.2357 582.792 67.6367 585.344 67.6367C587.458 67.6367 589.081 67.2539 590.211 66.4883C591.341 65.7227 591.906 64.7018 591.906 63.4258C591.906 62.806 591.706 62.2956 591.305 61.8945C590.904 61.4935 590.329 61.1654 589.582 60.9102C588.944 60.7096 588.206 60.5456 587.367 60.418C586.547 60.2721 585.499 60.1354 584.223 60.0078C582.509 59.8255 581.078 59.6341 579.93 59.4336C578.781 59.2331 577.724 58.9414 576.758 58.5586C575.427 58.0299 574.388 57.3008 573.641 56.3711C572.911 55.4232 572.547 54.1927 572.547 52.6797C572.547 51.0938 572.957 49.7357 573.777 48.6055C574.616 47.457 575.764 46.5911 577.223 46.0078C578.699 45.4245 580.367 45.1328 582.227 45.1328C583.995 45.1328 585.608 45.3971 587.066 45.9258C588.543 46.4544 589.81 47.1927 590.867 48.1406V46.9102C590.867 46.2721 591.022 45.8164 591.332 45.543C591.642 45.2695 592.171 45.1328 592.918 45.1328ZM613.617 37.9414C614.365 37.9414 614.893 38.0781 615.203 38.3516C615.513 38.625 615.668 39.0807 615.668 39.7188V47.9219H626.906C627.526 47.9219 627.964 48.0677 628.219 48.3594C628.492 48.6328 628.629 49.1068 628.629 49.7812C628.629 50.4557 628.492 50.9388 628.219 51.2305C627.964 51.5039 627.526 51.6406 626.906 51.6406H615.668V61.5938C615.668 63.6719 616.023 65.194 616.734 66.1602C617.464 67.1263 618.721 67.6094 620.508 67.6094C621.729 67.6094 623.014 67.3633 624.363 66.8711C625.712 66.3789 627.016 65.7227 628.273 64.9023C628.529 64.7201 628.811 64.6289 629.121 64.6289C629.741 64.6289 630.27 65.0482 630.707 65.8867C630.944 66.3607 631.062 66.7708 631.062 67.1172C631.062 67.7005 630.762 68.1745 630.16 68.5391C628.738 69.4323 627.152 70.1706 625.402 70.7539C623.652 71.319 622.021 71.6016 620.508 71.6016C617.409 71.6016 615.139 70.7995 613.699 69.1953C612.277 67.5729 611.566 65.1576 611.566 61.9492V51.6406H606.016C605.396 51.6406 604.949 51.5039 604.676 51.2305C604.421 50.9388 604.293 50.4557 604.293 49.7812C604.293 49.1068 604.421 48.6328 604.676 48.3594C604.949 48.0677 605.396 47.9219 606.016 47.9219H611.566V39.7188C611.566 39.0807 611.721 38.625 612.031 38.3516C612.341 38.0781 612.87 37.9414 613.617 37.9414ZM660.074 45.1328C660.822 45.1328 661.35 45.2695 661.66 45.543C661.97 45.8164 662.125 46.2721 662.125 46.9102V52.1055C662.125 52.7435 661.97 53.1992 661.66 53.4727C661.35 53.7461 660.822 53.8828 660.074 53.8828C659.454 53.8828 659.017 53.6458 658.762 53.1719C657.978 51.6771 656.839 50.6289 655.344 50.0273C653.849 49.4076 651.953 49.0977 649.656 49.0977C647.888 49.0977 646.503 49.4167 645.5 50.0547C644.516 50.6745 644.023 51.5495 644.023 52.6797C644.023 53.263 644.206 53.737 644.57 54.1016C644.953 54.4661 645.509 54.7669 646.238 55.0039C646.84 55.2044 647.533 55.3594 648.316 55.4688C649.118 55.5781 650.148 55.6966 651.406 55.8242C653.174 56.0247 654.596 56.2161 655.672 56.3984C656.766 56.5625 657.796 56.8177 658.762 57.1641C660.22 57.6927 661.35 58.4583 662.152 59.4609C662.973 60.4635 663.383 61.7852 663.383 63.4258C663.383 65.0664 662.964 66.5065 662.125 67.7461C661.305 68.9674 660.092 69.9154 658.488 70.5898C656.902 71.2643 654.997 71.6016 652.773 71.6016C650.805 71.6016 649.073 71.3281 647.578 70.7812C646.083 70.2344 644.78 69.4049 643.668 68.293V69.8242C643.668 70.4622 643.513 70.918 643.203 71.1914C642.893 71.4648 642.365 71.6016 641.617 71.6016C640.87 71.6016 640.341 71.4648 640.031 71.1914C639.721 70.918 639.566 70.4622 639.566 69.8242V63.2617C639.566 62.6237 639.721 62.168 640.031 61.8945C640.341 61.6211 640.87 61.4844 641.617 61.4844C642 61.4844 642.301 61.5755 642.52 61.7578C642.738 61.9219 642.93 62.2044 643.094 62.6055C643.75 64.3555 644.844 65.6315 646.375 66.4336C647.906 67.2357 649.948 67.6367 652.5 67.6367C654.615 67.6367 656.237 67.2539 657.367 66.4883C658.497 65.7227 659.062 64.7018 659.062 63.4258C659.062 62.806 658.862 62.2956 658.461 61.8945C658.06 61.4935 657.486 61.1654 656.738 60.9102C656.1 60.7096 655.362 60.5456 654.523 60.418C653.703 60.2721 652.655 60.1354 651.379 60.0078C649.665 59.8255 648.234 59.6341 647.086 59.4336C645.938 59.2331 644.88 58.9414 643.914 58.5586C642.583 58.0299 641.544 57.3008 640.797 56.3711C640.068 55.4232 639.703 54.1927 639.703 52.6797C639.703 51.0938 640.113 49.7357 640.934 48.6055C641.772 47.457 642.921 46.5911 644.379 46.0078C645.855 45.4245 647.523 45.1328 649.383 45.1328C651.151 45.1328 652.764 45.3971 654.223 45.9258C655.699 46.4544 656.966 47.1927 658.023 48.1406V46.9102C658.023 46.2721 658.178 45.8164 658.488 45.543C658.798 45.2695 659.327 45.1328 660.074 45.1328Z" fill="black"/>
<path d="M189.313 107.567C189.821 107.567 190.179 107.66 190.39 107.846C190.6 108.031 190.705 108.34 190.705 108.773V114.154C190.705 114.587 190.6 114.896 190.39 115.082C190.179 115.268 189.821 115.36 189.313 115.36C188.806 115.36 188.448 115.268 188.237 115.082C188.027 114.896 187.922 114.587 187.922 114.154C187.922 113.412 187.718 112.75 187.31 112.169C186.914 111.588 186.326 111.136 185.547 110.814C184.768 110.48 183.84 110.313 182.764 110.313C181.391 110.313 180.172 110.666 179.108 111.371C178.057 112.076 177.234 113.084 176.641 114.396C176.047 115.707 175.75 117.241 175.75 118.997C175.75 120.754 176.028 122.287 176.585 123.599C177.154 124.897 177.952 125.899 178.979 126.604C180.018 127.31 181.217 127.662 182.578 127.662C184.743 127.662 186.592 127.31 188.126 126.604V122.393H183.543C183.122 122.393 182.819 122.3 182.634 122.114C182.461 121.916 182.374 121.589 182.374 121.131C182.374 120.673 182.461 120.352 182.634 120.166C182.819 119.968 183.122 119.869 183.543 119.869H191.503C191.924 119.869 192.22 119.968 192.394 120.166C192.579 120.352 192.672 120.673 192.672 121.131C192.672 121.589 192.579 121.916 192.394 122.114C192.22 122.3 191.924 122.393 191.503 122.393H190.909V127.347C190.909 127.953 190.687 128.38 190.241 128.627C189.227 129.208 188.058 129.654 186.734 129.963C185.411 130.26 184.025 130.408 182.578 130.408C180.648 130.408 178.941 129.938 177.457 128.998C175.985 128.046 174.841 126.71 174.024 124.99C173.22 123.258 172.818 121.261 172.818 118.997C172.818 116.746 173.233 114.754 174.062 113.022C174.903 111.291 176.059 109.949 177.531 108.996C179.016 108.044 180.698 107.567 182.578 107.567C183.741 107.567 184.768 107.753 185.658 108.124C186.561 108.483 187.316 109.002 187.922 109.683V108.773C187.922 108.34 188.027 108.031 188.237 107.846C188.448 107.66 188.806 107.567 189.313 107.567ZM205.345 112.447C207.138 112.447 208.666 112.812 209.928 113.542C211.202 114.259 212.179 115.261 212.859 116.548C213.54 117.822 213.929 119.294 214.028 120.964C214.028 121.384 213.936 121.681 213.75 121.854C213.577 122.028 213.28 122.114 212.859 122.114H199.426C199.512 123.957 200.057 125.355 201.059 126.308C202.073 127.248 203.502 127.718 205.345 127.718C206.483 127.718 207.608 127.576 208.722 127.291C209.835 126.994 210.812 126.604 211.653 126.122C211.864 126.011 212.055 125.955 212.229 125.955C212.661 125.955 213.014 126.283 213.286 126.938C213.397 127.198 213.453 127.433 213.453 127.644C213.453 128.138 213.181 128.522 212.637 128.794C211.684 129.276 210.559 129.666 209.26 129.963C207.961 130.26 206.656 130.408 205.345 130.408C203.477 130.408 201.881 130.049 200.558 129.332C199.234 128.615 198.226 127.582 197.533 126.233C196.84 124.885 196.494 123.283 196.494 121.428C196.494 119.659 196.871 118.094 197.626 116.733C198.381 115.373 199.426 114.321 200.762 113.579C202.098 112.825 203.625 112.447 205.345 112.447ZM205.345 115.138C203.823 115.138 202.562 115.527 201.56 116.307C200.57 117.074 199.921 118.144 199.611 119.517H210.948C210.688 118.094 210.089 117.012 209.148 116.27C208.221 115.515 206.953 115.138 205.345 115.138ZM225.068 107.567C225.576 107.567 225.934 107.66 226.145 107.846C226.355 108.031 226.46 108.34 226.46 108.773V114.34H234.086C234.507 114.34 234.803 114.439 234.977 114.637C235.162 114.822 235.255 115.144 235.255 115.602C235.255 116.059 235.162 116.387 234.977 116.585C234.803 116.771 234.507 116.863 234.086 116.863H226.46V123.617C226.46 125.027 226.701 126.06 227.184 126.716C227.678 127.371 228.532 127.699 229.744 127.699C230.573 127.699 231.445 127.532 232.36 127.198C233.276 126.864 234.16 126.419 235.014 125.862C235.187 125.739 235.379 125.677 235.589 125.677C236.009 125.677 236.368 125.961 236.665 126.53C236.826 126.852 236.906 127.13 236.906 127.365C236.906 127.761 236.702 128.083 236.294 128.33C235.329 128.936 234.253 129.437 233.065 129.833C231.878 130.216 230.771 130.408 229.744 130.408C227.641 130.408 226.101 129.864 225.124 128.775C224.159 127.674 223.677 126.035 223.677 123.858V116.863H219.91C219.49 116.863 219.187 116.771 219.001 116.585C218.828 116.387 218.741 116.059 218.741 115.602C218.741 115.144 218.828 114.822 219.001 114.637C219.187 114.439 219.49 114.34 219.91 114.34H223.677V108.773C223.677 108.34 223.782 108.031 223.992 107.846C224.202 107.66 224.561 107.567 225.068 107.567ZM270.639 107.567C271.146 107.567 271.505 107.66 271.715 107.846C271.925 108.031 272.03 108.34 272.03 108.773V114.34H279.656C280.077 114.34 280.374 114.439 280.547 114.637C280.732 114.822 280.825 115.144 280.825 115.602C280.825 116.059 280.732 116.387 280.547 116.585C280.374 116.771 280.077 116.863 279.656 116.863H272.03V123.617C272.03 125.027 272.271 126.06 272.754 126.716C273.249 127.371 274.102 127.699 275.314 127.699C276.143 127.699 277.015 127.532 277.931 127.198C278.846 126.864 279.73 126.419 280.584 125.862C280.757 125.739 280.949 125.677 281.159 125.677C281.58 125.677 281.938 125.961 282.235 126.53C282.396 126.852 282.477 127.13 282.477 127.365C282.477 127.761 282.272 128.083 281.864 128.33C280.899 128.936 279.823 129.437 278.636 129.833C277.448 130.216 276.341 130.408 275.314 130.408C273.212 130.408 271.672 129.864 270.694 128.775C269.729 127.674 269.247 126.035 269.247 123.858V116.863H265.48C265.06 116.863 264.757 116.771 264.571 116.585C264.398 116.387 264.312 116.059 264.312 115.602C264.312 115.144 264.398 114.822 264.571 114.637C264.757 114.439 265.06 114.34 265.48 114.34H269.247V108.773C269.247 108.34 269.352 108.031 269.562 107.846C269.773 107.66 270.132 107.567 270.639 107.567ZM290.845 105.656C291.265 105.656 291.562 105.755 291.735 105.953C291.921 106.139 292.014 106.46 292.014 106.918V116.158C292.818 114.958 293.745 114.043 294.797 113.412C295.861 112.769 297.005 112.447 298.229 112.447C299.355 112.447 300.332 112.695 301.161 113.189C301.99 113.672 302.627 114.371 303.072 115.286C303.518 116.201 303.74 117.271 303.74 118.496V127.477H305.262C305.682 127.477 305.979 127.576 306.152 127.773C306.338 127.959 306.431 128.281 306.431 128.738C306.431 129.196 306.338 129.524 306.152 129.722C305.979 129.907 305.682 130 305.262 130H299.25C298.829 130 298.526 129.907 298.341 129.722C298.168 129.524 298.081 129.196 298.081 128.738C298.081 128.281 298.168 127.959 298.341 127.773C298.526 127.576 298.829 127.477 299.25 127.477H300.957V118.774C300.957 117.674 300.703 116.801 300.196 116.158C299.689 115.515 298.941 115.193 297.951 115.193C296.9 115.193 295.916 115.496 295.001 116.103C294.098 116.709 293.374 117.544 292.83 118.607C292.286 119.671 292.014 120.859 292.014 122.17V127.477H293.721C294.141 127.477 294.438 127.576 294.611 127.773C294.797 127.959 294.89 128.281 294.89 128.738C294.89 129.196 294.797 129.524 294.611 129.722C294.438 129.907 294.141 130 293.721 130H287.709C287.288 130 286.985 129.907 286.8 129.722C286.627 129.524 286.54 129.196 286.54 128.738C286.54 128.281 286.627 127.959 286.8 127.773C286.985 127.576 287.288 127.477 287.709 127.477H289.23V108.18H287.523C287.103 108.18 286.8 108.087 286.614 107.901C286.441 107.703 286.354 107.376 286.354 106.918C286.354 106.46 286.441 106.139 286.614 105.953C286.8 105.755 287.103 105.656 287.523 105.656H290.845ZM319.271 112.447C321.064 112.447 322.592 112.812 323.854 113.542C325.128 114.259 326.105 115.261 326.785 116.548C327.465 117.822 327.855 119.294 327.954 120.964C327.954 121.384 327.861 121.681 327.676 121.854C327.503 122.028 327.206 122.114 326.785 122.114H313.352C313.438 123.957 313.982 125.355 314.984 126.308C315.999 127.248 317.427 127.718 319.271 127.718C320.409 127.718 321.534 127.576 322.647 127.291C323.761 126.994 324.738 126.604 325.579 126.122C325.789 126.011 325.981 125.955 326.154 125.955C326.587 125.955 326.94 126.283 327.212 126.938C327.323 127.198 327.379 127.433 327.379 127.644C327.379 128.138 327.107 128.522 326.562 128.794C325.61 129.276 324.484 129.666 323.186 129.963C321.887 130.26 320.582 130.408 319.271 130.408C317.403 130.408 315.807 130.049 314.483 129.332C313.16 128.615 312.152 127.582 311.459 126.233C310.766 124.885 310.42 123.283 310.42 121.428C310.42 119.659 310.797 118.094 311.552 116.733C312.306 115.373 313.352 114.321 314.688 113.579C316.023 112.825 317.551 112.447 319.271 112.447ZM319.271 115.138C317.749 115.138 316.487 115.527 315.485 116.307C314.496 117.074 313.846 118.144 313.537 119.517H324.874C324.614 118.094 324.014 117.012 323.074 116.27C322.146 115.515 320.879 115.138 319.271 115.138ZM352.595 127.477C353.015 127.477 353.312 127.576 353.485 127.773C353.671 127.959 353.764 128.281 353.764 128.738C353.764 129.196 353.671 129.524 353.485 129.722C353.312 129.907 353.015 130 352.595 130H349.83C349.41 130 349.106 129.907 348.921 129.722C348.748 129.524 348.661 129.196 348.661 128.738V117.754C348.661 116.9 348.519 116.263 348.234 115.843C347.962 115.41 347.517 115.193 346.898 115.193C346.317 115.193 345.779 115.465 345.284 116.01C344.789 116.542 344.394 117.29 344.097 118.255C343.812 119.207 343.67 120.296 343.67 121.521V127.477H344.728C345.148 127.477 345.445 127.576 345.618 127.773C345.804 127.959 345.896 128.281 345.896 128.738C345.896 129.196 345.804 129.524 345.618 129.722C345.445 129.907 345.148 130 344.728 130H342.056C341.635 130 341.332 129.907 341.146 129.722C340.973 129.524 340.887 129.196 340.887 128.738V117.754C340.887 116.9 340.744 116.263 340.46 115.843C340.188 115.41 339.743 115.193 339.124 115.193C338.543 115.193 338.005 115.465 337.51 116.01C337.015 116.542 336.619 117.29 336.322 118.255C336.038 119.207 335.896 120.296 335.896 121.521V127.477H336.86C337.281 127.477 337.578 127.576 337.751 127.773C337.937 127.959 338.029 128.281 338.029 128.738C338.029 129.196 337.937 129.524 337.751 129.722C337.578 129.907 337.281 130 336.86 130H331.591C331.17 130 330.867 129.907 330.682 129.722C330.508 129.524 330.422 129.196 330.422 128.738C330.422 128.281 330.508 127.959 330.682 127.773C330.867 127.576 331.17 127.477 331.591 127.477H333.112V115.379H331.591C331.17 115.379 330.867 115.286 330.682 115.101C330.508 114.903 330.422 114.575 330.422 114.117C330.422 113.66 330.508 113.338 330.682 113.152C330.867 112.954 331.17 112.855 331.591 112.855H334.355C334.776 112.855 335.073 112.954 335.246 113.152C335.432 113.338 335.524 113.66 335.524 114.117V115.954C336.056 114.791 336.693 113.919 337.436 113.338C338.178 112.744 338.982 112.447 339.848 112.447C340.689 112.447 341.425 112.732 342.056 113.301C342.687 113.87 343.113 114.705 343.336 115.806C344.437 113.567 345.859 112.447 347.604 112.447C348.333 112.447 348.983 112.633 349.552 113.004C350.133 113.363 350.591 113.919 350.925 114.674C351.271 115.416 351.444 116.331 351.444 117.42V127.477H352.595ZM388.127 112.855C388.548 112.855 388.844 112.954 389.018 113.152C389.203 113.338 389.296 113.66 389.296 114.117V127.477H395.252C395.673 127.477 395.969 127.576 396.143 127.773C396.328 127.959 396.421 128.281 396.421 128.738C396.421 129.196 396.328 129.524 396.143 129.722C395.969 129.907 395.673 130 395.252 130H380.705C380.285 130 379.981 129.907 379.796 129.722C379.623 129.524 379.536 129.196 379.536 128.738C379.536 128.281 379.623 127.959 379.796 127.773C379.981 127.576 380.285 127.477 380.705 127.477H386.513V115.379H381.818C381.398 115.379 381.095 115.286 380.909 115.101C380.736 114.903 380.649 114.575 380.649 114.117C380.649 113.66 380.736 113.338 380.909 113.152C381.095 112.954 381.398 112.855 381.818 112.855H388.127ZM387.533 104.71C388.214 104.71 388.677 104.803 388.925 104.988C389.172 105.161 389.296 105.471 389.296 105.916V108.328C389.296 108.773 389.172 109.089 388.925 109.274C388.677 109.448 388.214 109.534 387.533 109.534C386.853 109.534 386.389 109.448 386.142 109.274C385.894 109.089 385.771 108.773 385.771 108.328V105.916C385.771 105.471 385.894 105.161 386.142 104.988C386.389 104.803 386.853 104.71 387.533 104.71ZM412.341 112.447C413.466 112.447 414.444 112.695 415.272 113.189C416.101 113.672 416.738 114.371 417.184 115.286C417.629 116.201 417.852 117.271 417.852 118.496V127.477H419.373C419.794 127.477 420.09 127.576 420.264 127.773C420.449 127.959 420.542 128.281 420.542 128.738C420.542 129.196 420.449 129.524 420.264 129.722C420.09 129.907 419.794 130 419.373 130H413.361C412.941 130 412.638 129.907 412.452 129.722C412.279 129.524 412.192 129.196 412.192 128.738C412.192 128.281 412.279 127.959 412.452 127.773C412.638 127.576 412.941 127.477 413.361 127.477H415.068V118.774C415.068 117.674 414.815 116.801 414.308 116.158C413.8 115.515 413.052 115.193 412.062 115.193C411.011 115.193 410.028 115.496 409.112 116.103C408.209 116.709 407.486 117.544 406.941 118.607C406.397 119.671 406.125 120.859 406.125 122.17V127.477H407.832C408.253 127.477 408.549 127.576 408.723 127.773C408.908 127.959 409.001 128.281 409.001 128.738C409.001 129.196 408.908 129.524 408.723 129.722C408.549 129.907 408.253 130 407.832 130H401.82C401.4 130 401.097 129.907 400.911 129.722C400.738 129.524 400.651 129.196 400.651 128.738C400.651 128.281 400.738 127.959 400.911 127.773C401.097 127.576 401.4 127.477 401.82 127.477H403.342V115.379H401.449C401.029 115.379 400.726 115.286 400.54 115.101C400.367 114.903 400.28 114.575 400.28 114.117C400.28 113.66 400.367 113.338 400.54 113.152C400.726 112.954 401.029 112.855 401.449 112.855H404.771C405.191 112.855 405.488 112.954 405.661 113.152C405.847 113.338 405.939 113.66 405.939 114.117V116.344C406.756 115.082 407.708 114.117 408.797 113.449C409.898 112.781 411.079 112.447 412.341 112.447ZM430.135 107.567C430.642 107.567 431.001 107.66 431.211 107.846C431.421 108.031 431.526 108.34 431.526 108.773V114.34H439.152C439.573 114.34 439.87 114.439 440.043 114.637C440.229 114.822 440.321 115.144 440.321 115.602C440.321 116.059 440.229 116.387 440.043 116.585C439.87 116.771 439.573 116.863 439.152 116.863H431.526V123.617C431.526 125.027 431.768 126.06 432.25 126.716C432.745 127.371 433.598 127.699 434.811 127.699C435.639 127.699 436.511 127.532 437.427 127.198C438.342 126.864 439.227 126.419 440.08 125.862C440.253 125.739 440.445 125.677 440.655 125.677C441.076 125.677 441.435 125.961 441.731 126.53C441.892 126.852 441.973 127.13 441.973 127.365C441.973 127.761 441.769 128.083 441.36 128.33C440.396 128.936 439.319 129.437 438.132 129.833C436.944 130.216 435.837 130.408 434.811 130.408C432.708 130.408 431.168 129.864 430.19 128.775C429.226 127.674 428.743 126.035 428.743 123.858V116.863H424.977C424.556 116.863 424.253 116.771 424.067 116.585C423.894 116.387 423.808 116.059 423.808 115.602C423.808 115.144 423.894 114.822 424.067 114.637C424.253 114.439 424.556 114.34 424.977 114.34H428.743V108.773C428.743 108.34 428.848 108.031 429.059 107.846C429.269 107.66 429.628 107.567 430.135 107.567ZM455.981 112.447C457.775 112.447 459.303 112.812 460.564 113.542C461.839 114.259 462.816 115.261 463.496 116.548C464.176 117.822 464.566 119.294 464.665 120.964C464.665 121.384 464.572 121.681 464.387 121.854C464.214 122.028 463.917 122.114 463.496 122.114H450.062C450.149 123.957 450.693 125.355 451.695 126.308C452.71 127.248 454.138 127.718 455.981 127.718C457.119 127.718 458.245 127.576 459.358 127.291C460.472 126.994 461.449 126.604 462.29 126.122C462.5 126.011 462.692 125.955 462.865 125.955C463.298 125.955 463.651 126.283 463.923 126.938C464.034 127.198 464.09 127.433 464.09 127.644C464.09 128.138 463.818 128.522 463.273 128.794C462.321 129.276 461.195 129.666 459.896 129.963C458.598 130.26 457.293 130.408 455.981 130.408C454.114 130.408 452.518 130.049 451.194 129.332C449.871 128.615 448.863 127.582 448.17 126.233C447.477 124.885 447.131 123.283 447.131 121.428C447.131 119.659 447.508 118.094 448.263 116.733C449.017 115.373 450.062 114.321 451.398 113.579C452.734 112.825 454.262 112.447 455.981 112.447ZM455.981 115.138C454.46 115.138 453.198 115.527 452.196 116.307C451.207 117.074 450.557 118.144 450.248 119.517H461.585C461.325 118.094 460.725 117.012 459.785 116.27C458.857 115.515 457.59 115.138 455.981 115.138ZM484.277 112.447C485.242 112.447 486.145 112.695 486.986 113.189C487.481 113.486 487.729 113.87 487.729 114.34C487.729 114.562 487.673 114.822 487.562 115.119C487.302 115.824 486.943 116.177 486.485 116.177C486.3 116.177 486.127 116.127 485.966 116.028C485.36 115.694 484.71 115.527 484.018 115.527C482.904 115.527 481.785 115.917 480.659 116.696C479.534 117.463 478.606 118.49 477.876 119.776C477.159 121.063 476.8 122.43 476.8 123.877V127.477H483.053C483.473 127.477 483.77 127.576 483.943 127.773C484.129 127.959 484.222 128.281 484.222 128.738C484.222 129.196 484.129 129.524 483.943 129.722C483.77 129.907 483.473 130 483.053 130H471.104C470.683 130 470.38 129.907 470.194 129.722C470.021 129.524 469.935 129.196 469.935 128.738C469.935 128.281 470.021 127.959 470.194 127.773C470.38 127.576 470.683 127.477 471.104 127.477H474.017V115.379H471.66C471.24 115.379 470.937 115.286 470.751 115.101C470.578 114.903 470.491 114.575 470.491 114.117C470.491 113.66 470.578 113.338 470.751 113.152C470.937 112.954 471.24 112.855 471.66 112.855H475.445C475.866 112.855 476.163 112.954 476.336 113.152C476.521 113.338 476.614 113.66 476.614 114.117V117.865C477.208 116.777 477.925 115.824 478.767 115.008C479.608 114.191 480.505 113.561 481.457 113.115C482.41 112.67 483.35 112.447 484.277 112.447ZM503.481 112.447C504.607 112.447 505.584 112.695 506.413 113.189C507.242 113.672 507.879 114.371 508.324 115.286C508.77 116.201 508.992 117.271 508.992 118.496V127.477H510.514C510.934 127.477 511.231 127.576 511.404 127.773C511.59 127.959 511.683 128.281 511.683 128.738C511.683 129.196 511.59 129.524 511.404 129.722C511.231 129.907 510.934 130 510.514 130H504.502C504.081 130 503.778 129.907 503.593 129.722C503.42 129.524 503.333 129.196 503.333 128.738C503.333 128.281 503.42 127.959 503.593 127.773C503.778 127.576 504.081 127.477 504.502 127.477H506.209V118.774C506.209 117.674 505.955 116.801 505.448 116.158C504.941 115.515 504.193 115.193 503.203 115.193C502.152 115.193 501.168 115.496 500.253 116.103C499.35 116.709 498.626 117.544 498.082 118.607C497.538 119.671 497.266 120.859 497.266 122.17V127.477H498.973C499.393 127.477 499.69 127.576 499.863 127.773C500.049 127.959 500.142 128.281 500.142 128.738C500.142 129.196 500.049 129.524 499.863 129.722C499.69 129.907 499.393 130 498.973 130H492.961C492.54 130 492.237 129.907 492.052 129.722C491.879 129.524 491.792 129.196 491.792 128.738C491.792 128.281 491.879 127.959 492.052 127.773C492.237 127.576 492.54 127.477 492.961 127.477H494.482V115.379H492.59C492.169 115.379 491.866 115.286 491.681 115.101C491.507 114.903 491.421 114.575 491.421 114.117C491.421 113.66 491.507 113.338 491.681 113.152C491.866 112.954 492.169 112.855 492.59 112.855H495.911C496.332 112.855 496.629 112.954 496.802 113.152C496.987 113.338 497.08 113.66 497.08 114.117V116.344C497.896 115.082 498.849 114.117 499.938 113.449C501.038 112.781 502.22 112.447 503.481 112.447ZM530.015 112.447C530.522 112.447 530.881 112.54 531.091 112.726C531.301 112.911 531.406 113.22 531.406 113.653V117.179C531.406 117.612 531.301 117.921 531.091 118.106C530.881 118.292 530.522 118.385 530.015 118.385C529.594 118.385 529.297 118.224 529.124 117.902C528.592 116.888 527.819 116.177 526.805 115.769C525.79 115.348 524.504 115.138 522.945 115.138C521.745 115.138 520.805 115.354 520.125 115.787C519.457 116.208 519.123 116.801 519.123 117.568C519.123 117.964 519.247 118.286 519.494 118.533C519.754 118.781 520.131 118.985 520.626 119.146C521.034 119.282 521.504 119.387 522.036 119.461C522.58 119.535 523.279 119.616 524.133 119.702C525.333 119.838 526.298 119.968 527.027 120.092C527.77 120.203 528.468 120.376 529.124 120.611C530.114 120.97 530.881 121.49 531.425 122.17C531.981 122.85 532.26 123.747 532.26 124.86C532.26 125.974 531.975 126.951 531.406 127.792C530.85 128.621 530.027 129.264 528.938 129.722C527.862 130.179 526.57 130.408 525.061 130.408C523.725 130.408 522.549 130.223 521.535 129.852C520.521 129.48 519.636 128.918 518.882 128.163V129.202C518.882 129.635 518.777 129.944 518.566 130.13C518.356 130.315 517.997 130.408 517.49 130.408C516.983 130.408 516.624 130.315 516.414 130.13C516.204 129.944 516.099 129.635 516.099 129.202V124.749C516.099 124.316 516.204 124.007 516.414 123.821C516.624 123.636 516.983 123.543 517.49 123.543C517.75 123.543 517.954 123.605 518.103 123.729C518.251 123.84 518.381 124.032 518.492 124.304C518.938 125.491 519.68 126.357 520.719 126.901C521.758 127.446 523.143 127.718 524.875 127.718C526.31 127.718 527.411 127.458 528.178 126.938C528.945 126.419 529.328 125.726 529.328 124.86C529.328 124.44 529.192 124.093 528.92 123.821C528.648 123.549 528.258 123.326 527.751 123.153C527.318 123.017 526.817 122.906 526.248 122.819C525.691 122.72 524.98 122.628 524.114 122.541C522.951 122.417 521.98 122.287 521.201 122.151C520.422 122.015 519.704 121.817 519.049 121.558C518.146 121.199 517.441 120.704 516.934 120.073C516.439 119.43 516.191 118.595 516.191 117.568C516.191 116.492 516.47 115.571 517.026 114.804C517.595 114.024 518.375 113.437 519.364 113.041C520.366 112.645 521.498 112.447 522.76 112.447C523.96 112.447 525.054 112.627 526.044 112.985C527.046 113.344 527.906 113.845 528.623 114.488V113.653C528.623 113.22 528.728 112.911 528.938 112.726C529.149 112.54 529.507 112.447 530.015 112.447ZM541.481 105.656C541.902 105.656 542.199 105.755 542.372 105.953C542.558 106.139 542.65 106.46 542.65 106.918V116.158C543.454 114.958 544.382 114.043 545.434 113.412C546.497 112.769 547.642 112.447 548.866 112.447C549.992 112.447 550.969 112.695 551.798 113.189C552.627 113.672 553.264 114.371 553.709 115.286C554.154 116.201 554.377 117.271 554.377 118.496V127.477H555.898C556.319 127.477 556.616 127.576 556.789 127.773C556.975 127.959 557.067 128.281 557.067 128.738C557.067 129.196 556.975 129.524 556.789 129.722C556.616 129.907 556.319 130 555.898 130H549.887C549.466 130 549.163 129.907 548.978 129.722C548.804 129.524 548.718 129.196 548.718 128.738C548.718 128.281 548.804 127.959 548.978 127.773C549.163 127.576 549.466 127.477 549.887 127.477H551.594V118.774C551.594 117.674 551.34 116.801 550.833 116.158C550.326 115.515 549.577 115.193 548.588 115.193C547.536 115.193 546.553 115.496 545.638 116.103C544.735 116.709 544.011 117.544 543.467 118.607C542.923 119.671 542.65 120.859 542.65 122.17V127.477H544.357C544.778 127.477 545.075 127.576 545.248 127.773C545.434 127.959 545.526 128.281 545.526 128.738C545.526 129.196 545.434 129.524 545.248 129.722C545.075 129.907 544.778 130 544.357 130H538.346C537.925 130 537.622 129.907 537.437 129.722C537.263 129.524 537.177 129.196 537.177 128.738C537.177 128.281 537.263 127.959 537.437 127.773C537.622 127.576 537.925 127.477 538.346 127.477H539.867V108.18H538.16C537.74 108.18 537.437 108.087 537.251 107.901C537.078 107.703 536.991 107.376 536.991 106.918C536.991 106.46 537.078 106.139 537.251 105.953C537.437 105.755 537.74 105.656 538.16 105.656H541.481ZM570.408 112.855C570.829 112.855 571.126 112.954 571.299 113.152C571.484 113.338 571.577 113.66 571.577 114.117V127.477H577.533C577.954 127.477 578.251 127.576 578.424 127.773C578.609 127.959 578.702 128.281 578.702 128.738C578.702 129.196 578.609 129.524 578.424 129.722C578.251 129.907 577.954 130 577.533 130H562.986C562.566 130 562.263 129.907 562.077 129.722C561.904 129.524 561.817 129.196 561.817 128.738C561.817 128.281 561.904 127.959 562.077 127.773C562.263 127.576 562.566 127.477 562.986 127.477H568.794V115.379H564.1C563.679 115.379 563.376 115.286 563.19 115.101C563.017 114.903 562.931 114.575 562.931 114.117C562.931 113.66 563.017 113.338 563.19 113.152C563.376 112.954 563.679 112.855 564.1 112.855H570.408ZM569.814 104.71C570.495 104.71 570.959 104.803 571.206 104.988C571.453 105.161 571.577 105.471 571.577 105.916V108.328C571.577 108.773 571.453 109.089 571.206 109.274C570.959 109.448 570.495 109.534 569.814 109.534C569.134 109.534 568.67 109.448 568.423 109.274C568.175 109.089 568.052 108.773 568.052 108.328V105.916C568.052 105.471 568.175 105.161 568.423 104.988C568.67 104.803 569.134 104.71 569.814 104.71ZM593.546 112.447C595.08 112.447 596.453 112.812 597.665 113.542C598.877 114.259 599.83 115.299 600.522 116.659C601.215 118.007 601.562 119.597 601.562 121.428C601.562 123.258 601.215 124.854 600.522 126.215C599.83 127.563 598.877 128.602 597.665 129.332C596.453 130.049 595.08 130.408 593.546 130.408C591.22 130.408 589.26 129.388 587.664 127.347V134.676H590.855C591.276 134.676 591.573 134.769 591.746 134.954C591.932 135.152 592.024 135.48 592.024 135.938C592.024 136.395 591.932 136.717 591.746 136.902C591.573 137.1 591.276 137.199 590.855 137.199H582.988C582.568 137.199 582.265 137.1 582.079 136.902C581.906 136.717 581.819 136.395 581.819 135.938C581.819 135.48 581.906 135.152 582.079 134.954C582.265 134.769 582.568 134.676 582.988 134.676H584.881V115.379H583.359C582.939 115.379 582.636 115.286 582.45 115.101C582.277 114.903 582.19 114.575 582.19 114.117C582.19 113.66 582.277 113.338 582.45 113.152C582.636 112.954 582.939 112.855 583.359 112.855H586.31C586.73 112.855 587.027 112.954 587.2 113.152C587.386 113.338 587.479 113.66 587.479 114.117V115.602C588.258 114.587 589.161 113.808 590.188 113.264C591.214 112.719 592.334 112.447 593.546 112.447ZM593.36 115.193C592.259 115.193 591.276 115.441 590.41 115.936C589.557 116.43 588.882 117.148 588.388 118.088C587.905 119.028 587.664 120.141 587.664 121.428C587.664 122.714 587.905 123.827 588.388 124.768C588.882 125.708 589.557 126.425 590.41 126.92C591.276 127.415 592.259 127.662 593.36 127.662C594.461 127.662 595.408 127.402 596.199 126.883C596.991 126.351 597.591 125.615 597.999 124.675C598.42 123.735 598.63 122.652 598.63 121.428C598.63 120.203 598.42 119.121 597.999 118.181C597.591 117.241 596.991 116.511 596.199 115.991C595.408 115.459 594.461 115.193 593.36 115.193ZM621.155 112.447C621.662 112.447 622.021 112.54 622.231 112.726C622.442 112.911 622.547 113.22 622.547 113.653V117.179C622.547 117.612 622.442 117.921 622.231 118.106C622.021 118.292 621.662 118.385 621.155 118.385C620.735 118.385 620.438 118.224 620.265 117.902C619.733 116.888 618.96 116.177 617.945 115.769C616.931 115.348 615.645 115.138 614.086 115.138C612.886 115.138 611.946 115.354 611.266 115.787C610.598 116.208 610.264 116.801 610.264 117.568C610.264 117.964 610.387 118.286 610.635 118.533C610.895 118.781 611.272 118.985 611.767 119.146C612.175 119.282 612.645 119.387 613.177 119.461C613.721 119.535 614.42 119.616 615.273 119.702C616.473 119.838 617.438 119.968 618.168 120.092C618.91 120.203 619.609 120.376 620.265 120.611C621.254 120.97 622.021 121.49 622.565 122.17C623.122 122.85 623.4 123.747 623.4 124.86C623.4 125.974 623.116 126.951 622.547 127.792C621.99 128.621 621.168 129.264 620.079 129.722C619.003 130.179 617.71 130.408 616.201 130.408C614.865 130.408 613.69 130.223 612.676 129.852C611.661 129.48 610.777 128.918 610.022 128.163V129.202C610.022 129.635 609.917 129.944 609.707 130.13C609.497 130.315 609.138 130.408 608.631 130.408C608.124 130.408 607.765 130.315 607.555 130.13C607.344 129.944 607.239 129.635 607.239 129.202V124.749C607.239 124.316 607.344 124.007 607.555 123.821C607.765 123.636 608.124 123.543 608.631 123.543C608.891 123.543 609.095 123.605 609.243 123.729C609.392 123.84 609.521 124.032 609.633 124.304C610.078 125.491 610.82 126.357 611.859 126.901C612.898 127.446 614.284 127.718 616.016 127.718C617.451 127.718 618.551 127.458 619.318 126.938C620.085 126.419 620.469 125.726 620.469 124.86C620.469 124.44 620.333 124.093 620.061 123.821C619.788 123.549 619.399 123.326 618.892 123.153C618.459 123.017 617.958 122.906 617.389 122.819C616.832 122.72 616.121 122.628 615.255 122.541C614.092 122.417 613.121 122.287 612.342 122.151C611.562 122.015 610.845 121.817 610.189 121.558C609.286 121.199 608.581 120.704 608.074 120.073C607.579 119.43 607.332 118.595 607.332 117.568C607.332 116.492 607.61 115.571 608.167 114.804C608.736 114.024 609.515 113.437 610.505 113.041C611.507 112.645 612.639 112.447 613.9 112.447C615.1 112.447 616.195 112.627 617.185 112.985C618.187 113.344 619.046 113.845 619.764 114.488V113.653C619.764 113.22 619.869 112.911 620.079 112.726C620.289 112.54 620.648 112.447 621.155 112.447Z" fill="black"/>
</svg>
