<svg width="763" height="457" viewBox="0 0 763 457" fill="none" xmlns="http://www.w3.org/2000/svg">
<path d="M40 42C40 40.8954 40.8954 40 42 40H721C722.105 40 723 40.8954 723 42V415C723 416.105 722.105 417 721 417H42C40.8954 417 40 416.105 40 415V42Z" fill="#404040"/>
<path d="M215.464 285.205C210.726 296.824 194.274 296.824 189.536 285.205L156.237 203.536C152.482 194.328 159.256 184.25 169.201 184.25H235.799C245.744 184.25 252.518 194.327 248.763 203.536L215.464 285.205Z" fill="#D9D9D9"/>
<path d="M221 260.5C221 283.972 212.493 303 202 303C191.507 303 183 283.972 183 260.5C183 237.028 191.507 218 202 218C212.493 218 221 237.028 221 260.5Z" fill="#7A87FF"/>
<path d="M212.322 227.009C207.543 233.816 197.457 233.816 192.678 227.009L169.432 193.895C163.85 185.943 169.538 175 179.253 175H225.747C235.462 175 241.15 185.943 235.568 193.895L212.322 227.009Z" fill="#8C83C2"/>
<path d="M208.671 207.924C205.507 212.702 198.493 212.702 195.329 207.924L172.981 174.166C169.46 168.848 173.273 161.75 179.651 161.75H224.349C230.727 161.75 234.54 168.848 231.019 174.166L208.671 207.924Z" fill="#1E1E1E"/>
<path d="M291.457 204.816C291.9 204.816 292.212 204.921 292.395 205.129C292.59 205.324 292.688 205.663 292.688 206.145C292.688 206.626 292.59 206.971 292.395 207.18C292.212 207.375 291.9 207.473 291.457 207.473H286.457V225.344H291.848C292.29 225.344 292.603 225.448 292.785 225.656C292.98 225.852 293.078 226.19 293.078 226.672C293.078 227.154 292.98 227.499 292.785 227.707C292.603 227.902 292.29 228 291.848 228H278.137C277.694 228 277.375 227.902 277.18 227.707C276.997 227.499 276.906 227.154 276.906 226.672C276.906 226.19 276.997 225.852 277.18 225.656C277.375 225.448 277.694 225.344 278.137 225.344H283.527V207.473H278.527C278.085 207.473 277.766 207.375 277.57 207.18C277.388 206.971 277.297 206.626 277.297 206.145C277.297 205.663 277.388 205.324 277.57 205.129C277.766 204.921 278.085 204.816 278.527 204.816H291.457ZM311.184 209.523C312.368 209.523 313.397 209.784 314.27 210.305C315.142 210.812 315.812 211.548 316.281 212.512C316.75 213.475 316.984 214.602 316.984 215.891V225.344H318.586C319.029 225.344 319.341 225.448 319.523 225.656C319.719 225.852 319.816 226.19 319.816 226.672C319.816 227.154 319.719 227.499 319.523 227.707C319.341 227.902 319.029 228 318.586 228H312.258C311.815 228 311.496 227.902 311.301 227.707C311.118 227.499 311.027 227.154 311.027 226.672C311.027 226.19 311.118 225.852 311.301 225.656C311.496 225.448 311.815 225.344 312.258 225.344H314.055V216.184C314.055 215.025 313.788 214.107 313.254 213.43C312.72 212.753 311.932 212.414 310.891 212.414C309.784 212.414 308.749 212.733 307.785 213.371C306.835 214.009 306.073 214.888 305.5 216.008C304.927 217.128 304.641 218.378 304.641 219.758V225.344H306.438C306.88 225.344 307.193 225.448 307.375 225.656C307.57 225.852 307.668 226.19 307.668 226.672C307.668 227.154 307.57 227.499 307.375 227.707C307.193 227.902 306.88 228 306.438 228H300.109C299.667 228 299.348 227.902 299.152 227.707C298.97 227.499 298.879 227.154 298.879 226.672C298.879 226.19 298.97 225.852 299.152 225.656C299.348 225.448 299.667 225.344 300.109 225.344H301.711V212.609H299.719C299.276 212.609 298.957 212.512 298.762 212.316C298.579 212.108 298.488 211.763 298.488 211.281C298.488 210.799 298.579 210.461 298.762 210.266C298.957 210.057 299.276 209.953 299.719 209.953H303.215C303.658 209.953 303.97 210.057 304.152 210.266C304.348 210.461 304.445 210.799 304.445 211.281V213.625C305.305 212.297 306.307 211.281 307.453 210.578C308.612 209.875 309.855 209.523 311.184 209.523ZM329.914 204.387C330.448 204.387 330.826 204.484 331.047 204.68C331.268 204.875 331.379 205.201 331.379 205.656V211.516H339.406C339.849 211.516 340.161 211.62 340.344 211.828C340.539 212.023 340.637 212.362 340.637 212.844C340.637 213.326 340.539 213.671 340.344 213.879C340.161 214.074 339.849 214.172 339.406 214.172H331.379V221.281C331.379 222.766 331.633 223.853 332.141 224.543C332.661 225.233 333.56 225.578 334.836 225.578C335.708 225.578 336.626 225.402 337.59 225.051C338.553 224.699 339.484 224.23 340.383 223.645C340.565 223.514 340.767 223.449 340.988 223.449C341.431 223.449 341.809 223.749 342.121 224.348C342.29 224.686 342.375 224.979 342.375 225.227C342.375 225.643 342.16 225.982 341.73 226.242C340.715 226.88 339.582 227.408 338.332 227.824C337.082 228.228 335.917 228.43 334.836 228.43C332.622 228.43 331.001 227.857 329.973 226.711C328.957 225.552 328.449 223.827 328.449 221.535V214.172H324.484C324.042 214.172 323.723 214.074 323.527 213.879C323.345 213.671 323.254 213.326 323.254 212.844C323.254 212.362 323.345 212.023 323.527 211.828C323.723 211.62 324.042 211.516 324.484 211.516H328.449V205.656C328.449 205.201 328.56 204.875 328.781 204.68C329.003 204.484 329.38 204.387 329.914 204.387ZM357.121 209.523C359.009 209.523 360.617 209.908 361.945 210.676C363.286 211.431 364.315 212.486 365.031 213.84C365.747 215.181 366.158 216.73 366.262 218.488C366.262 218.931 366.164 219.243 365.969 219.426C365.786 219.608 365.474 219.699 365.031 219.699H350.891C350.982 221.639 351.555 223.111 352.609 224.113C353.677 225.103 355.181 225.598 357.121 225.598C358.319 225.598 359.504 225.448 360.676 225.148C361.848 224.836 362.876 224.426 363.762 223.918C363.983 223.801 364.185 223.742 364.367 223.742C364.823 223.742 365.194 224.087 365.48 224.777C365.598 225.051 365.656 225.298 365.656 225.52C365.656 226.04 365.37 226.444 364.797 226.73C363.794 227.238 362.609 227.648 361.242 227.961C359.875 228.273 358.501 228.43 357.121 228.43C355.155 228.43 353.475 228.052 352.082 227.297C350.689 226.542 349.628 225.454 348.898 224.035C348.169 222.616 347.805 220.93 347.805 218.977C347.805 217.115 348.202 215.467 348.996 214.035C349.79 212.603 350.891 211.496 352.297 210.715C353.703 209.921 355.311 209.523 357.121 209.523ZM357.121 212.355C355.52 212.355 354.191 212.766 353.137 213.586C352.095 214.393 351.411 215.52 351.086 216.965H363.02C362.746 215.467 362.115 214.328 361.125 213.547C360.148 212.753 358.814 212.355 357.121 212.355ZM386.906 209.523C387.922 209.523 388.872 209.784 389.758 210.305C390.279 210.617 390.539 211.021 390.539 211.516C390.539 211.75 390.48 212.023 390.363 212.336C390.09 213.078 389.712 213.449 389.23 213.449C389.035 213.449 388.853 213.397 388.684 213.293C388.046 212.941 387.362 212.766 386.633 212.766C385.461 212.766 384.283 213.176 383.098 213.996C381.913 214.803 380.936 215.884 380.168 217.238C379.413 218.592 379.035 220.031 379.035 221.555V225.344H385.617C386.06 225.344 386.372 225.448 386.555 225.656C386.75 225.852 386.848 226.19 386.848 226.672C386.848 227.154 386.75 227.499 386.555 227.707C386.372 227.902 386.06 228 385.617 228H373.039C372.596 228 372.277 227.902 372.082 227.707C371.9 227.499 371.809 227.154 371.809 226.672C371.809 226.19 371.9 225.852 372.082 225.656C372.277 225.448 372.596 225.344 373.039 225.344H376.105V212.609H373.625C373.182 212.609 372.863 212.512 372.668 212.316C372.486 212.108 372.395 211.763 372.395 211.281C372.395 210.799 372.486 210.461 372.668 210.266C372.863 210.057 373.182 209.953 373.625 209.953H377.609C378.052 209.953 378.365 210.057 378.547 210.266C378.742 210.461 378.84 210.799 378.84 211.281V215.227C379.465 214.081 380.22 213.078 381.105 212.219C381.991 211.359 382.935 210.695 383.938 210.227C384.94 209.758 385.93 209.523 386.906 209.523ZM414.699 209.953C415.142 209.953 415.454 210.057 415.637 210.266C415.832 210.461 415.93 210.799 415.93 211.281C415.93 211.763 415.832 212.108 415.637 212.316C415.454 212.512 415.142 212.609 414.699 212.609H413.469L407.16 227.16C406.978 227.603 406.704 227.922 406.34 228.117C405.988 228.326 405.493 228.43 404.855 228.43C404.23 228.43 403.742 228.326 403.391 228.117C403.052 227.922 402.785 227.603 402.59 227.16L396.34 212.609H395.129C394.686 212.609 394.367 212.512 394.172 212.316C393.99 212.108 393.898 211.763 393.898 211.281C393.898 210.799 393.99 210.461 394.172 210.266C394.367 210.057 394.686 209.953 395.129 209.953H402.043C402.486 209.953 402.798 210.057 402.98 210.266C403.176 210.461 403.273 210.799 403.273 211.281C403.273 211.763 403.176 212.108 402.98 212.316C402.798 212.512 402.486 212.609 402.043 212.609H399.543L404.875 225.344L410.266 212.609H408.566C408.124 212.609 407.805 212.512 407.609 212.316C407.427 212.108 407.336 211.763 407.336 211.281C407.336 210.799 407.427 210.461 407.609 210.266C407.805 210.057 408.124 209.953 408.566 209.953H414.699ZM429.602 209.953C430.044 209.953 430.357 210.057 430.539 210.266C430.734 210.461 430.832 210.799 430.832 211.281V225.344H437.102C437.544 225.344 437.857 225.448 438.039 225.656C438.234 225.852 438.332 226.19 438.332 226.672C438.332 227.154 438.234 227.499 438.039 227.707C437.857 227.902 437.544 228 437.102 228H421.789C421.346 228 421.027 227.902 420.832 227.707C420.65 227.499 420.559 227.154 420.559 226.672C420.559 226.19 420.65 225.852 420.832 225.656C421.027 225.448 421.346 225.344 421.789 225.344H427.902V212.609H422.961C422.518 212.609 422.199 212.512 422.004 212.316C421.822 212.108 421.73 211.763 421.73 211.281C421.73 210.799 421.822 210.461 422.004 210.266C422.199 210.057 422.518 209.953 422.961 209.953H429.602ZM428.977 201.379C429.693 201.379 430.181 201.477 430.441 201.672C430.702 201.854 430.832 202.18 430.832 202.648V205.188C430.832 205.656 430.702 205.988 430.441 206.184C430.181 206.366 429.693 206.457 428.977 206.457C428.26 206.457 427.772 206.366 427.512 206.184C427.251 205.988 427.121 205.656 427.121 205.188V202.648C427.121 202.18 427.251 201.854 427.512 201.672C427.772 201.477 428.26 201.379 428.977 201.379ZM453.059 209.523C454.947 209.523 456.555 209.908 457.883 210.676C459.224 211.431 460.253 212.486 460.969 213.84C461.685 215.181 462.095 216.73 462.199 218.488C462.199 218.931 462.102 219.243 461.906 219.426C461.724 219.608 461.411 219.699 460.969 219.699H446.828C446.919 221.639 447.492 223.111 448.547 224.113C449.615 225.103 451.118 225.598 453.059 225.598C454.257 225.598 455.441 225.448 456.613 225.148C457.785 224.836 458.814 224.426 459.699 223.918C459.921 223.801 460.122 223.742 460.305 223.742C460.76 223.742 461.132 224.087 461.418 224.777C461.535 225.051 461.594 225.298 461.594 225.52C461.594 226.04 461.307 226.444 460.734 226.73C459.732 227.238 458.547 227.648 457.18 227.961C455.812 228.273 454.439 228.43 453.059 228.43C451.092 228.43 449.413 228.052 448.02 227.297C446.626 226.542 445.565 225.454 444.836 224.035C444.107 222.616 443.742 220.93 443.742 218.977C443.742 217.115 444.139 215.467 444.934 214.035C445.728 212.603 446.828 211.496 448.234 210.715C449.641 209.921 451.249 209.523 453.059 209.523ZM453.059 212.355C451.457 212.355 450.129 212.766 449.074 213.586C448.033 214.393 447.349 215.52 447.023 216.965H458.957C458.684 215.467 458.052 214.328 457.062 213.547C456.086 212.753 454.751 212.355 453.059 212.355ZM487.824 209.953C488.267 209.953 488.579 210.057 488.762 210.266C488.957 210.461 489.055 210.799 489.055 211.281C489.055 211.763 488.957 212.108 488.762 212.316C488.579 212.512 488.267 212.609 487.824 212.609H487.355L483.508 227.16C483.378 227.629 483.182 227.954 482.922 228.137C482.674 228.332 482.303 228.43 481.809 228.43C481.249 228.43 480.806 228.326 480.48 228.117C480.168 227.922 479.934 227.603 479.777 227.16L476.789 218.684L473.762 227.16C473.605 227.603 473.358 227.922 473.02 228.117C472.694 228.326 472.251 228.43 471.691 228.43C471.197 228.43 470.826 228.332 470.578 228.137C470.331 227.954 470.148 227.629 470.031 227.16L466.262 212.609H465.91C465.467 212.609 465.148 212.512 464.953 212.316C464.771 212.108 464.68 211.763 464.68 211.281C464.68 210.799 464.771 210.461 464.953 210.266C465.148 210.057 465.467 209.953 465.91 209.953H471.652C472.095 209.953 472.408 210.057 472.59 210.266C472.785 210.461 472.883 210.799 472.883 211.281C472.883 211.763 472.785 212.108 472.59 212.316C472.408 212.512 472.095 212.609 471.652 212.609H469.25L472.062 223.977L475.324 214.914C475.415 214.641 475.585 214.419 475.832 214.25C476.079 214.081 476.405 213.996 476.809 213.996C477.629 213.996 478.13 214.257 478.312 214.777L481.555 223.977L484.445 212.609H482.473C482.03 212.609 481.711 212.512 481.516 212.316C481.333 212.108 481.242 211.763 481.242 211.281C481.242 210.799 481.333 210.461 481.516 210.266C481.711 210.057 482.03 209.953 482.473 209.953H487.824ZM526.32 204.816C528.052 204.816 529.536 205.122 530.773 205.734C532.01 206.346 532.948 207.212 533.586 208.332C534.237 209.452 534.562 210.747 534.562 212.219C534.562 213.69 534.237 214.979 533.586 216.086C532.948 217.18 532.01 218.033 530.773 218.645C529.536 219.243 528.052 219.543 526.32 219.543H521.73V225.344H526.418C526.861 225.344 527.173 225.448 527.355 225.656C527.551 225.852 527.648 226.19 527.648 226.672C527.648 227.154 527.551 227.499 527.355 227.707C527.173 227.902 526.861 228 526.418 228H515.637C515.194 228 514.875 227.902 514.68 227.707C514.497 227.499 514.406 227.154 514.406 226.672C514.406 226.19 514.497 225.852 514.68 225.656C514.875 225.448 515.194 225.344 515.637 225.344H518.801V207.473H515.637C515.194 207.473 514.875 207.375 514.68 207.18C514.497 206.971 514.406 206.626 514.406 206.145C514.406 205.663 514.497 205.324 514.68 205.129C514.875 204.921 515.194 204.816 515.637 204.816H526.32ZM521.73 216.887H525.91C527.72 216.887 529.1 216.477 530.051 215.656C531.001 214.836 531.477 213.69 531.477 212.219C531.477 210.721 530.995 209.556 530.031 208.723C529.081 207.889 527.707 207.473 525.91 207.473H521.73V216.887ZM554.797 209.523C555.812 209.523 556.763 209.784 557.648 210.305C558.169 210.617 558.43 211.021 558.43 211.516C558.43 211.75 558.371 212.023 558.254 212.336C557.98 213.078 557.603 213.449 557.121 213.449C556.926 213.449 556.743 213.397 556.574 213.293C555.936 212.941 555.253 212.766 554.523 212.766C553.352 212.766 552.173 213.176 550.988 213.996C549.803 214.803 548.827 215.884 548.059 217.238C547.303 218.592 546.926 220.031 546.926 221.555V225.344H553.508C553.951 225.344 554.263 225.448 554.445 225.656C554.641 225.852 554.738 226.19 554.738 226.672C554.738 227.154 554.641 227.499 554.445 227.707C554.263 227.902 553.951 228 553.508 228H540.93C540.487 228 540.168 227.902 539.973 227.707C539.79 227.499 539.699 227.154 539.699 226.672C539.699 226.19 539.79 225.852 539.973 225.656C540.168 225.448 540.487 225.344 540.93 225.344H543.996V212.609H541.516C541.073 212.609 540.754 212.512 540.559 212.316C540.376 212.108 540.285 211.763 540.285 211.281C540.285 210.799 540.376 210.461 540.559 210.266C540.754 210.057 541.073 209.953 541.516 209.953H545.5C545.943 209.953 546.255 210.057 546.438 210.266C546.633 210.461 546.73 210.799 546.73 211.281V215.227C547.355 214.081 548.111 213.078 548.996 212.219C549.882 211.359 550.826 210.695 551.828 210.227C552.831 209.758 553.82 209.523 554.797 209.523ZM572.98 209.523C574.868 209.523 576.477 209.908 577.805 210.676C579.146 211.431 580.174 212.486 580.891 213.84C581.607 215.181 582.017 216.73 582.121 218.488C582.121 218.931 582.023 219.243 581.828 219.426C581.646 219.608 581.333 219.699 580.891 219.699H566.75C566.841 221.639 567.414 223.111 568.469 224.113C569.536 225.103 571.04 225.598 572.98 225.598C574.178 225.598 575.363 225.448 576.535 225.148C577.707 224.836 578.736 224.426 579.621 223.918C579.842 223.801 580.044 223.742 580.227 223.742C580.682 223.742 581.053 224.087 581.34 224.777C581.457 225.051 581.516 225.298 581.516 225.52C581.516 226.04 581.229 226.444 580.656 226.73C579.654 227.238 578.469 227.648 577.102 227.961C575.734 228.273 574.361 228.43 572.98 228.43C571.014 228.43 569.335 228.052 567.941 227.297C566.548 226.542 565.487 225.454 564.758 224.035C564.029 222.616 563.664 220.93 563.664 218.977C563.664 217.115 564.061 215.467 564.855 214.035C565.65 212.603 566.75 211.496 568.156 210.715C569.562 209.921 571.171 209.523 572.98 209.523ZM572.98 212.355C571.379 212.355 570.051 212.766 568.996 213.586C567.954 214.393 567.271 215.52 566.945 216.965H578.879C578.605 215.467 577.974 214.328 576.984 213.547C576.008 212.753 574.673 212.355 572.98 212.355ZM597.863 209.523C599.478 209.523 600.923 209.908 602.199 210.676C603.475 211.431 604.478 212.525 605.207 213.957C605.936 215.376 606.301 217.049 606.301 218.977C606.301 220.904 605.936 222.583 605.207 224.016C604.478 225.435 603.475 226.529 602.199 227.297C600.923 228.052 599.478 228.43 597.863 228.43C595.415 228.43 593.352 227.355 591.672 225.207V232.922H595.031C595.474 232.922 595.786 233.02 595.969 233.215C596.164 233.423 596.262 233.768 596.262 234.25C596.262 234.732 596.164 235.07 595.969 235.266C595.786 235.474 595.474 235.578 595.031 235.578H586.75C586.307 235.578 585.988 235.474 585.793 235.266C585.611 235.07 585.52 234.732 585.52 234.25C585.52 233.768 585.611 233.423 585.793 233.215C585.988 233.02 586.307 232.922 586.75 232.922H588.742V212.609H587.141C586.698 212.609 586.379 212.512 586.184 212.316C586.001 212.108 585.91 211.763 585.91 211.281C585.91 210.799 586.001 210.461 586.184 210.266C586.379 210.057 586.698 209.953 587.141 209.953H590.246C590.689 209.953 591.001 210.057 591.184 210.266C591.379 210.461 591.477 210.799 591.477 211.281V212.844C592.297 211.776 593.247 210.956 594.328 210.383C595.409 209.81 596.587 209.523 597.863 209.523ZM597.668 212.414C596.509 212.414 595.474 212.674 594.562 213.195C593.664 213.716 592.954 214.471 592.434 215.461C591.926 216.451 591.672 217.622 591.672 218.977C591.672 220.331 591.926 221.503 592.434 222.492C592.954 223.482 593.664 224.237 594.562 224.758C595.474 225.279 596.509 225.539 597.668 225.539C598.827 225.539 599.823 225.266 600.656 224.719C601.49 224.159 602.121 223.384 602.551 222.395C602.993 221.405 603.215 220.266 603.215 218.977C603.215 217.688 602.993 216.548 602.551 215.559C602.121 214.569 601.49 213.801 600.656 213.254C599.823 212.694 598.827 212.414 597.668 212.414Z" fill="white"/>
<path d="M309.639 254.193C309.906 254.193 310.094 254.242 310.205 254.34C310.316 254.438 310.371 254.6 310.371 254.828V257.66C310.371 257.888 310.316 258.051 310.205 258.148C310.094 258.246 309.906 258.295 309.639 258.295C309.372 258.295 309.183 258.246 309.072 258.148C308.962 258.051 308.906 257.888 308.906 257.66C308.906 257.27 308.799 256.921 308.584 256.615C308.376 256.309 308.066 256.072 307.656 255.902C307.246 255.727 306.758 255.639 306.191 255.639C305.469 255.639 304.827 255.824 304.268 256.195C303.714 256.566 303.281 257.097 302.969 257.787C302.656 258.477 302.5 259.285 302.5 260.209C302.5 261.133 302.646 261.941 302.939 262.631C303.239 263.314 303.659 263.842 304.199 264.213C304.746 264.584 305.378 264.77 306.094 264.77C307.233 264.77 308.206 264.584 309.014 264.213V261.996H306.602C306.38 261.996 306.221 261.947 306.123 261.85C306.032 261.745 305.986 261.573 305.986 261.332C305.986 261.091 306.032 260.922 306.123 260.824C306.221 260.72 306.38 260.668 306.602 260.668H310.791C311.012 260.668 311.169 260.72 311.26 260.824C311.357 260.922 311.406 261.091 311.406 261.332C311.406 261.573 311.357 261.745 311.26 261.85C311.169 261.947 311.012 261.996 310.791 261.996H310.479V264.604C310.479 264.923 310.361 265.147 310.127 265.277C309.593 265.583 308.978 265.818 308.281 265.98C307.585 266.137 306.855 266.215 306.094 266.215C305.078 266.215 304.18 265.967 303.398 265.473C302.624 264.971 302.021 264.268 301.592 263.363C301.169 262.452 300.957 261.4 300.957 260.209C300.957 259.024 301.175 257.976 301.611 257.064C302.054 256.153 302.663 255.447 303.438 254.945C304.219 254.444 305.104 254.193 306.094 254.193C306.706 254.193 307.246 254.291 307.715 254.486C308.19 254.675 308.587 254.949 308.906 255.307V254.828C308.906 254.6 308.962 254.438 309.072 254.34C309.183 254.242 309.372 254.193 309.639 254.193ZM317.988 256.762C318.88 256.762 319.684 256.964 320.4 257.367C321.117 257.771 321.676 258.334 322.08 259.057C322.49 259.773 322.695 260.583 322.695 261.488C322.695 262.393 322.49 263.207 322.08 263.93C321.676 264.646 321.117 265.206 320.4 265.609C319.684 266.013 318.88 266.215 317.988 266.215C317.096 266.215 316.292 266.013 315.576 265.609C314.86 265.206 314.297 264.646 313.887 263.93C313.483 263.207 313.281 262.393 313.281 261.488C313.281 260.583 313.483 259.773 313.887 259.057C314.297 258.334 314.86 257.771 315.576 257.367C316.292 256.964 317.096 256.762 317.988 256.762ZM317.988 258.207C317.357 258.207 316.8 258.347 316.318 258.627C315.843 258.9 315.475 259.288 315.215 259.789C314.954 260.284 314.824 260.85 314.824 261.488C314.824 262.126 314.954 262.696 315.215 263.197C315.475 263.692 315.843 264.079 316.318 264.359C316.8 264.633 317.357 264.77 317.988 264.77C318.62 264.77 319.173 264.633 319.648 264.359C320.13 264.079 320.501 263.692 320.762 263.197C321.022 262.696 321.152 262.126 321.152 261.488C321.152 260.85 321.022 260.284 320.762 259.789C320.501 259.288 320.13 258.9 319.648 258.627C319.173 258.347 318.62 258.207 317.988 258.207ZM341.436 256.762C342.074 256.762 342.663 256.905 343.203 257.191C343.743 257.478 344.219 257.888 344.629 258.422V257.641C344.629 257.4 344.674 257.23 344.766 257.133C344.863 257.029 345.023 256.977 345.244 256.977H346.797C347.018 256.977 347.174 257.029 347.266 257.133C347.363 257.23 347.412 257.4 347.412 257.641C347.412 257.882 347.363 258.054 347.266 258.158C347.174 258.256 347.018 258.305 346.797 258.305H345.996V266.293C345.996 267.068 345.83 267.732 345.498 268.285C345.173 268.845 344.697 269.271 344.072 269.564C343.447 269.857 342.695 270.004 341.816 270.004C341.191 270.004 340.56 269.949 339.922 269.838C339.284 269.734 338.688 269.581 338.135 269.379C337.881 269.288 337.754 269.115 337.754 268.861C337.754 268.757 337.78 268.627 337.832 268.471C337.949 268.113 338.135 267.934 338.389 267.934C338.46 267.934 338.532 267.947 338.604 267.973C339.111 268.155 339.645 268.298 340.205 268.402C340.765 268.507 341.302 268.559 341.816 268.559C342.715 268.559 343.392 268.344 343.848 267.914C344.303 267.491 344.531 266.908 344.531 266.166V264.203C343.724 265.219 342.692 265.727 341.436 265.727C340.628 265.727 339.906 265.548 339.268 265.189C338.63 264.825 338.128 264.304 337.764 263.627C337.399 262.95 337.217 262.156 337.217 261.244C337.217 260.333 337.399 259.538 337.764 258.861C338.128 258.184 338.63 257.667 339.268 257.309C339.906 256.944 340.628 256.762 341.436 256.762ZM341.533 258.207C340.954 258.207 340.456 258.337 340.039 258.598C339.622 258.852 339.303 259.21 339.082 259.672C338.867 260.128 338.76 260.652 338.76 261.244C338.76 261.837 338.867 262.364 339.082 262.826C339.303 263.282 339.622 263.64 340.039 263.9C340.456 264.154 340.954 264.281 341.533 264.281C342.113 264.281 342.627 264.161 343.076 263.92C343.532 263.679 343.887 263.331 344.141 262.875C344.401 262.413 344.531 261.869 344.531 261.244C344.531 260.619 344.401 260.079 344.141 259.623C343.887 259.161 343.532 258.809 343.076 258.568C342.627 258.327 342.113 258.207 341.533 258.207ZM354.053 256.762C354.997 256.762 355.801 256.954 356.465 257.338C357.135 257.715 357.65 258.243 358.008 258.92C358.366 259.59 358.571 260.365 358.623 261.244C358.623 261.465 358.574 261.622 358.477 261.713C358.385 261.804 358.229 261.85 358.008 261.85H350.938C350.983 262.82 351.27 263.555 351.797 264.057C352.331 264.551 353.083 264.799 354.053 264.799C354.652 264.799 355.244 264.724 355.83 264.574C356.416 264.418 356.93 264.213 357.373 263.959C357.484 263.9 357.585 263.871 357.676 263.871C357.904 263.871 358.089 264.044 358.232 264.389C358.291 264.525 358.32 264.649 358.32 264.76C358.32 265.02 358.177 265.222 357.891 265.365C357.389 265.619 356.797 265.824 356.113 265.98C355.43 266.137 354.743 266.215 354.053 266.215C353.07 266.215 352.23 266.026 351.533 265.648C350.837 265.271 350.306 264.727 349.941 264.018C349.577 263.308 349.395 262.465 349.395 261.488C349.395 260.557 349.593 259.734 349.99 259.018C350.387 258.301 350.938 257.748 351.641 257.357C352.344 256.96 353.148 256.762 354.053 256.762ZM354.053 258.178C353.252 258.178 352.588 258.383 352.061 258.793C351.54 259.197 351.198 259.76 351.035 260.482H357.002C356.865 259.734 356.549 259.164 356.055 258.773C355.566 258.376 354.899 258.178 354.053 258.178ZM364.434 254.193C364.701 254.193 364.889 254.242 365 254.34C365.111 254.438 365.166 254.6 365.166 254.828V257.758H369.18C369.401 257.758 369.557 257.81 369.648 257.914C369.746 258.012 369.795 258.181 369.795 258.422C369.795 258.663 369.746 258.835 369.648 258.939C369.557 259.037 369.401 259.086 369.18 259.086H365.166V262.641C365.166 263.383 365.293 263.926 365.547 264.271C365.807 264.617 366.257 264.789 366.895 264.789C367.331 264.789 367.79 264.701 368.271 264.525C368.753 264.35 369.219 264.115 369.668 263.822C369.759 263.757 369.86 263.725 369.971 263.725C370.192 263.725 370.381 263.874 370.537 264.174C370.622 264.343 370.664 264.49 370.664 264.613C370.664 264.822 370.557 264.991 370.342 265.121C369.834 265.44 369.268 265.704 368.643 265.912C368.018 266.114 367.435 266.215 366.895 266.215C365.788 266.215 364.977 265.928 364.463 265.355C363.955 264.776 363.701 263.913 363.701 262.768V259.086H361.719C361.497 259.086 361.338 259.037 361.24 258.939C361.149 258.835 361.104 258.663 361.104 258.422C361.104 258.181 361.149 258.012 361.24 257.914C361.338 257.81 361.497 257.758 361.719 257.758H363.701V254.828C363.701 254.6 363.757 254.438 363.867 254.34C363.978 254.242 364.167 254.193 364.434 254.193ZM388.418 254.193C388.685 254.193 388.874 254.242 388.984 254.34C389.095 254.438 389.15 254.6 389.15 254.828V257.758H393.164C393.385 257.758 393.542 257.81 393.633 257.914C393.73 258.012 393.779 258.181 393.779 258.422C393.779 258.663 393.73 258.835 393.633 258.939C393.542 259.037 393.385 259.086 393.164 259.086H389.15V262.641C389.15 263.383 389.277 263.926 389.531 264.271C389.792 264.617 390.241 264.789 390.879 264.789C391.315 264.789 391.774 264.701 392.256 264.525C392.738 264.35 393.203 264.115 393.652 263.822C393.743 263.757 393.844 263.725 393.955 263.725C394.176 263.725 394.365 263.874 394.521 264.174C394.606 264.343 394.648 264.49 394.648 264.613C394.648 264.822 394.541 264.991 394.326 265.121C393.818 265.44 393.252 265.704 392.627 265.912C392.002 266.114 391.419 266.215 390.879 266.215C389.772 266.215 388.962 265.928 388.447 265.355C387.939 264.776 387.686 263.913 387.686 262.768V259.086H385.703C385.482 259.086 385.322 259.037 385.225 258.939C385.133 258.835 385.088 258.663 385.088 258.422C385.088 258.181 385.133 258.012 385.225 257.914C385.322 257.81 385.482 257.758 385.703 257.758H387.686V254.828C387.686 254.6 387.741 254.438 387.852 254.34C387.962 254.242 388.151 254.193 388.418 254.193ZM399.053 253.188C399.274 253.188 399.43 253.24 399.521 253.344C399.619 253.441 399.668 253.611 399.668 253.852V258.715C400.091 258.083 400.579 257.602 401.133 257.27C401.693 256.931 402.295 256.762 402.939 256.762C403.532 256.762 404.046 256.892 404.482 257.152C404.919 257.406 405.254 257.774 405.488 258.256C405.723 258.738 405.84 259.301 405.84 259.945V264.672H406.641C406.862 264.672 407.018 264.724 407.109 264.828C407.207 264.926 407.256 265.095 407.256 265.336C407.256 265.577 407.207 265.749 407.109 265.854C407.018 265.951 406.862 266 406.641 266H403.477C403.255 266 403.096 265.951 402.998 265.854C402.907 265.749 402.861 265.577 402.861 265.336C402.861 265.095 402.907 264.926 402.998 264.828C403.096 264.724 403.255 264.672 403.477 264.672H404.375V260.092C404.375 259.512 404.242 259.053 403.975 258.715C403.708 258.376 403.314 258.207 402.793 258.207C402.24 258.207 401.722 258.367 401.24 258.686C400.765 259.005 400.384 259.444 400.098 260.004C399.811 260.564 399.668 261.189 399.668 261.879V264.672H400.566C400.788 264.672 400.944 264.724 401.035 264.828C401.133 264.926 401.182 265.095 401.182 265.336C401.182 265.577 401.133 265.749 401.035 265.854C400.944 265.951 400.788 266 400.566 266H397.402C397.181 266 397.021 265.951 396.924 265.854C396.833 265.749 396.787 265.577 396.787 265.336C396.787 265.095 396.833 264.926 396.924 264.828C397.021 264.724 397.181 264.672 397.402 264.672H398.203V254.516H397.305C397.083 254.516 396.924 254.467 396.826 254.369C396.735 254.265 396.689 254.092 396.689 253.852C396.689 253.611 396.735 253.441 396.826 253.344C396.924 253.24 397.083 253.188 397.305 253.188H399.053ZM414.014 256.762C414.958 256.762 415.762 256.954 416.426 257.338C417.096 257.715 417.611 258.243 417.969 258.92C418.327 259.59 418.532 260.365 418.584 261.244C418.584 261.465 418.535 261.622 418.438 261.713C418.346 261.804 418.19 261.85 417.969 261.85H410.898C410.944 262.82 411.23 263.555 411.758 264.057C412.292 264.551 413.044 264.799 414.014 264.799C414.613 264.799 415.205 264.724 415.791 264.574C416.377 264.418 416.891 264.213 417.334 263.959C417.445 263.9 417.546 263.871 417.637 263.871C417.865 263.871 418.05 264.044 418.193 264.389C418.252 264.525 418.281 264.649 418.281 264.76C418.281 265.02 418.138 265.222 417.852 265.365C417.35 265.619 416.758 265.824 416.074 265.98C415.391 266.137 414.704 266.215 414.014 266.215C413.031 266.215 412.191 266.026 411.494 265.648C410.798 265.271 410.267 264.727 409.902 264.018C409.538 263.308 409.355 262.465 409.355 261.488C409.355 260.557 409.554 259.734 409.951 259.018C410.348 258.301 410.898 257.748 411.602 257.357C412.305 256.96 413.109 256.762 414.014 256.762ZM414.014 258.178C413.213 258.178 412.549 258.383 412.021 258.793C411.501 259.197 411.159 259.76 410.996 260.482H416.963C416.826 259.734 416.51 259.164 416.016 258.773C415.527 258.376 414.86 258.178 414.014 258.178ZM431.553 264.672C431.774 264.672 431.93 264.724 432.021 264.828C432.119 264.926 432.168 265.095 432.168 265.336C432.168 265.577 432.119 265.749 432.021 265.854C431.93 265.951 431.774 266 431.553 266H430.098C429.876 266 429.717 265.951 429.619 265.854C429.528 265.749 429.482 265.577 429.482 265.336V259.555C429.482 259.105 429.408 258.77 429.258 258.549C429.115 258.321 428.88 258.207 428.555 258.207C428.249 258.207 427.965 258.35 427.705 258.637C427.445 258.917 427.236 259.311 427.08 259.818C426.93 260.32 426.855 260.893 426.855 261.537V264.672H427.412C427.633 264.672 427.79 264.724 427.881 264.828C427.979 264.926 428.027 265.095 428.027 265.336C428.027 265.577 427.979 265.749 427.881 265.854C427.79 265.951 427.633 266 427.412 266H426.006C425.785 266 425.625 265.951 425.527 265.854C425.436 265.749 425.391 265.577 425.391 265.336V259.555C425.391 259.105 425.316 258.77 425.166 258.549C425.023 258.321 424.788 258.207 424.463 258.207C424.157 258.207 423.874 258.35 423.613 258.637C423.353 258.917 423.145 259.311 422.988 259.818C422.839 260.32 422.764 260.893 422.764 261.537V264.672H423.271C423.493 264.672 423.649 264.724 423.74 264.828C423.838 264.926 423.887 265.095 423.887 265.336C423.887 265.577 423.838 265.749 423.74 265.854C423.649 265.951 423.493 266 423.271 266H420.498C420.277 266 420.117 265.951 420.02 265.854C419.928 265.749 419.883 265.577 419.883 265.336C419.883 265.095 419.928 264.926 420.02 264.828C420.117 264.724 420.277 264.672 420.498 264.672H421.299V258.305H420.498C420.277 258.305 420.117 258.256 420.02 258.158C419.928 258.054 419.883 257.882 419.883 257.641C419.883 257.4 419.928 257.23 420.02 257.133C420.117 257.029 420.277 256.977 420.498 256.977H421.953C422.174 256.977 422.331 257.029 422.422 257.133C422.52 257.23 422.568 257.4 422.568 257.641V258.607C422.848 257.995 423.184 257.536 423.574 257.23C423.965 256.918 424.388 256.762 424.844 256.762C425.286 256.762 425.674 256.911 426.006 257.211C426.338 257.51 426.562 257.95 426.68 258.529C427.259 257.351 428.008 256.762 428.926 256.762C429.31 256.762 429.652 256.859 429.951 257.055C430.257 257.243 430.498 257.536 430.674 257.934C430.856 258.324 430.947 258.806 430.947 259.379V264.672H431.553ZM450.254 256.977C450.475 256.977 450.632 257.029 450.723 257.133C450.82 257.23 450.869 257.4 450.869 257.641V264.672H454.004C454.225 264.672 454.382 264.724 454.473 264.828C454.57 264.926 454.619 265.095 454.619 265.336C454.619 265.577 454.57 265.749 454.473 265.854C454.382 265.951 454.225 266 454.004 266H446.348C446.126 266 445.967 265.951 445.869 265.854C445.778 265.749 445.732 265.577 445.732 265.336C445.732 265.095 445.778 264.926 445.869 264.828C445.967 264.724 446.126 264.672 446.348 264.672H449.404V258.305H446.934C446.712 258.305 446.553 258.256 446.455 258.158C446.364 258.054 446.318 257.882 446.318 257.641C446.318 257.4 446.364 257.23 446.455 257.133C446.553 257.029 446.712 256.977 446.934 256.977H450.254ZM449.941 252.689C450.299 252.689 450.544 252.738 450.674 252.836C450.804 252.927 450.869 253.09 450.869 253.324V254.594C450.869 254.828 450.804 254.994 450.674 255.092C450.544 255.183 450.299 255.229 449.941 255.229C449.583 255.229 449.339 255.183 449.209 255.092C449.079 254.994 449.014 254.828 449.014 254.594V253.324C449.014 253.09 449.079 252.927 449.209 252.836C449.339 252.738 449.583 252.689 449.941 252.689ZM462.998 256.762C463.59 256.762 464.105 256.892 464.541 257.152C464.977 257.406 465.312 257.774 465.547 258.256C465.781 258.738 465.898 259.301 465.898 259.945V264.672H466.699C466.921 264.672 467.077 264.724 467.168 264.828C467.266 264.926 467.314 265.095 467.314 265.336C467.314 265.577 467.266 265.749 467.168 265.854C467.077 265.951 466.921 266 466.699 266H463.535C463.314 266 463.154 265.951 463.057 265.854C462.965 265.749 462.92 265.577 462.92 265.336C462.92 265.095 462.965 264.926 463.057 264.828C463.154 264.724 463.314 264.672 463.535 264.672H464.434V260.092C464.434 259.512 464.3 259.053 464.033 258.715C463.766 258.376 463.372 258.207 462.852 258.207C462.298 258.207 461.781 258.367 461.299 258.686C460.824 259.005 460.443 259.444 460.156 260.004C459.87 260.564 459.727 261.189 459.727 261.879V264.672H460.625C460.846 264.672 461.003 264.724 461.094 264.828C461.191 264.926 461.24 265.095 461.24 265.336C461.24 265.577 461.191 265.749 461.094 265.854C461.003 265.951 460.846 266 460.625 266H457.461C457.24 266 457.08 265.951 456.982 265.854C456.891 265.749 456.846 265.577 456.846 265.336C456.846 265.095 456.891 264.926 456.982 264.828C457.08 264.724 457.24 264.672 457.461 264.672H458.262V258.305H457.266C457.044 258.305 456.885 258.256 456.787 258.158C456.696 258.054 456.65 257.882 456.65 257.641C456.65 257.4 456.696 257.23 456.787 257.133C456.885 257.029 457.044 256.977 457.266 256.977H459.014C459.235 256.977 459.391 257.029 459.482 257.133C459.58 257.23 459.629 257.4 459.629 257.641V258.812C460.059 258.148 460.56 257.641 461.133 257.289C461.712 256.938 462.334 256.762 462.998 256.762ZM472.363 254.193C472.63 254.193 472.819 254.242 472.93 254.34C473.04 254.438 473.096 254.6 473.096 254.828V257.758H477.109C477.331 257.758 477.487 257.81 477.578 257.914C477.676 258.012 477.725 258.181 477.725 258.422C477.725 258.663 477.676 258.835 477.578 258.939C477.487 259.037 477.331 259.086 477.109 259.086H473.096V262.641C473.096 263.383 473.223 263.926 473.477 264.271C473.737 264.617 474.186 264.789 474.824 264.789C475.26 264.789 475.719 264.701 476.201 264.525C476.683 264.35 477.148 264.115 477.598 263.822C477.689 263.757 477.79 263.725 477.9 263.725C478.122 263.725 478.311 263.874 478.467 264.174C478.551 264.343 478.594 264.49 478.594 264.613C478.594 264.822 478.486 264.991 478.271 265.121C477.764 265.44 477.197 265.704 476.572 265.912C475.947 266.114 475.365 266.215 474.824 266.215C473.717 266.215 472.907 265.928 472.393 265.355C471.885 264.776 471.631 263.913 471.631 262.768V259.086H469.648C469.427 259.086 469.268 259.037 469.17 258.939C469.079 258.835 469.033 258.663 469.033 258.422C469.033 258.181 469.079 258.012 469.17 257.914C469.268 257.81 469.427 257.758 469.648 257.758H471.631V254.828C471.631 254.6 471.686 254.438 471.797 254.34C471.908 254.242 472.096 254.193 472.363 254.193ZM485.967 256.762C486.911 256.762 487.715 256.954 488.379 257.338C489.049 257.715 489.564 258.243 489.922 258.92C490.28 259.59 490.485 260.365 490.537 261.244C490.537 261.465 490.488 261.622 490.391 261.713C490.299 261.804 490.143 261.85 489.922 261.85H482.852C482.897 262.82 483.184 263.555 483.711 264.057C484.245 264.551 484.997 264.799 485.967 264.799C486.566 264.799 487.158 264.724 487.744 264.574C488.33 264.418 488.844 264.213 489.287 263.959C489.398 263.9 489.499 263.871 489.59 263.871C489.818 263.871 490.003 264.044 490.146 264.389C490.205 264.525 490.234 264.649 490.234 264.76C490.234 265.02 490.091 265.222 489.805 265.365C489.303 265.619 488.711 265.824 488.027 265.98C487.344 266.137 486.657 266.215 485.967 266.215C484.984 266.215 484.144 266.026 483.447 265.648C482.751 265.271 482.22 264.727 481.855 264.018C481.491 263.308 481.309 262.465 481.309 261.488C481.309 260.557 481.507 259.734 481.904 259.018C482.301 258.301 482.852 257.748 483.555 257.357C484.258 256.96 485.062 256.762 485.967 256.762ZM485.967 258.178C485.166 258.178 484.502 258.383 483.975 258.793C483.454 259.197 483.112 259.76 482.949 260.482H488.916C488.779 259.734 488.464 259.164 487.969 258.773C487.48 258.376 486.813 258.178 485.967 258.178ZM500.859 256.762C501.367 256.762 501.842 256.892 502.285 257.152C502.546 257.309 502.676 257.51 502.676 257.758C502.676 257.875 502.646 258.012 502.588 258.168C502.451 258.539 502.262 258.725 502.021 258.725C501.924 258.725 501.833 258.699 501.748 258.646C501.429 258.471 501.087 258.383 500.723 258.383C500.137 258.383 499.548 258.588 498.955 258.998C498.363 259.402 497.874 259.942 497.49 260.619C497.113 261.296 496.924 262.016 496.924 262.777V264.672H500.215C500.436 264.672 500.592 264.724 500.684 264.828C500.781 264.926 500.83 265.095 500.83 265.336C500.83 265.577 500.781 265.749 500.684 265.854C500.592 265.951 500.436 266 500.215 266H493.926C493.704 266 493.545 265.951 493.447 265.854C493.356 265.749 493.311 265.577 493.311 265.336C493.311 265.095 493.356 264.926 493.447 264.828C493.545 264.724 493.704 264.672 493.926 264.672H495.459V258.305H494.219C493.997 258.305 493.838 258.256 493.74 258.158C493.649 258.054 493.604 257.882 493.604 257.641C493.604 257.4 493.649 257.23 493.74 257.133C493.838 257.029 493.997 256.977 494.219 256.977H496.211C496.432 256.977 496.589 257.029 496.68 257.133C496.777 257.23 496.826 257.4 496.826 257.641V259.613C497.139 259.04 497.516 258.539 497.959 258.109C498.402 257.68 498.874 257.348 499.375 257.113C499.876 256.879 500.371 256.762 500.859 256.762ZM510.967 256.762C511.559 256.762 512.074 256.892 512.51 257.152C512.946 257.406 513.281 257.774 513.516 258.256C513.75 258.738 513.867 259.301 513.867 259.945V264.672H514.668C514.889 264.672 515.046 264.724 515.137 264.828C515.234 264.926 515.283 265.095 515.283 265.336C515.283 265.577 515.234 265.749 515.137 265.854C515.046 265.951 514.889 266 514.668 266H511.504C511.283 266 511.123 265.951 511.025 265.854C510.934 265.749 510.889 265.577 510.889 265.336C510.889 265.095 510.934 264.926 511.025 264.828C511.123 264.724 511.283 264.672 511.504 264.672H512.402V260.092C512.402 259.512 512.269 259.053 512.002 258.715C511.735 258.376 511.341 258.207 510.82 258.207C510.267 258.207 509.749 258.367 509.268 258.686C508.792 259.005 508.411 259.444 508.125 260.004C507.839 260.564 507.695 261.189 507.695 261.879V264.672H508.594C508.815 264.672 508.971 264.724 509.062 264.828C509.16 264.926 509.209 265.095 509.209 265.336C509.209 265.577 509.16 265.749 509.062 265.854C508.971 265.951 508.815 266 508.594 266H505.43C505.208 266 505.049 265.951 504.951 265.854C504.86 265.749 504.814 265.577 504.814 265.336C504.814 265.095 504.86 264.926 504.951 264.828C505.049 264.724 505.208 264.672 505.43 264.672H506.23V258.305H505.234C505.013 258.305 504.854 258.256 504.756 258.158C504.665 258.054 504.619 257.882 504.619 257.641C504.619 257.4 504.665 257.23 504.756 257.133C504.854 257.029 505.013 256.977 505.234 256.977H506.982C507.204 256.977 507.36 257.029 507.451 257.133C507.549 257.23 507.598 257.4 507.598 257.641V258.812C508.027 258.148 508.529 257.641 509.102 257.289C509.681 256.938 510.303 256.762 510.967 256.762ZM524.932 256.762C525.199 256.762 525.387 256.811 525.498 256.908C525.609 257.006 525.664 257.169 525.664 257.396V259.252C525.664 259.48 525.609 259.643 525.498 259.74C525.387 259.838 525.199 259.887 524.932 259.887C524.71 259.887 524.554 259.802 524.463 259.633C524.183 259.099 523.776 258.725 523.242 258.51C522.708 258.288 522.031 258.178 521.211 258.178C520.579 258.178 520.085 258.292 519.727 258.52C519.375 258.741 519.199 259.053 519.199 259.457C519.199 259.665 519.264 259.835 519.395 259.965C519.531 260.095 519.73 260.202 519.99 260.287C520.205 260.359 520.452 260.414 520.732 260.453C521.019 260.492 521.387 260.535 521.836 260.58C522.467 260.652 522.975 260.72 523.359 260.785C523.75 260.844 524.118 260.935 524.463 261.059C524.984 261.247 525.387 261.521 525.674 261.879C525.967 262.237 526.113 262.709 526.113 263.295C526.113 263.881 525.964 264.395 525.664 264.838C525.371 265.274 524.938 265.613 524.365 265.854C523.799 266.094 523.118 266.215 522.324 266.215C521.621 266.215 521.003 266.117 520.469 265.922C519.935 265.727 519.469 265.43 519.072 265.033V265.58C519.072 265.808 519.017 265.971 518.906 266.068C518.796 266.166 518.607 266.215 518.34 266.215C518.073 266.215 517.884 266.166 517.773 266.068C517.663 265.971 517.607 265.808 517.607 265.58V263.236C517.607 263.008 517.663 262.846 517.773 262.748C517.884 262.65 518.073 262.602 518.34 262.602C518.477 262.602 518.584 262.634 518.662 262.699C518.74 262.758 518.809 262.859 518.867 263.002C519.102 263.627 519.492 264.083 520.039 264.369C520.586 264.656 521.315 264.799 522.227 264.799C522.982 264.799 523.561 264.662 523.965 264.389C524.368 264.115 524.57 263.751 524.57 263.295C524.57 263.074 524.499 262.891 524.355 262.748C524.212 262.605 524.007 262.488 523.74 262.396C523.512 262.325 523.249 262.266 522.949 262.221C522.656 262.169 522.282 262.12 521.826 262.074C521.214 262.009 520.703 261.941 520.293 261.869C519.883 261.798 519.505 261.693 519.16 261.557C518.685 261.368 518.314 261.107 518.047 260.775C517.786 260.437 517.656 259.997 517.656 259.457C517.656 258.891 517.803 258.406 518.096 258.002C518.395 257.592 518.805 257.283 519.326 257.074C519.854 256.866 520.449 256.762 521.113 256.762C521.745 256.762 522.321 256.856 522.842 257.045C523.369 257.234 523.822 257.497 524.199 257.836V257.396C524.199 257.169 524.255 257.006 524.365 256.908C524.476 256.811 524.665 256.762 524.932 256.762ZM530.967 253.188C531.188 253.188 531.344 253.24 531.436 253.344C531.533 253.441 531.582 253.611 531.582 253.852V258.715C532.005 258.083 532.493 257.602 533.047 257.27C533.607 256.931 534.209 256.762 534.854 256.762C535.446 256.762 535.96 256.892 536.396 257.152C536.833 257.406 537.168 257.774 537.402 258.256C537.637 258.738 537.754 259.301 537.754 259.945V264.672H538.555C538.776 264.672 538.932 264.724 539.023 264.828C539.121 264.926 539.17 265.095 539.17 265.336C539.17 265.577 539.121 265.749 539.023 265.854C538.932 265.951 538.776 266 538.555 266H535.391C535.169 266 535.01 265.951 534.912 265.854C534.821 265.749 534.775 265.577 534.775 265.336C534.775 265.095 534.821 264.926 534.912 264.828C535.01 264.724 535.169 264.672 535.391 264.672H536.289V260.092C536.289 259.512 536.156 259.053 535.889 258.715C535.622 258.376 535.228 258.207 534.707 258.207C534.154 258.207 533.636 258.367 533.154 258.686C532.679 259.005 532.298 259.444 532.012 260.004C531.725 260.564 531.582 261.189 531.582 261.879V264.672H532.48C532.702 264.672 532.858 264.724 532.949 264.828C533.047 264.926 533.096 265.095 533.096 265.336C533.096 265.577 533.047 265.749 532.949 265.854C532.858 265.951 532.702 266 532.48 266H529.316C529.095 266 528.936 265.951 528.838 265.854C528.747 265.749 528.701 265.577 528.701 265.336C528.701 265.095 528.747 264.926 528.838 264.828C528.936 264.724 529.095 264.672 529.316 264.672H530.117V254.516H529.219C528.997 254.516 528.838 254.467 528.74 254.369C528.649 254.265 528.604 254.092 528.604 253.852C528.604 253.611 528.649 253.441 528.74 253.344C528.838 253.24 528.997 253.188 529.219 253.188H530.967ZM546.191 256.977C546.413 256.977 546.569 257.029 546.66 257.133C546.758 257.23 546.807 257.4 546.807 257.641V264.672H549.941C550.163 264.672 550.319 264.724 550.41 264.828C550.508 264.926 550.557 265.095 550.557 265.336C550.557 265.577 550.508 265.749 550.41 265.854C550.319 265.951 550.163 266 549.941 266H542.285C542.064 266 541.904 265.951 541.807 265.854C541.715 265.749 541.67 265.577 541.67 265.336C541.67 265.095 541.715 264.926 541.807 264.828C541.904 264.724 542.064 264.672 542.285 264.672H545.342V258.305H542.871C542.65 258.305 542.49 258.256 542.393 258.158C542.301 258.054 542.256 257.882 542.256 257.641C542.256 257.4 542.301 257.23 542.393 257.133C542.49 257.029 542.65 256.977 542.871 256.977H546.191ZM545.879 252.689C546.237 252.689 546.481 252.738 546.611 252.836C546.742 252.927 546.807 253.09 546.807 253.324V254.594C546.807 254.828 546.742 254.994 546.611 255.092C546.481 255.183 546.237 255.229 545.879 255.229C545.521 255.229 545.277 255.183 545.146 255.092C545.016 254.994 544.951 254.828 544.951 254.594V253.324C544.951 253.09 545.016 252.927 545.146 252.836C545.277 252.738 545.521 252.689 545.879 252.689ZM558.369 256.762C559.176 256.762 559.899 256.954 560.537 257.338C561.175 257.715 561.676 258.262 562.041 258.979C562.406 259.688 562.588 260.525 562.588 261.488C562.588 262.452 562.406 263.292 562.041 264.008C561.676 264.717 561.175 265.264 560.537 265.648C559.899 266.026 559.176 266.215 558.369 266.215C557.145 266.215 556.113 265.678 555.273 264.604V268.461H556.953C557.174 268.461 557.331 268.51 557.422 268.607C557.52 268.712 557.568 268.884 557.568 269.125C557.568 269.366 557.52 269.535 557.422 269.633C557.331 269.737 557.174 269.789 556.953 269.789H552.812C552.591 269.789 552.432 269.737 552.334 269.633C552.243 269.535 552.197 269.366 552.197 269.125C552.197 268.884 552.243 268.712 552.334 268.607C552.432 268.51 552.591 268.461 552.812 268.461H553.809V258.305H553.008C552.786 258.305 552.627 258.256 552.529 258.158C552.438 258.054 552.393 257.882 552.393 257.641C552.393 257.4 552.438 257.23 552.529 257.133C552.627 257.029 552.786 256.977 553.008 256.977H554.561C554.782 256.977 554.938 257.029 555.029 257.133C555.127 257.23 555.176 257.4 555.176 257.641V258.422C555.586 257.888 556.061 257.478 556.602 257.191C557.142 256.905 557.731 256.762 558.369 256.762ZM558.271 258.207C557.692 258.207 557.174 258.337 556.719 258.598C556.27 258.858 555.915 259.236 555.654 259.73C555.4 260.225 555.273 260.811 555.273 261.488C555.273 262.165 555.4 262.751 555.654 263.246C555.915 263.741 556.27 264.118 556.719 264.379C557.174 264.639 557.692 264.77 558.271 264.77C558.851 264.77 559.349 264.633 559.766 264.359C560.182 264.079 560.498 263.692 560.713 263.197C560.934 262.702 561.045 262.133 561.045 261.488C561.045 260.844 560.934 260.274 560.713 259.779C560.498 259.285 560.182 258.9 559.766 258.627C559.349 258.347 558.851 258.207 558.271 258.207ZM572.9 256.762C573.167 256.762 573.356 256.811 573.467 256.908C573.577 257.006 573.633 257.169 573.633 257.396V259.252C573.633 259.48 573.577 259.643 573.467 259.74C573.356 259.838 573.167 259.887 572.9 259.887C572.679 259.887 572.523 259.802 572.432 259.633C572.152 259.099 571.745 258.725 571.211 258.51C570.677 258.288 570 258.178 569.18 258.178C568.548 258.178 568.053 258.292 567.695 258.52C567.344 258.741 567.168 259.053 567.168 259.457C567.168 259.665 567.233 259.835 567.363 259.965C567.5 260.095 567.699 260.202 567.959 260.287C568.174 260.359 568.421 260.414 568.701 260.453C568.988 260.492 569.355 260.535 569.805 260.58C570.436 260.652 570.944 260.72 571.328 260.785C571.719 260.844 572.087 260.935 572.432 261.059C572.952 261.247 573.356 261.521 573.643 261.879C573.936 262.237 574.082 262.709 574.082 263.295C574.082 263.881 573.932 264.395 573.633 264.838C573.34 265.274 572.907 265.613 572.334 265.854C571.768 266.094 571.087 266.215 570.293 266.215C569.59 266.215 568.971 266.117 568.438 265.922C567.904 265.727 567.438 265.43 567.041 265.033V265.58C567.041 265.808 566.986 265.971 566.875 266.068C566.764 266.166 566.576 266.215 566.309 266.215C566.042 266.215 565.853 266.166 565.742 266.068C565.632 265.971 565.576 265.808 565.576 265.58V263.236C565.576 263.008 565.632 262.846 565.742 262.748C565.853 262.65 566.042 262.602 566.309 262.602C566.445 262.602 566.553 262.634 566.631 262.699C566.709 262.758 566.777 262.859 566.836 263.002C567.07 263.627 567.461 264.083 568.008 264.369C568.555 264.656 569.284 264.799 570.195 264.799C570.951 264.799 571.53 264.662 571.934 264.389C572.337 264.115 572.539 263.751 572.539 263.295C572.539 263.074 572.467 262.891 572.324 262.748C572.181 262.605 571.976 262.488 571.709 262.396C571.481 262.325 571.217 262.266 570.918 262.221C570.625 262.169 570.251 262.12 569.795 262.074C569.183 262.009 568.672 261.941 568.262 261.869C567.852 261.798 567.474 261.693 567.129 261.557C566.654 261.368 566.283 261.107 566.016 260.775C565.755 260.437 565.625 259.997 565.625 259.457C565.625 258.891 565.771 258.406 566.064 258.002C566.364 257.592 566.774 257.283 567.295 257.074C567.822 256.866 568.418 256.762 569.082 256.762C569.714 256.762 570.29 256.856 570.811 257.045C571.338 257.234 571.79 257.497 572.168 257.836V257.396C572.168 257.169 572.223 257.006 572.334 256.908C572.445 256.811 572.633 256.762 572.9 256.762Z" fill="white"/>
<path d="M42 41H721V39H42V41ZM722 42V415H724V42H722ZM721 416H42V418H721V416ZM41 415V42H39V415H41ZM42 416C41.4477 416 41 415.552 41 415H39C39 416.657 40.3431 418 42 418V416ZM722 415C722 415.552 721.552 416 721 416V418C722.657 418 724 416.657 724 415H722ZM721 41C721.552 41 722 41.4477 722 42H724C724 40.3431 722.657 39 721 39V41ZM42 39C40.3431 39 39 40.3432 39 42H41C41 41.4477 41.4477 41 42 41V39Z" fill="white" fill-opacity="0.1"/>
<rect x="40" y="4" width="59.375" height="30" rx="3" fill="#404040"/>
<rect x="40.5" y="4.5" width="58.375" height="29" rx="2.5" stroke="black" stroke-opacity="0.14902"/>
<path d="M51.3438 16C51.2969 15.6042 51.1068 15.2969 50.7734 15.0781C50.4401 14.8594 50.0313 14.75 49.5469 14.75C49.1927 14.75 48.8828 14.8073 48.6172 14.9219C48.3542 15.0365 48.1484 15.194 48 15.3945C47.8542 15.5951 47.7813 15.8229 47.7813 16.0781C47.7813 16.2917 47.832 16.4753 47.9336 16.6289C48.0378 16.7799 48.1706 16.9062 48.332 17.0078C48.4935 17.1068 48.6628 17.1888 48.8398 17.2539C49.0169 17.3164 49.1797 17.3672 49.3281 17.4062L50.1406 17.625C50.349 17.6797 50.5807 17.7552 50.8359 17.8516C51.0938 17.9479 51.3398 18.0794 51.5742 18.2461C51.8112 18.4102 52.0065 18.6211 52.1602 18.8789C52.3138 19.1367 52.3906 19.4531 52.3906 19.8281C52.3906 20.2604 52.2773 20.651 52.0508 21C51.8268 21.349 51.4987 21.6263 51.0664 21.832C50.6367 22.0378 50.1146 22.1406 49.5 22.1406C48.9271 22.1406 48.431 22.0482 48.0117 21.8633C47.5951 21.6784 47.2669 21.4206 47.0273 21.0898C46.7904 20.7591 46.6563 20.375 46.625 19.9375H47.625C47.651 20.2396 47.7526 20.4896 47.9297 20.6875C48.1094 20.8828 48.3359 21.0286 48.6094 21.125C48.8854 21.2187 49.1823 21.2656 49.5 21.2656C49.8698 21.2656 50.2018 21.2057 50.4961 21.0859C50.7904 20.9635 51.0234 20.7943 51.1953 20.5781C51.3672 20.3594 51.4531 20.1042 51.4531 19.8125C51.4531 19.5469 51.3789 19.3307 51.2305 19.1641C51.082 18.9974 50.8867 18.862 50.6445 18.7578C50.4023 18.6536 50.1406 18.5625 49.8594 18.4844L48.875 18.2031C48.25 18.0234 47.7552 17.7669 47.3906 17.4336C47.026 17.1003 46.8438 16.6641 46.8438 16.125C46.8438 15.6771 46.9648 15.2865 47.207 14.9531C47.4518 14.6172 47.7799 14.3568 48.1914 14.1719C48.6055 13.9844 49.0677 13.8906 49.5781 13.8906C50.0938 13.8906 50.5521 13.9831 50.9531 14.168C51.3542 14.3503 51.6719 14.6003 51.9062 14.918C52.1432 15.2357 52.2682 15.5964 52.2813 16H51.3438ZM56.374 22.125C55.7959 22.125 55.2972 21.9974 54.8779 21.7422C54.4613 21.4844 54.1396 21.125 53.9131 20.6641C53.6891 20.2005 53.5771 19.6615 53.5771 19.0469C53.5771 18.4323 53.6891 17.8906 53.9131 17.4219C54.1396 16.9505 54.4548 16.5833 54.8584 16.3203C55.2646 16.0547 55.7386 15.9219 56.2803 15.9219C56.5928 15.9219 56.9014 15.974 57.2061 16.0781C57.5107 16.1823 57.7881 16.3516 58.0381 16.5859C58.2881 16.8177 58.4873 17.125 58.6357 17.5078C58.7842 17.8906 58.8584 18.362 58.8584 18.9219V19.3125H54.2334V18.5156H57.9209C57.9209 18.1771 57.8532 17.875 57.7178 17.6094C57.585 17.3437 57.3949 17.1341 57.1475 16.9805C56.9027 16.8268 56.6136 16.75 56.2803 16.75C55.9131 16.75 55.5954 16.8411 55.3271 17.0234C55.0615 17.2031 54.8571 17.4375 54.7139 17.7266C54.5706 18.0156 54.499 18.3255 54.499 18.6562V19.1875C54.499 19.6406 54.5771 20.0247 54.7334 20.3398C54.8923 20.6523 55.1123 20.8906 55.3936 21.0547C55.6748 21.2161 56.0016 21.2969 56.374 21.2969C56.6162 21.2969 56.835 21.263 57.0303 21.1953C57.2282 21.125 57.3988 21.0208 57.542 20.8828C57.6852 20.7422 57.7959 20.5677 57.874 20.3594L58.7646 20.6094C58.6709 20.9115 58.5133 21.1771 58.292 21.4062C58.0706 21.6328 57.7972 21.8099 57.4717 21.9375C57.1462 22.0625 56.7803 22.125 56.374 22.125ZM62.6982 22.125C62.1357 22.125 61.6514 21.9922 61.2451 21.7266C60.8389 21.4609 60.5264 21.0951 60.3076 20.6289C60.0889 20.1628 59.9795 19.6302 59.9795 19.0312C59.9795 18.4219 60.0915 17.8841 60.3154 17.418C60.542 16.9492 60.8571 16.5833 61.2607 16.3203C61.667 16.0547 62.141 15.9219 62.6826 15.9219C63.1045 15.9219 63.4847 16 63.8232 16.1562C64.1618 16.3125 64.4391 16.5312 64.6553 16.8125C64.8714 17.0937 65.0055 17.4219 65.0576 17.7969H64.1357C64.0654 17.5234 63.9092 17.2812 63.667 17.0703C63.4274 16.8568 63.1045 16.75 62.6982 16.75C62.3389 16.75 62.0238 16.8437 61.7529 17.0312C61.4847 17.2161 61.2751 17.4779 61.124 17.8164C60.9756 18.1523 60.9014 18.5469 60.9014 19C60.9014 19.4635 60.9743 19.8672 61.1201 20.2109C61.2686 20.5547 61.4769 20.8216 61.7451 21.0117C62.016 21.2018 62.3337 21.2969 62.6982 21.2969C62.9378 21.2969 63.1553 21.2552 63.3506 21.1719C63.5459 21.0885 63.7113 20.9688 63.8467 20.8125C63.9821 20.6562 64.0785 20.4687 64.1357 20.25H65.0576C65.0055 20.6042 64.8766 20.9232 64.6709 21.207C64.4678 21.4883 64.1982 21.7122 63.8623 21.8789C63.529 22.043 63.141 22.125 62.6982 22.125ZM69.0146 16V16.7812H65.9053V16H69.0146ZM66.8115 14.5625H67.7334V20.2812C67.7334 20.5417 67.7712 20.737 67.8467 20.8672C67.9248 20.9948 68.0238 21.0807 68.1436 21.125C68.266 21.1667 68.3949 21.1875 68.5303 21.1875C68.6318 21.1875 68.7152 21.1823 68.7803 21.1719C68.8454 21.1589 68.8975 21.1484 68.9365 21.1406L69.124 21.9687C69.0615 21.9922 68.9743 22.0156 68.8623 22.0391C68.7503 22.0651 68.6084 22.0781 68.4365 22.0781C68.1761 22.0781 67.9209 22.0221 67.6709 21.9102C67.4235 21.7982 67.2178 21.6276 67.0537 21.3984C66.8923 21.1693 66.8115 20.8802 66.8115 20.5312V14.5625ZM70.4014 22V16H71.3232V22H70.4014ZM70.8701 15C70.6904 15 70.5355 14.9388 70.4053 14.8164C70.2777 14.694 70.2139 14.5469 70.2139 14.375C70.2139 14.2031 70.2777 14.056 70.4053 13.9336C70.5355 13.8112 70.6904 13.75 70.8701 13.75C71.0498 13.75 71.2035 13.8112 71.3311 13.9336C71.4613 14.056 71.5264 14.2031 71.5264 14.375C71.5264 14.5469 71.4613 14.694 71.3311 14.8164C71.2035 14.9388 71.0498 15 70.8701 15ZM75.4492 22.125C74.9076 22.125 74.4323 21.9961 74.0234 21.7383C73.6172 21.4805 73.2995 21.1198 73.0703 20.6562C72.8438 20.1927 72.7305 19.651 72.7305 19.0312C72.7305 18.4062 72.8438 17.8607 73.0703 17.3945C73.2995 16.9284 73.6172 16.5664 74.0234 16.3086C74.4323 16.0508 74.9076 15.9219 75.4492 15.9219C75.9909 15.9219 76.4648 16.0508 76.8711 16.3086C77.2799 16.5664 77.5977 16.9284 77.8242 17.3945C78.0534 17.8607 78.168 18.4062 78.168 19.0312C78.168 19.651 78.0534 20.1927 77.8242 20.6562C77.5977 21.1198 77.2799 21.4805 76.8711 21.7383C76.4648 21.9961 75.9909 22.125 75.4492 22.125ZM75.4492 21.2969C75.8607 21.2969 76.1992 21.1914 76.4648 20.9805C76.7305 20.7695 76.9271 20.4922 77.0547 20.1484C77.1823 19.8047 77.2461 19.4323 77.2461 19.0312C77.2461 18.6302 77.1823 18.2565 77.0547 17.9102C76.9271 17.5638 76.7305 17.2839 76.4648 17.0703C76.1992 16.8568 75.8607 16.75 75.4492 16.75C75.0378 16.75 74.6992 16.8568 74.4336 17.0703C74.168 17.2839 73.9714 17.5638 73.8438 17.9102C73.7161 18.2565 73.6523 18.6302 73.6523 19.0312C73.6523 19.4323 73.7161 19.8047 73.8438 20.1484C73.9714 20.4922 74.168 20.7695 74.4336 20.9805C74.6992 21.1914 75.0378 21.2969 75.4492 21.2969ZM80.4971 18.3906V22H79.5752V16H80.4658V16.9375H80.5439C80.6846 16.6328 80.8981 16.388 81.1846 16.2031C81.471 16.0156 81.8408 15.9219 82.2939 15.9219C82.7002 15.9219 83.0557 16.0052 83.3604 16.1719C83.665 16.3359 83.902 16.5859 84.0713 16.9219C84.2406 17.2552 84.3252 17.6771 84.3252 18.1875V22H83.4033V18.25C83.4033 17.7786 83.2809 17.4115 83.0361 17.1484C82.7913 16.8828 82.4554 16.75 82.0283 16.75C81.734 16.75 81.471 16.8138 81.2393 16.9414C81.0101 17.069 80.8291 17.2552 80.6963 17.5C80.5635 17.7448 80.4971 18.0417 80.4971 18.3906ZM91.9004 14V22H90.9316V15.0156H90.8848L88.9316 16.3125V15.3281L90.9316 14H91.9004Z" fill="white"/>
</svg>
